<ttFont>
    <TTGlyph name="A" xMin="-39" yMin="-114" xMax="644" yMax="750">
      <contour>
        <pt x="378" y="0" on="1"/>
        <pt x="454" y="359" on="1"/>
        <pt x="420" y="378" on="0"/>
        <pt x="324" y="404" on="0"/>
        <pt x="275" y="409" on="1"/>
        <pt x="246" y="351" on="0"/>
        <pt x="197" y="228" on="0"/>
        <pt x="161" y="109" on="0"/>
        <pt x="140" y="-1" on="0"/>
        <pt x="140" y="-46" on="1"/>
        <pt x="140" y="-86" on="0"/>
        <pt x="149" y="-114" on="1"/>
        <pt x="130" y="-114" on="0"/>
        <pt x="90" y="-107" on="0"/>
        <pt x="57" y="-84" on="0"/>
        <pt x="36" y="-43" on="0"/>
        <pt x="36" y="-8" on="1"/>
        <pt x="36" y="27" on="0"/>
        <pt x="59" y="123" on="0"/>
        <pt x="99" y="234" on="0"/>
        <pt x="156" y="354" on="0"/>
        <pt x="191" y="413" on="1"/>
        <pt x="161" y="412" on="0"/>
        <pt x="108" y="402" on="0"/>
        <pt x="68" y="386" on="0"/>
        <pt x="45" y="364" on="0"/>
        <pt x="45" y="351" on="1"/>
        <pt x="59" y="346" on="0"/>
        <pt x="65" y="332" on="0"/>
        <pt x="65" y="326" on="1"/>
        <pt x="65" y="303" on="0"/>
        <pt x="33" y="286" on="0"/>
        <pt x="16" y="286" on="1"/>
        <pt x="-5" y="286" on="0"/>
        <pt x="-39" y="309" on="0"/>
        <pt x="-39" y="338" on="1"/>
        <pt x="-39" y="365" on="0"/>
        <pt x="-6" y="408" on="0"/>
        <pt x="52" y="438" on="0"/>
        <pt x="130" y="454" on="0"/>
        <pt x="174" y="454" on="1"/>
        <pt x="184" y="454" on="0"/>
        <pt x="204" y="453" on="0"/>
        <pt x="215" y="452" on="1"/>
        <pt x="253" y="513" on="0"/>
        <pt x="339" y="621" on="0"/>
        <pt x="429" y="702" on="0"/>
        <pt x="522" y="750" on="0"/>
        <pt x="567" y="750" on="1"/>
        <pt x="582" y="750" on="0"/>
        <pt x="626" y="744" on="0"/>
        <pt x="644" y="736" on="1"/>
        <pt x="487" y="0" on="1"/>
      </contour>
      <contour>
        <pt x="292" y="442" on="1"/>
        <pt x="341" y="434" on="0"/>
        <pt x="430" y="406" on="0"/>
        <pt x="460" y="390" on="1"/>
        <pt x="526" y="701" on="1"/>
        <pt x="500" y="700" on="0"/>
        <pt x="442" y="659" on="0"/>
        <pt x="381" y="589" on="0"/>
        <pt x="320" y="496" on="0"/>
      </contour>
    </TTGlyph>
    <TTGlyph name="A.salt" xMin="-32" yMin="-114" xMax="576" yMax="750">
      <contour>
        <pt x="310" y="0" on="1"/>
        <pt x="390" y="380" on="1"/>
        <pt x="192" y="380" on="1"/>
        <pt x="166" y="324" on="0"/>
        <pt x="122" y="209" on="0"/>
        <pt x="90" y="98" on="0"/>
        <pt x="72" y="-4" on="0"/>
        <pt x="72" y="-46" on="1"/>
        <pt x="72" y="-86" on="0"/>
        <pt x="81" y="-114" on="1"/>
        <pt x="62" y="-114" on="0"/>
        <pt x="22" y="-107" on="0"/>
        <pt x="-11" y="-84" on="0"/>
        <pt x="-32" y="-43" on="0"/>
        <pt x="-32" y="-8" on="1"/>
        <pt x="-32" y="42" on="0"/>
        <pt x="13" y="193" on="0"/>
        <pt x="91" y="361" on="0"/>
        <pt x="195" y="530" on="0"/>
        <pt x="313" y="665" on="0"/>
        <pt x="438" y="750" on="0"/>
        <pt x="499" y="750" on="1"/>
        <pt x="514" y="750" on="0"/>
        <pt x="558" y="744" on="0"/>
        <pt x="576" y="736" on="1"/>
        <pt x="419" y="0" on="1"/>
      </contour>
      <contour>
        <pt x="458" y="701" on="1"/>
        <pt x="431" y="699" on="0"/>
        <pt x="369" y="654" on="0"/>
        <pt x="304" y="577" on="0"/>
        <pt x="240" y="476" on="0"/>
        <pt x="211" y="418" on="1"/>
        <pt x="398" y="418" on="1"/>
      </contour>
    </TTGlyph>
    <TTGlyph name="AE" xMin="15" yMin="-114" xMax="913" yMax="750">
      <contour>
        <pt x="805" y="657" on="1"/>
        <pt x="774" y="657" on="0"/>
        <pt x="714" y="671" on="0"/>
        <pt x="686" y="679" on="1"/>
        <pt x="629" y="413" on="1"/>
        <pt x="778" y="413" on="1"/>
        <pt x="764" y="354" on="1"/>
        <pt x="616" y="354" on="1"/>
        <pt x="556" y="70" on="1"/>
        <pt x="776" y="70" on="1"/>
        <pt x="761" y="0" on="1"/>
        <pt x="432" y="0" on="1"/>
        <pt x="508" y="359" on="1"/>
        <pt x="473" y="378" on="0"/>
        <pt x="378" y="404" on="0"/>
        <pt x="328" y="409" on="1"/>
        <pt x="299" y="351" on="0"/>
        <pt x="250" y="228" on="0"/>
        <pt x="214" y="109" on="0"/>
        <pt x="194" y="-1" on="0"/>
        <pt x="194" y="-46" on="1"/>
        <pt x="194" y="-86" on="0"/>
        <pt x="203" y="-114" on="1"/>
        <pt x="184" y="-114" on="0"/>
        <pt x="144" y="-107" on="0"/>
        <pt x="111" y="-84" on="0"/>
        <pt x="90" y="-42" on="0"/>
        <pt x="90" y="-7" on="1"/>
        <pt x="90" y="28" on="0"/>
        <pt x="112" y="124" on="0"/>
        <pt x="153" y="235" on="0"/>
        <pt x="209" y="354" on="0"/>
        <pt x="244" y="413" on="1"/>
        <pt x="214" y="412" on="0"/>
        <pt x="162" y="402" on="0"/>
        <pt x="122" y="386" on="0"/>
        <pt x="99" y="364" on="0"/>
        <pt x="99" y="351" on="1"/>
        <pt x="113" y="346" on="0"/>
        <pt x="119" y="332" on="0"/>
        <pt x="119" y="326" on="1"/>
        <pt x="119" y="303" on="0"/>
        <pt x="87" y="286" on="0"/>
        <pt x="70" y="286" on="1"/>
        <pt x="49" y="286" on="0"/>
        <pt x="15" y="309" on="0"/>
        <pt x="15" y="338" on="1"/>
        <pt x="15" y="372" on="0"/>
        <pt x="58" y="417" on="0"/>
        <pt x="123" y="443" on="0"/>
        <pt x="199" y="454" on="0"/>
        <pt x="231" y="454" on="1"/>
        <pt x="242" y="454" on="0"/>
        <pt x="260" y="453" on="0"/>
        <pt x="268" y="452" on="1"/>
        <pt x="307" y="513" on="0"/>
        <pt x="394" y="621" on="0"/>
        <pt x="487" y="702" on="0"/>
        <pt x="583" y="750" on="0"/>
        <pt x="631" y="750" on="1"/>
        <pt x="649" y="750" on="0"/>
        <pt x="692" y="744" on="0"/>
        <pt x="737" y="737" on="0"/>
        <pt x="780" y="731" on="0"/>
        <pt x="798" y="731" on="1"/>
        <pt x="811" y="731" on="0"/>
        <pt x="843" y="734" on="0"/>
        <pt x="875" y="740" on="0"/>
        <pt x="903" y="747" on="0"/>
        <pt x="913" y="750" on="1"/>
        <pt x="905" y="720" on="0"/>
        <pt x="882" y="684" on="0"/>
        <pt x="854" y="664" on="0"/>
        <pt x="822" y="657" on="0"/>
      </contour>
      <contour>
        <pt x="345" y="442" on="1"/>
        <pt x="395" y="434" on="0"/>
        <pt x="484" y="406" on="0"/>
        <pt x="514" y="390" on="1"/>
        <pt x="580" y="701" on="1"/>
        <pt x="553" y="697" on="0"/>
        <pt x="493" y="654" on="0"/>
        <pt x="433" y="585" on="0"/>
        <pt x="373" y="494" on="0"/>
      </contour>
    </TTGlyph>
    <TTGlyph name="Aacute" xMin="-39" yMin="-114" xMax="644" yMax="1000">
      <contour>
        <pt x="378" y="0" on="1"/>
        <pt x="454" y="359" on="1"/>
        <pt x="420" y="378" on="0"/>
        <pt x="324" y="404" on="0"/>
        <pt x="275" y="409" on="1"/>
        <pt x="246" y="351" on="0"/>
        <pt x="197" y="228" on="0"/>
        <pt x="161" y="109" on="0"/>
        <pt x="140" y="-1" on="0"/>
        <pt x="140" y="-46" on="1"/>
        <pt x="140" y="-86" on="0"/>
        <pt x="149" y="-114" on="1"/>
        <pt x="130" y="-114" on="0"/>
        <pt x="90" y="-107" on="0"/>
        <pt x="57" y="-84" on="0"/>
        <pt x="36" y="-43" on="0"/>
        <pt x="36" y="-8" on="1"/>
        <pt x="36" y="27" on="0"/>
        <pt x="59" y="123" on="0"/>
        <pt x="99" y="234" on="0"/>
        <pt x="156" y="354" on="0"/>
        <pt x="191" y="413" on="1"/>
        <pt x="161" y="412" on="0"/>
        <pt x="108" y="402" on="0"/>
        <pt x="68" y="386" on="0"/>
        <pt x="45" y="364" on="0"/>
        <pt x="45" y="351" on="1"/>
        <pt x="59" y="346" on="0"/>
        <pt x="65" y="332" on="0"/>
        <pt x="65" y="326" on="1"/>
        <pt x="65" y="303" on="0"/>
        <pt x="33" y="286" on="0"/>
        <pt x="16" y="286" on="1"/>
        <pt x="-5" y="286" on="0"/>
        <pt x="-39" y="309" on="0"/>
        <pt x="-39" y="338" on="1"/>
        <pt x="-39" y="365" on="0"/>
        <pt x="-6" y="408" on="0"/>
        <pt x="52" y="438" on="0"/>
        <pt x="130" y="454" on="0"/>
        <pt x="174" y="454" on="1"/>
        <pt x="184" y="454" on="0"/>
        <pt x="204" y="453" on="0"/>
        <pt x="215" y="452" on="1"/>
        <pt x="253" y="513" on="0"/>
        <pt x="339" y="621" on="0"/>
        <pt x="429" y="702" on="0"/>
        <pt x="522" y="750" on="0"/>
        <pt x="567" y="750" on="1"/>
        <pt x="582" y="750" on="0"/>
        <pt x="626" y="744" on="0"/>
        <pt x="644" y="736" on="1"/>
        <pt x="487" y="0" on="1"/>
      </contour>
      <contour>
        <pt x="292" y="442" on="1"/>
        <pt x="341" y="434" on="0"/>
        <pt x="430" y="406" on="0"/>
        <pt x="460" y="390" on="1"/>
        <pt x="526" y="701" on="1"/>
        <pt x="500" y="700" on="0"/>
        <pt x="442" y="659" on="0"/>
        <pt x="381" y="589" on="0"/>
        <pt x="320" y="496" on="0"/>
      </contour>
      <contour>
        <pt x="550" y="1000" on="1"/>
        <pt x="635" y="1000" on="1"/>
        <pt x="514" y="811" on="1"/>
        <pt x="459" y="811" on="1"/>
      </contour>
    </TTGlyph>
    <TTGlyph name="Acircumflex" xMin="-39" yMin="-114" xMax="657" yMax="978">
      <contour>
        <pt x="378" y="0" on="1"/>
        <pt x="454" y="359" on="1"/>
        <pt x="420" y="378" on="0"/>
        <pt x="324" y="404" on="0"/>
        <pt x="275" y="409" on="1"/>
        <pt x="246" y="351" on="0"/>
        <pt x="197" y="228" on="0"/>
        <pt x="161" y="109" on="0"/>
        <pt x="140" y="-1" on="0"/>
        <pt x="140" y="-46" on="1"/>
        <pt x="140" y="-86" on="0"/>
        <pt x="149" y="-114" on="1"/>
        <pt x="130" y="-114" on="0"/>
        <pt x="90" y="-107" on="0"/>
        <pt x="57" y="-84" on="0"/>
        <pt x="36" y="-43" on="0"/>
        <pt x="36" y="-8" on="1"/>
        <pt x="36" y="27" on="0"/>
        <pt x="59" y="123" on="0"/>
        <pt x="99" y="234" on="0"/>
        <pt x="156" y="354" on="0"/>
        <pt x="191" y="413" on="1"/>
        <pt x="161" y="412" on="0"/>
        <pt x="108" y="402" on="0"/>
        <pt x="68" y="386" on="0"/>
        <pt x="45" y="364" on="0"/>
        <pt x="45" y="351" on="1"/>
        <pt x="59" y="346" on="0"/>
        <pt x="65" y="332" on="0"/>
        <pt x="65" y="326" on="1"/>
        <pt x="65" y="303" on="0"/>
        <pt x="33" y="286" on="0"/>
        <pt x="16" y="286" on="1"/>
        <pt x="-5" y="286" on="0"/>
        <pt x="-39" y="309" on="0"/>
        <pt x="-39" y="338" on="1"/>
        <pt x="-39" y="365" on="0"/>
        <pt x="-6" y="408" on="0"/>
        <pt x="52" y="438" on="0"/>
        <pt x="130" y="454" on="0"/>
        <pt x="174" y="454" on="1"/>
        <pt x="184" y="454" on="0"/>
        <pt x="204" y="453" on="0"/>
        <pt x="215" y="452" on="1"/>
        <pt x="253" y="513" on="0"/>
        <pt x="339" y="621" on="0"/>
        <pt x="429" y="702" on="0"/>
        <pt x="522" y="750" on="0"/>
        <pt x="567" y="750" on="1"/>
        <pt x="582" y="750" on="0"/>
        <pt x="626" y="744" on="0"/>
        <pt x="644" y="736" on="1"/>
        <pt x="487" y="0" on="1"/>
      </contour>
      <contour>
        <pt x="292" y="442" on="1"/>
        <pt x="341" y="434" on="0"/>
        <pt x="430" y="406" on="0"/>
        <pt x="460" y="390" on="1"/>
        <pt x="526" y="701" on="1"/>
        <pt x="500" y="700" on="0"/>
        <pt x="442" y="659" on="0"/>
        <pt x="381" y="589" on="0"/>
        <pt x="320" y="496" on="0"/>
      </contour>
      <contour>
        <pt x="635" y="811" on="1"/>
        <pt x="570" y="912" on="1"/>
        <pt x="408" y="811" on="1"/>
        <pt x="374" y="811" on="1"/>
        <pt x="575" y="978" on="1"/>
        <pt x="596" y="978" on="1"/>
        <pt x="657" y="811" on="1"/>
      </contour>
    </TTGlyph>
    <TTGlyph name="Adieresis" xMin="-39" yMin="-114" xMax="667" yMax="945">
      <contour>
        <pt x="378" y="0" on="1"/>
        <pt x="454" y="359" on="1"/>
        <pt x="420" y="378" on="0"/>
        <pt x="324" y="404" on="0"/>
        <pt x="275" y="409" on="1"/>
        <pt x="246" y="351" on="0"/>
        <pt x="197" y="228" on="0"/>
        <pt x="161" y="109" on="0"/>
        <pt x="140" y="-1" on="0"/>
        <pt x="140" y="-46" on="1"/>
        <pt x="140" y="-86" on="0"/>
        <pt x="149" y="-114" on="1"/>
        <pt x="130" y="-114" on="0"/>
        <pt x="90" y="-107" on="0"/>
        <pt x="57" y="-84" on="0"/>
        <pt x="36" y="-43" on="0"/>
        <pt x="36" y="-8" on="1"/>
        <pt x="36" y="27" on="0"/>
        <pt x="59" y="123" on="0"/>
        <pt x="99" y="234" on="0"/>
        <pt x="156" y="354" on="0"/>
        <pt x="191" y="413" on="1"/>
        <pt x="161" y="412" on="0"/>
        <pt x="108" y="402" on="0"/>
        <pt x="68" y="386" on="0"/>
        <pt x="45" y="364" on="0"/>
        <pt x="45" y="351" on="1"/>
        <pt x="59" y="346" on="0"/>
        <pt x="65" y="332" on="0"/>
        <pt x="65" y="326" on="1"/>
        <pt x="65" y="303" on="0"/>
        <pt x="33" y="286" on="0"/>
        <pt x="16" y="286" on="1"/>
        <pt x="-5" y="286" on="0"/>
        <pt x="-39" y="309" on="0"/>
        <pt x="-39" y="338" on="1"/>
        <pt x="-39" y="365" on="0"/>
        <pt x="-6" y="408" on="0"/>
        <pt x="52" y="438" on="0"/>
        <pt x="130" y="454" on="0"/>
        <pt x="174" y="454" on="1"/>
        <pt x="184" y="454" on="0"/>
        <pt x="204" y="453" on="0"/>
        <pt x="215" y="452" on="1"/>
        <pt x="253" y="513" on="0"/>
        <pt x="339" y="621" on="0"/>
        <pt x="429" y="702" on="0"/>
        <pt x="522" y="750" on="0"/>
        <pt x="567" y="750" on="1"/>
        <pt x="582" y="750" on="0"/>
        <pt x="626" y="744" on="0"/>
        <pt x="644" y="736" on="1"/>
        <pt x="487" y="0" on="1"/>
      </contour>
      <contour>
        <pt x="292" y="442" on="1"/>
        <pt x="341" y="434" on="0"/>
        <pt x="430" y="406" on="0"/>
        <pt x="460" y="390" on="1"/>
        <pt x="526" y="701" on="1"/>
        <pt x="500" y="700" on="0"/>
        <pt x="442" y="659" on="0"/>
        <pt x="381" y="589" on="0"/>
        <pt x="320" y="496" on="0"/>
      </contour>
      <contour>
        <pt x="562" y="892" on="1"/>
        <pt x="562" y="914" on="0"/>
        <pt x="592" y="945" on="0"/>
        <pt x="614" y="945" on="1"/>
        <pt x="636" y="945" on="0"/>
        <pt x="667" y="914" on="0"/>
        <pt x="667" y="892" on="1"/>
        <pt x="667" y="870" on="0"/>
        <pt x="636" y="840" on="0"/>
        <pt x="614" y="840" on="1"/>
        <pt x="592" y="840" on="0"/>
        <pt x="562" y="870" on="0"/>
      </contour>
      <contour>
        <pt x="398" y="892" on="1"/>
        <pt x="398" y="914" on="0"/>
        <pt x="428" y="945" on="0"/>
        <pt x="450" y="945" on="1"/>
        <pt x="472" y="945" on="0"/>
        <pt x="503" y="914" on="0"/>
        <pt x="503" y="892" on="1"/>
        <pt x="503" y="870" on="0"/>
        <pt x="472" y="840" on="0"/>
        <pt x="450" y="840" on="1"/>
        <pt x="428" y="840" on="0"/>
        <pt x="398" y="870" on="0"/>
      </contour>
    </TTGlyph>
    <TTGlyph name="Agrave" xMin="-39" yMin="-114" xMax="644" yMax="1000">
      <contour>
        <pt x="378" y="0" on="1"/>
        <pt x="454" y="359" on="1"/>
        <pt x="420" y="378" on="0"/>
        <pt x="324" y="404" on="0"/>
        <pt x="275" y="409" on="1"/>
        <pt x="246" y="351" on="0"/>
        <pt x="197" y="228" on="0"/>
        <pt x="161" y="109" on="0"/>
        <pt x="140" y="-1" on="0"/>
        <pt x="140" y="-46" on="1"/>
        <pt x="140" y="-86" on="0"/>
        <pt x="149" y="-114" on="1"/>
        <pt x="130" y="-114" on="0"/>
        <pt x="90" y="-107" on="0"/>
        <pt x="57" y="-84" on="0"/>
        <pt x="36" y="-43" on="0"/>
        <pt x="36" y="-8" on="1"/>
        <pt x="36" y="27" on="0"/>
        <pt x="59" y="123" on="0"/>
        <pt x="99" y="234" on="0"/>
        <pt x="156" y="354" on="0"/>
        <pt x="191" y="413" on="1"/>
        <pt x="161" y="412" on="0"/>
        <pt x="108" y="402" on="0"/>
        <pt x="68" y="386" on="0"/>
        <pt x="45" y="364" on="0"/>
        <pt x="45" y="351" on="1"/>
        <pt x="59" y="346" on="0"/>
        <pt x="65" y="332" on="0"/>
        <pt x="65" y="326" on="1"/>
        <pt x="65" y="303" on="0"/>
        <pt x="33" y="286" on="0"/>
        <pt x="16" y="286" on="1"/>
        <pt x="-5" y="286" on="0"/>
        <pt x="-39" y="309" on="0"/>
        <pt x="-39" y="338" on="1"/>
        <pt x="-39" y="365" on="0"/>
        <pt x="-6" y="408" on="0"/>
        <pt x="52" y="438" on="0"/>
        <pt x="130" y="454" on="0"/>
        <pt x="174" y="454" on="1"/>
        <pt x="184" y="454" on="0"/>
        <pt x="204" y="453" on="0"/>
        <pt x="215" y="452" on="1"/>
        <pt x="253" y="513" on="0"/>
        <pt x="339" y="621" on="0"/>
        <pt x="429" y="702" on="0"/>
        <pt x="522" y="750" on="0"/>
        <pt x="567" y="750" on="1"/>
        <pt x="582" y="750" on="0"/>
        <pt x="626" y="744" on="0"/>
        <pt x="644" y="736" on="1"/>
        <pt x="487" y="0" on="1"/>
      </contour>
      <contour>
        <pt x="292" y="442" on="1"/>
        <pt x="341" y="434" on="0"/>
        <pt x="430" y="406" on="0"/>
        <pt x="460" y="390" on="1"/>
        <pt x="526" y="701" on="1"/>
        <pt x="500" y="700" on="0"/>
        <pt x="442" y="659" on="0"/>
        <pt x="381" y="589" on="0"/>
        <pt x="320" y="496" on="0"/>
      </contour>
      <contour>
        <pt x="522" y="811" on="1"/>
        <pt x="467" y="811" on="1"/>
        <pt x="406" y="1000" on="1"/>
        <pt x="491" y="1000" on="1"/>
      </contour>
    </TTGlyph>
    <TTGlyph name="Aogonek" xMin="-39" yMin="-193" xMax="644" yMax="750">
      <contour>
        <pt x="432" y="0" on="1"/>
        <pt x="411" y="-11" on="0"/>
        <pt x="376" y="-58" on="0"/>
        <pt x="376" y="-84" on="1"/>
        <pt x="376" y="-105" on="0"/>
        <pt x="402" y="-144" on="0"/>
        <pt x="426" y="-144" on="1"/>
        <pt x="446" y="-144" on="0"/>
        <pt x="480" y="-117" on="0"/>
        <pt x="497" y="-100" on="1"/>
        <pt x="495" y="-131" on="1"/>
        <pt x="486" y="-140" on="0"/>
        <pt x="464" y="-161" on="0"/>
        <pt x="437" y="-180" on="0"/>
        <pt x="405" y="-193" on="0"/>
        <pt x="386" y="-193" on="1"/>
        <pt x="365" y="-193" on="0"/>
        <pt x="336" y="-178" on="0"/>
        <pt x="316" y="-156" on="0"/>
        <pt x="307" y="-128" on="0"/>
        <pt x="307" y="-115" on="1"/>
        <pt x="307" y="-88" on="0"/>
        <pt x="343" y="-29" on="0"/>
        <pt x="378" y="0" on="1"/>
        <pt x="454" y="359" on="1"/>
        <pt x="420" y="378" on="0"/>
        <pt x="324" y="404" on="0"/>
        <pt x="275" y="409" on="1"/>
        <pt x="246" y="351" on="0"/>
        <pt x="197" y="228" on="0"/>
        <pt x="161" y="109" on="0"/>
        <pt x="140" y="-1" on="0"/>
        <pt x="140" y="-46" on="1"/>
        <pt x="140" y="-86" on="0"/>
        <pt x="149" y="-114" on="1"/>
        <pt x="130" y="-114" on="0"/>
        <pt x="90" y="-107" on="0"/>
        <pt x="57" y="-84" on="0"/>
        <pt x="36" y="-43" on="0"/>
        <pt x="36" y="-8" on="1"/>
        <pt x="36" y="27" on="0"/>
        <pt x="59" y="123" on="0"/>
        <pt x="99" y="234" on="0"/>
        <pt x="156" y="354" on="0"/>
        <pt x="191" y="413" on="1"/>
        <pt x="161" y="412" on="0"/>
        <pt x="108" y="402" on="0"/>
        <pt x="68" y="386" on="0"/>
        <pt x="45" y="364" on="0"/>
        <pt x="45" y="351" on="1"/>
        <pt x="59" y="346" on="0"/>
        <pt x="65" y="332" on="0"/>
        <pt x="65" y="326" on="1"/>
        <pt x="65" y="303" on="0"/>
        <pt x="33" y="286" on="0"/>
        <pt x="16" y="286" on="1"/>
        <pt x="-5" y="286" on="0"/>
        <pt x="-39" y="309" on="0"/>
        <pt x="-39" y="338" on="1"/>
        <pt x="-39" y="365" on="0"/>
        <pt x="-6" y="408" on="0"/>
        <pt x="52" y="438" on="0"/>
        <pt x="130" y="454" on="0"/>
        <pt x="174" y="454" on="1"/>
        <pt x="184" y="454" on="0"/>
        <pt x="204" y="453" on="0"/>
        <pt x="215" y="452" on="1"/>
        <pt x="253" y="513" on="0"/>
        <pt x="339" y="621" on="0"/>
        <pt x="429" y="702" on="0"/>
        <pt x="522" y="750" on="0"/>
        <pt x="567" y="750" on="1"/>
        <pt x="582" y="750" on="0"/>
        <pt x="626" y="744" on="0"/>
        <pt x="644" y="736" on="1"/>
        <pt x="487" y="0" on="1"/>
      </contour>
      <contour>
        <pt x="292" y="442" on="1"/>
        <pt x="341" y="434" on="0"/>
        <pt x="430" y="406" on="0"/>
        <pt x="460" y="390" on="1"/>
        <pt x="526" y="701" on="1"/>
        <pt x="500" y="700" on="0"/>
        <pt x="442" y="659" on="0"/>
        <pt x="381" y="589" on="0"/>
        <pt x="320" y="496" on="0"/>
      </contour>
    </TTGlyph>
    <TTGlyph name="Aring" xMin="-39" yMin="-114" xMax="644" yMax="963">
      <contour>
        <pt x="378" y="0" on="1"/>
        <pt x="454" y="359" on="1"/>
        <pt x="420" y="378" on="0"/>
        <pt x="324" y="404" on="0"/>
        <pt x="275" y="409" on="1"/>
        <pt x="246" y="351" on="0"/>
        <pt x="197" y="228" on="0"/>
        <pt x="161" y="109" on="0"/>
        <pt x="140" y="-1" on="0"/>
        <pt x="140" y="-46" on="1"/>
        <pt x="140" y="-86" on="0"/>
        <pt x="149" y="-114" on="1"/>
        <pt x="130" y="-114" on="0"/>
        <pt x="90" y="-107" on="0"/>
        <pt x="57" y="-84" on="0"/>
        <pt x="36" y="-43" on="0"/>
        <pt x="36" y="-8" on="1"/>
        <pt x="36" y="27" on="0"/>
        <pt x="59" y="123" on="0"/>
        <pt x="99" y="234" on="0"/>
        <pt x="156" y="354" on="0"/>
        <pt x="191" y="413" on="1"/>
        <pt x="161" y="412" on="0"/>
        <pt x="108" y="402" on="0"/>
        <pt x="68" y="386" on="0"/>
        <pt x="45" y="364" on="0"/>
        <pt x="45" y="351" on="1"/>
        <pt x="59" y="346" on="0"/>
        <pt x="65" y="332" on="0"/>
        <pt x="65" y="326" on="1"/>
        <pt x="65" y="303" on="0"/>
        <pt x="33" y="286" on="0"/>
        <pt x="16" y="286" on="1"/>
        <pt x="-5" y="286" on="0"/>
        <pt x="-39" y="309" on="0"/>
        <pt x="-39" y="338" on="1"/>
        <pt x="-39" y="365" on="0"/>
        <pt x="-6" y="408" on="0"/>
        <pt x="52" y="438" on="0"/>
        <pt x="130" y="454" on="0"/>
        <pt x="174" y="454" on="1"/>
        <pt x="184" y="454" on="0"/>
        <pt x="204" y="453" on="0"/>
        <pt x="215" y="452" on="1"/>
        <pt x="253" y="513" on="0"/>
        <pt x="339" y="621" on="0"/>
        <pt x="429" y="702" on="0"/>
        <pt x="522" y="750" on="0"/>
        <pt x="567" y="750" on="1"/>
        <pt x="582" y="750" on="0"/>
        <pt x="626" y="744" on="0"/>
        <pt x="644" y="736" on="1"/>
        <pt x="487" y="0" on="1"/>
      </contour>
      <contour>
        <pt x="292" y="442" on="1"/>
        <pt x="341" y="434" on="0"/>
        <pt x="430" y="406" on="0"/>
        <pt x="460" y="390" on="1"/>
        <pt x="526" y="701" on="1"/>
        <pt x="500" y="700" on="0"/>
        <pt x="442" y="659" on="0"/>
        <pt x="381" y="589" on="0"/>
        <pt x="320" y="496" on="0"/>
      </contour>
      <contour>
        <pt x="541" y="963" on="1"/>
        <pt x="578" y="963" on="0"/>
        <pt x="613" y="918" on="0"/>
        <pt x="613" y="886" on="1"/>
        <pt x="613" y="853" on="0"/>
        <pt x="573" y="802" on="0"/>
        <pt x="526" y="802" on="1"/>
        <pt x="494" y="802" on="0"/>
        <pt x="456" y="843" on="0"/>
        <pt x="456" y="872" on="1"/>
        <pt x="456" y="885" on="0"/>
        <pt x="466" y="917" on="0"/>
        <pt x="486" y="945" on="0"/>
        <pt x="518" y="963" on="0"/>
      </contour>
      <contour>
        <pt x="576" y="883" on="1"/>
        <pt x="576" y="890" on="0"/>
        <pt x="575" y="907" on="0"/>
        <pt x="568" y="921" on="0"/>
        <pt x="555" y="930" on="0"/>
        <pt x="543" y="930" on="1"/>
        <pt x="517" y="930" on="0"/>
        <pt x="496" y="893" on="0"/>
        <pt x="496" y="874" on="1"/>
        <pt x="496" y="857" on="0"/>
        <pt x="512" y="837" on="0"/>
        <pt x="530" y="837" on="1"/>
        <pt x="553" y="837" on="0"/>
        <pt x="576" y="862" on="0"/>
      </contour>
    </TTGlyph>
    <TTGlyph name="Atilde" xMin="-39" yMin="-114" xMax="728" yMax="924">
      <contour>
        <pt x="378" y="0" on="1"/>
        <pt x="454" y="359" on="1"/>
        <pt x="420" y="378" on="0"/>
        <pt x="324" y="404" on="0"/>
        <pt x="275" y="409" on="1"/>
        <pt x="246" y="351" on="0"/>
        <pt x="197" y="228" on="0"/>
        <pt x="161" y="109" on="0"/>
        <pt x="140" y="-1" on="0"/>
        <pt x="140" y="-46" on="1"/>
        <pt x="140" y="-86" on="0"/>
        <pt x="149" y="-114" on="1"/>
        <pt x="130" y="-114" on="0"/>
        <pt x="90" y="-107" on="0"/>
        <pt x="57" y="-84" on="0"/>
        <pt x="36" y="-43" on="0"/>
        <pt x="36" y="-8" on="1"/>
        <pt x="36" y="27" on="0"/>
        <pt x="59" y="123" on="0"/>
        <pt x="99" y="234" on="0"/>
        <pt x="156" y="354" on="0"/>
        <pt x="191" y="413" on="1"/>
        <pt x="161" y="412" on="0"/>
        <pt x="108" y="402" on="0"/>
        <pt x="68" y="386" on="0"/>
        <pt x="45" y="364" on="0"/>
        <pt x="45" y="351" on="1"/>
        <pt x="59" y="346" on="0"/>
        <pt x="65" y="332" on="0"/>
        <pt x="65" y="326" on="1"/>
        <pt x="65" y="303" on="0"/>
        <pt x="33" y="286" on="0"/>
        <pt x="16" y="286" on="1"/>
        <pt x="-5" y="286" on="0"/>
        <pt x="-39" y="309" on="0"/>
        <pt x="-39" y="338" on="1"/>
        <pt x="-39" y="365" on="0"/>
        <pt x="-6" y="408" on="0"/>
        <pt x="52" y="438" on="0"/>
        <pt x="130" y="454" on="0"/>
        <pt x="174" y="454" on="1"/>
        <pt x="184" y="454" on="0"/>
        <pt x="204" y="453" on="0"/>
        <pt x="215" y="452" on="1"/>
        <pt x="253" y="513" on="0"/>
        <pt x="339" y="621" on="0"/>
        <pt x="429" y="702" on="0"/>
        <pt x="522" y="750" on="0"/>
        <pt x="567" y="750" on="1"/>
        <pt x="582" y="750" on="0"/>
        <pt x="626" y="744" on="0"/>
        <pt x="644" y="736" on="1"/>
        <pt x="487" y="0" on="1"/>
      </contour>
      <contour>
        <pt x="292" y="442" on="1"/>
        <pt x="341" y="434" on="0"/>
        <pt x="430" y="406" on="0"/>
        <pt x="460" y="390" on="1"/>
        <pt x="526" y="701" on="1"/>
        <pt x="500" y="700" on="0"/>
        <pt x="442" y="659" on="0"/>
        <pt x="381" y="589" on="0"/>
        <pt x="320" y="496" on="0"/>
      </contour>
      <contour>
        <pt x="728" y="915" on="1"/>
        <pt x="724" y="899" on="0"/>
        <pt x="697" y="867" on="0"/>
        <pt x="657" y="841" on="0"/>
        <pt x="608" y="825" on="0"/>
        <pt x="583" y="825" on="1"/>
        <pt x="561" y="825" on="0"/>
        <pt x="522" y="835" on="0"/>
        <pt x="486" y="848" on="0"/>
        <pt x="450" y="858" on="0"/>
        <pt x="432" y="858" on="1"/>
        <pt x="397" y="858" on="0"/>
        <pt x="372" y="834" on="1"/>
        <pt x="367" y="836" on="1"/>
        <pt x="389" y="880" on="0"/>
        <pt x="466" y="924" on="0"/>
        <pt x="517" y="924" on="1"/>
        <pt x="542" y="924" on="0"/>
        <pt x="580" y="915" on="0"/>
        <pt x="614" y="904" on="0"/>
        <pt x="646" y="895" on="0"/>
        <pt x="666" y="895" on="1"/>
        <pt x="683" y="895" on="0"/>
        <pt x="713" y="905" on="0"/>
        <pt x="723" y="915" on="1"/>
      </contour>
    </TTGlyph>
    <TTGlyph name="B" xMin="56" yMin="-17" xMax="650" yMax="750">
      <contour>
        <pt x="139" y="461" on="1"/>
        <pt x="139" y="430" on="0"/>
        <pt x="151" y="400" on="0"/>
        <pt x="153" y="393" on="1"/>
        <pt x="108" y="393" on="0"/>
        <pt x="56" y="434" on="0"/>
        <pt x="56" y="485" on="1"/>
        <pt x="56" y="537" on="0"/>
        <pt x="116" y="632" on="0"/>
        <pt x="217" y="706" on="0"/>
        <pt x="348" y="750" on="0"/>
        <pt x="419" y="750" on="1"/>
        <pt x="474" y="750" on="0"/>
        <pt x="554" y="723" on="0"/>
        <pt x="607" y="679" on="0"/>
        <pt x="632" y="622" on="0"/>
        <pt x="632" y="591" on="1"/>
        <pt x="632" y="546" on="0"/>
        <pt x="580" y="459" on="0"/>
        <pt x="530" y="431" on="1"/>
        <pt x="588" y="418" on="0"/>
        <pt x="650" y="328" on="0"/>
        <pt x="650" y="271" on="1"/>
        <pt x="650" y="235" on="0"/>
        <pt x="629" y="136" on="0"/>
        <pt x="578" y="46" on="0"/>
        <pt x="494" y="-17" on="0"/>
        <pt x="431" y="-17" on="1"/>
        <pt x="386" y="-17" on="0"/>
        <pt x="330" y="18" on="0"/>
        <pt x="330" y="52" on="1"/>
        <pt x="330" y="63" on="0"/>
        <pt x="337" y="91" on="0"/>
        <pt x="343" y="103" on="1"/>
        <pt x="355" y="80" on="0"/>
        <pt x="393" y="64" on="0"/>
        <pt x="413" y="64" on="1"/>
        <pt x="446" y="64" on="0"/>
        <pt x="490" y="102" on="0"/>
        <pt x="518" y="161" on="0"/>
        <pt x="530" y="229" on="0"/>
        <pt x="530" y="259" on="1"/>
        <pt x="530" y="287" on="0"/>
        <pt x="521" y="337" on="0"/>
        <pt x="496" y="373" on="0"/>
        <pt x="451" y="394" on="0"/>
        <pt x="416" y="394" on="1"/>
        <pt x="411" y="394" on="0"/>
        <pt x="377" y="392" on="0"/>
        <pt x="360" y="390" on="1"/>
        <pt x="277" y="0" on="1"/>
        <pt x="167" y="0" on="1"/>
        <pt x="305" y="641" on="1"/>
        <pt x="417" y="656" on="1"/>
        <pt x="369" y="430" on="1"/>
        <pt x="387" y="430" on="1"/>
        <pt x="421" y="430" on="0"/>
        <pt x="481" y="461" on="0"/>
        <pt x="526" y="509" on="0"/>
        <pt x="551" y="568" on="0"/>
        <pt x="551" y="596" on="1"/>
        <pt x="551" y="619" on="0"/>
        <pt x="532" y="662" on="0"/>
        <pt x="494" y="695" on="0"/>
        <pt x="437" y="714" on="0"/>
        <pt x="399" y="714" on="1"/>
        <pt x="353" y="714" on="0"/>
        <pt x="261" y="683" on="0"/>
        <pt x="186" y="621" on="0"/>
        <pt x="139" y="525" on="0"/>
      </contour>
    </TTGlyph>
    <TTGlyph name="B.salt" xMin="56" yMin="-27" xMax="650" yMax="750">
      <contour>
        <pt x="139" y="464" on="1"/>
        <pt x="139" y="429" on="0"/>
        <pt x="151" y="400" on="0"/>
        <pt x="153" y="393" on="1"/>
        <pt x="108" y="393" on="0"/>
        <pt x="56" y="434" on="0"/>
        <pt x="56" y="484" on="1"/>
        <pt x="56" y="536" on="0"/>
        <pt x="116" y="633" on="0"/>
        <pt x="217" y="706" on="0"/>
        <pt x="348" y="750" on="0"/>
        <pt x="419" y="750" on="1"/>
        <pt x="474" y="750" on="0"/>
        <pt x="554" y="723" on="0"/>
        <pt x="607" y="679" on="0"/>
        <pt x="632" y="622" on="0"/>
        <pt x="632" y="591" on="1"/>
        <pt x="632" y="546" on="0"/>
        <pt x="580" y="459" on="0"/>
        <pt x="530" y="431" on="1"/>
        <pt x="588" y="418" on="0"/>
        <pt x="650" y="328" on="0"/>
        <pt x="650" y="269" on="1"/>
        <pt x="650" y="245" on="0"/>
        <pt x="639" y="182" on="0"/>
        <pt x="616" y="117" on="0"/>
        <pt x="580" y="53" on="0"/>
        <pt x="529" y="4" on="0"/>
        <pt x="464" y="-27" on="0"/>
        <pt x="424" y="-27" on="1"/>
        <pt x="377" y="-27" on="0"/>
        <pt x="305" y="11" on="0"/>
        <pt x="285" y="38" on="1"/>
        <pt x="277" y="0" on="1"/>
        <pt x="167" y="0" on="1"/>
        <pt x="305" y="641" on="1"/>
        <pt x="417" y="656" on="1"/>
        <pt x="369" y="430" on="1"/>
        <pt x="387" y="430" on="1"/>
        <pt x="421" y="430" on="0"/>
        <pt x="481" y="461" on="0"/>
        <pt x="526" y="509" on="0"/>
        <pt x="551" y="568" on="0"/>
        <pt x="551" y="596" on="1"/>
        <pt x="551" y="619" on="0"/>
        <pt x="532" y="662" on="0"/>
        <pt x="495" y="695" on="0"/>
        <pt x="438" y="714" on="0"/>
        <pt x="400" y="714" on="1"/>
        <pt x="354" y="714" on="0"/>
        <pt x="261" y="683" on="0"/>
        <pt x="186" y="621" on="0"/>
        <pt x="139" y="527" on="0"/>
      </contour>
      <contour>
        <pt x="418" y="394" on="1"/>
        <pt x="406" y="394" on="0"/>
        <pt x="374" y="392" on="0"/>
        <pt x="360" y="390" on="1"/>
        <pt x="297" y="93" on="1"/>
        <pt x="313" y="77" on="0"/>
        <pt x="362" y="49" on="0"/>
        <pt x="394" y="49" on="1"/>
        <pt x="431" y="49" on="0"/>
        <pt x="482" y="91" on="0"/>
        <pt x="515" y="156" on="0"/>
        <pt x="530" y="232" on="0"/>
        <pt x="530" y="266" on="1"/>
        <pt x="530" y="292" on="0"/>
        <pt x="520" y="338" on="0"/>
        <pt x="495" y="373" on="0"/>
        <pt x="452" y="394" on="0"/>
      </contour>
    </TTGlyph>
    <TTGlyph name="C" xMin="45" yMin="-16" xMax="561" yMax="750">
      <contour>
        <pt x="549" y="170" on="1"/>
        <pt x="529" y="125" on="0"/>
        <pt x="465" y="56" on="0"/>
        <pt x="387" y="8" on="0"/>
        <pt x="297" y="-16" on="0"/>
        <pt x="251" y="-16" on="1"/>
        <pt x="153" y="-16" on="0"/>
        <pt x="45" y="101" on="0"/>
        <pt x="45" y="229" on="1"/>
        <pt x="45" y="274" on="0"/>
        <pt x="60" y="387" on="0"/>
        <pt x="94" y="502" on="0"/>
        <pt x="148" y="612" on="0"/>
        <pt x="226" y="698" on="0"/>
        <pt x="331" y="750" on="0"/>
        <pt x="398" y="750" on="1"/>
        <pt x="431" y="750" on="0"/>
        <pt x="491" y="735" on="0"/>
        <pt x="535" y="703" on="0"/>
        <pt x="561" y="651" on="0"/>
        <pt x="561" y="614" on="1"/>
        <pt x="561" y="576" on="0"/>
        <pt x="529" y="524" on="0"/>
        <pt x="491" y="524" on="1"/>
        <pt x="479" y="524" on="0"/>
        <pt x="456" y="533" on="0"/>
        <pt x="449" y="542" on="1"/>
        <pt x="463" y="550" on="0"/>
        <pt x="492" y="610" on="0"/>
        <pt x="492" y="647" on="1"/>
        <pt x="492" y="680" on="0"/>
        <pt x="453" y="714" on="0"/>
        <pt x="418" y="714" on="1"/>
        <pt x="378" y="714" on="0"/>
        <pt x="310" y="672" on="0"/>
        <pt x="254" y="600" on="0"/>
        <pt x="211" y="506" on="0"/>
        <pt x="181" y="400" on="0"/>
        <pt x="166" y="291" on="0"/>
        <pt x="166" y="241" on="1"/>
        <pt x="166" y="206" on="0"/>
        <pt x="176" y="141" on="0"/>
        <pt x="209" y="90" on="0"/>
        <pt x="271" y="60" on="0"/>
        <pt x="322" y="60" on="1"/>
        <pt x="391" y="60" on="0"/>
        <pt x="487" y="119" on="0"/>
        <pt x="526" y="180" on="1"/>
      </contour>
    </TTGlyph>
    <TTGlyph name="Cacute" xMin="45" yMin="-16" xMax="590" yMax="1000">
      <contour>
        <pt x="549" y="170" on="1"/>
        <pt x="529" y="125" on="0"/>
        <pt x="465" y="56" on="0"/>
        <pt x="387" y="8" on="0"/>
        <pt x="297" y="-16" on="0"/>
        <pt x="251" y="-16" on="1"/>
        <pt x="153" y="-16" on="0"/>
        <pt x="45" y="101" on="0"/>
        <pt x="45" y="229" on="1"/>
        <pt x="45" y="274" on="0"/>
        <pt x="60" y="387" on="0"/>
        <pt x="94" y="502" on="0"/>
        <pt x="148" y="612" on="0"/>
        <pt x="226" y="698" on="0"/>
        <pt x="331" y="750" on="0"/>
        <pt x="398" y="750" on="1"/>
        <pt x="431" y="750" on="0"/>
        <pt x="491" y="735" on="0"/>
        <pt x="535" y="703" on="0"/>
        <pt x="561" y="651" on="0"/>
        <pt x="561" y="614" on="1"/>
        <pt x="561" y="576" on="0"/>
        <pt x="529" y="524" on="0"/>
        <pt x="491" y="524" on="1"/>
        <pt x="479" y="524" on="0"/>
        <pt x="456" y="533" on="0"/>
        <pt x="449" y="542" on="1"/>
        <pt x="463" y="550" on="0"/>
        <pt x="492" y="610" on="0"/>
        <pt x="492" y="647" on="1"/>
        <pt x="492" y="680" on="0"/>
        <pt x="453" y="714" on="0"/>
        <pt x="418" y="714" on="1"/>
        <pt x="378" y="714" on="0"/>
        <pt x="310" y="672" on="0"/>
        <pt x="254" y="600" on="0"/>
        <pt x="211" y="506" on="0"/>
        <pt x="181" y="400" on="0"/>
        <pt x="166" y="291" on="0"/>
        <pt x="166" y="241" on="1"/>
        <pt x="166" y="206" on="0"/>
        <pt x="176" y="141" on="0"/>
        <pt x="209" y="90" on="0"/>
        <pt x="271" y="60" on="0"/>
        <pt x="322" y="60" on="1"/>
        <pt x="391" y="60" on="0"/>
        <pt x="487" y="119" on="0"/>
        <pt x="526" y="180" on="1"/>
      </contour>
      <contour>
        <pt x="505" y="1000" on="1"/>
        <pt x="590" y="1000" on="1"/>
        <pt x="469" y="811" on="1"/>
        <pt x="414" y="811" on="1"/>
      </contour>
    </TTGlyph>
    <TTGlyph name="Ccaron" xMin="45" yMin="-16" xMax="644" yMax="992">
      <contour>
        <pt x="549" y="170" on="1"/>
        <pt x="529" y="125" on="0"/>
        <pt x="465" y="56" on="0"/>
        <pt x="387" y="8" on="0"/>
        <pt x="297" y="-16" on="0"/>
        <pt x="251" y="-16" on="1"/>
        <pt x="153" y="-16" on="0"/>
        <pt x="45" y="101" on="0"/>
        <pt x="45" y="229" on="1"/>
        <pt x="45" y="274" on="0"/>
        <pt x="60" y="387" on="0"/>
        <pt x="94" y="502" on="0"/>
        <pt x="148" y="612" on="0"/>
        <pt x="226" y="698" on="0"/>
        <pt x="331" y="750" on="0"/>
        <pt x="398" y="750" on="1"/>
        <pt x="431" y="750" on="0"/>
        <pt x="491" y="735" on="0"/>
        <pt x="535" y="703" on="0"/>
        <pt x="561" y="651" on="0"/>
        <pt x="561" y="614" on="1"/>
        <pt x="561" y="576" on="0"/>
        <pt x="529" y="524" on="0"/>
        <pt x="491" y="524" on="1"/>
        <pt x="479" y="524" on="0"/>
        <pt x="456" y="533" on="0"/>
        <pt x="449" y="542" on="1"/>
        <pt x="463" y="550" on="0"/>
        <pt x="492" y="610" on="0"/>
        <pt x="492" y="647" on="1"/>
        <pt x="492" y="680" on="0"/>
        <pt x="453" y="714" on="0"/>
        <pt x="418" y="714" on="1"/>
        <pt x="378" y="714" on="0"/>
        <pt x="310" y="672" on="0"/>
        <pt x="254" y="600" on="0"/>
        <pt x="211" y="506" on="0"/>
        <pt x="181" y="400" on="0"/>
        <pt x="166" y="291" on="0"/>
        <pt x="166" y="241" on="1"/>
        <pt x="166" y="206" on="0"/>
        <pt x="176" y="141" on="0"/>
        <pt x="209" y="90" on="0"/>
        <pt x="271" y="60" on="0"/>
        <pt x="322" y="60" on="1"/>
        <pt x="391" y="60" on="0"/>
        <pt x="487" y="119" on="0"/>
        <pt x="526" y="180" on="1"/>
      </contour>
      <contour>
        <pt x="383" y="992" on="1"/>
        <pt x="448" y="891" on="1"/>
        <pt x="610" y="992" on="1"/>
        <pt x="644" y="992" on="1"/>
        <pt x="443" y="825" on="1"/>
        <pt x="422" y="825" on="1"/>
        <pt x="361" y="992" on="1"/>
      </contour>
    </TTGlyph>
    <TTGlyph name="Ccedilla" xMin="45" yMin="-218" xMax="561" yMax="750">
      <contour>
        <pt x="390" y="-108" on="1"/>
        <pt x="390" y="-135" on="0"/>
        <pt x="369" y="-176" on="0"/>
        <pt x="335" y="-204" on="0"/>
        <pt x="292" y="-218" on="0"/>
        <pt x="270" y="-218" on="1"/>
        <pt x="232" y="-218" on="0"/>
        <pt x="185" y="-201" on="0"/>
        <pt x="163" y="-190" on="1"/>
        <pt x="170" y="-178" on="0"/>
        <pt x="189" y="-158" on="0"/>
        <pt x="203" y="-158" on="1"/>
        <pt x="213" y="-158" on="0"/>
        <pt x="230" y="-167" on="0"/>
        <pt x="248" y="-179" on="0"/>
        <pt x="266" y="-188" on="0"/>
        <pt x="277" y="-188" on="1"/>
        <pt x="299" y="-188" on="0"/>
        <pt x="327" y="-159" on="0"/>
        <pt x="327" y="-143" on="1"/>
        <pt x="327" y="-126" on="0"/>
        <pt x="304" y="-97" on="0"/>
        <pt x="278" y="-97" on="1"/>
        <pt x="255" y="-97" on="0"/>
        <pt x="226" y="-112" on="0"/>
        <pt x="216" y="-119" on="1"/>
        <pt x="253" y="-16" on="1"/>
        <pt x="153" y="-16" on="0"/>
        <pt x="45" y="100" on="0"/>
        <pt x="45" y="229" on="1"/>
        <pt x="45" y="274" on="0"/>
        <pt x="60" y="387" on="0"/>
        <pt x="94" y="502" on="0"/>
        <pt x="148" y="612" on="0"/>
        <pt x="226" y="698" on="0"/>
        <pt x="331" y="750" on="0"/>
        <pt x="398" y="750" on="1"/>
        <pt x="431" y="750" on="0"/>
        <pt x="491" y="735" on="0"/>
        <pt x="535" y="703" on="0"/>
        <pt x="561" y="651" on="0"/>
        <pt x="561" y="614" on="1"/>
        <pt x="561" y="576" on="0"/>
        <pt x="529" y="524" on="0"/>
        <pt x="491" y="524" on="1"/>
        <pt x="479" y="524" on="0"/>
        <pt x="456" y="533" on="0"/>
        <pt x="449" y="542" on="1"/>
        <pt x="463" y="550" on="0"/>
        <pt x="492" y="610" on="0"/>
        <pt x="492" y="647" on="1"/>
        <pt x="492" y="680" on="0"/>
        <pt x="453" y="714" on="0"/>
        <pt x="418" y="714" on="1"/>
        <pt x="378" y="714" on="0"/>
        <pt x="310" y="672" on="0"/>
        <pt x="254" y="600" on="0"/>
        <pt x="211" y="506" on="0"/>
        <pt x="181" y="400" on="0"/>
        <pt x="166" y="291" on="0"/>
        <pt x="166" y="241" on="1"/>
        <pt x="166" y="206" on="0"/>
        <pt x="176" y="141" on="0"/>
        <pt x="209" y="90" on="0"/>
        <pt x="271" y="60" on="0"/>
        <pt x="322" y="60" on="1"/>
        <pt x="391" y="60" on="0"/>
        <pt x="487" y="119" on="0"/>
        <pt x="526" y="180" on="1"/>
        <pt x="549" y="170" on="1"/>
        <pt x="531" y="131" on="0"/>
        <pt x="478" y="68" on="0"/>
        <pt x="412" y="21" on="0"/>
        <pt x="336" y="-8" on="0"/>
        <pt x="296" y="-13" on="1"/>
        <pt x="275" y="-66" on="1"/>
        <pt x="307" y="-58" on="0"/>
        <pt x="328" y="-58" on="1"/>
        <pt x="360" y="-58" on="0"/>
        <pt x="390" y="-85" on="0"/>
      </contour>
    </TTGlyph>
    <TTGlyph name="Ccircumflex" xMin="45" yMin="-16" xMax="561" yMax="978">
      <contour>
        <pt x="549" y="170" on="1"/>
        <pt x="529" y="125" on="0"/>
        <pt x="465" y="56" on="0"/>
        <pt x="387" y="8" on="0"/>
        <pt x="297" y="-16" on="0"/>
        <pt x="251" y="-16" on="1"/>
        <pt x="153" y="-16" on="0"/>
        <pt x="45" y="101" on="0"/>
        <pt x="45" y="229" on="1"/>
        <pt x="45" y="274" on="0"/>
        <pt x="60" y="387" on="0"/>
        <pt x="94" y="502" on="0"/>
        <pt x="148" y="612" on="0"/>
        <pt x="226" y="698" on="0"/>
        <pt x="331" y="750" on="0"/>
        <pt x="398" y="750" on="1"/>
        <pt x="431" y="750" on="0"/>
        <pt x="491" y="735" on="0"/>
        <pt x="535" y="703" on="0"/>
        <pt x="561" y="651" on="0"/>
        <pt x="561" y="614" on="1"/>
        <pt x="561" y="576" on="0"/>
        <pt x="529" y="524" on="0"/>
        <pt x="491" y="524" on="1"/>
        <pt x="479" y="524" on="0"/>
        <pt x="456" y="533" on="0"/>
        <pt x="449" y="542" on="1"/>
        <pt x="463" y="550" on="0"/>
        <pt x="492" y="610" on="0"/>
        <pt x="492" y="647" on="1"/>
        <pt x="492" y="680" on="0"/>
        <pt x="453" y="714" on="0"/>
        <pt x="418" y="714" on="1"/>
        <pt x="378" y="714" on="0"/>
        <pt x="310" y="672" on="0"/>
        <pt x="254" y="600" on="0"/>
        <pt x="211" y="506" on="0"/>
        <pt x="181" y="400" on="0"/>
        <pt x="166" y="291" on="0"/>
        <pt x="166" y="241" on="1"/>
        <pt x="166" y="206" on="0"/>
        <pt x="176" y="141" on="0"/>
        <pt x="209" y="90" on="0"/>
        <pt x="271" y="60" on="0"/>
        <pt x="322" y="60" on="1"/>
        <pt x="391" y="60" on="0"/>
        <pt x="487" y="119" on="0"/>
        <pt x="526" y="180" on="1"/>
      </contour>
      <contour>
        <pt x="534" y="811" on="1"/>
        <pt x="469" y="912" on="1"/>
        <pt x="307" y="811" on="1"/>
        <pt x="273" y="811" on="1"/>
        <pt x="474" y="978" on="1"/>
        <pt x="495" y="978" on="1"/>
        <pt x="556" y="811" on="1"/>
      </contour>
    </TTGlyph>
    <TTGlyph name="D" xMin="56" yMin="-13" xMax="695" yMax="750">
      <contour>
        <pt x="421" y="656" on="1"/>
        <pt x="297" y="78" on="1"/>
        <pt x="329" y="52" on="0"/>
        <pt x="362" y="52" on="1"/>
        <pt x="399" y="52" on="0"/>
        <pt x="460" y="93" on="0"/>
        <pt x="509" y="163" on="0"/>
        <pt x="544" y="254" on="0"/>
        <pt x="568" y="354" on="0"/>
        <pt x="580" y="456" on="0"/>
        <pt x="580" y="502" on="1"/>
        <pt x="580" y="561" on="0"/>
        <pt x="558" y="642" on="0"/>
        <pt x="514" y="692" on="0"/>
        <pt x="447" y="714" on="0"/>
        <pt x="403" y="714" on="1"/>
        <pt x="352" y="714" on="0"/>
        <pt x="253" y="680" on="0"/>
        <pt x="176" y="616" on="0"/>
        <pt x="129" y="523" on="0"/>
        <pt x="129" y="464" on="1"/>
        <pt x="129" y="433" on="0"/>
        <pt x="155" y="400" on="0"/>
        <pt x="163" y="393" on="1"/>
        <pt x="113" y="393" on="0"/>
        <pt x="56" y="435" on="0"/>
        <pt x="56" y="486" on="1"/>
        <pt x="56" y="537" on="0"/>
        <pt x="116" y="633" on="0"/>
        <pt x="217" y="706" on="0"/>
        <pt x="350" y="750" on="0"/>
        <pt x="424" y="750" on="1"/>
        <pt x="498" y="750" on="0"/>
        <pt x="601" y="705" on="0"/>
        <pt x="666" y="625" on="0"/>
        <pt x="695" y="518" on="0"/>
        <pt x="695" y="456" on="1"/>
        <pt x="695" y="401" on="0"/>
        <pt x="673" y="289" on="0"/>
        <pt x="633" y="185" on="0"/>
        <pt x="580" y="93" on="0"/>
        <pt x="518" y="26" on="0"/>
        <pt x="450" y="-13" on="0"/>
        <pt x="416" y="-13" on="1"/>
        <pt x="386" y="-13" on="0"/>
        <pt x="324" y="15" on="0"/>
        <pt x="290" y="45" on="1"/>
        <pt x="281" y="0" on="1"/>
        <pt x="171" y="0" on="1"/>
        <pt x="309" y="641" on="1"/>
      </contour>
    </TTGlyph>
    <TTGlyph name="E" xMin="12" yMin="-18" xMax="498" yMax="752">
      <contour>
        <pt x="489" y="170" on="1"/>
        <pt x="469" y="126" on="0"/>
        <pt x="407" y="56" on="0"/>
        <pt x="329" y="8" on="0"/>
        <pt x="241" y="-18" on="0"/>
        <pt x="196" y="-18" on="1"/>
        <pt x="148" y="-18" on="0"/>
        <pt x="78" y="11" on="0"/>
        <pt x="33" y="59" on="0"/>
        <pt x="12" y="123" on="0"/>
        <pt x="12" y="158" on="1"/>
        <pt x="12" y="197" on="0"/>
        <pt x="37" y="275" on="0"/>
        <pt x="85" y="344" on="0"/>
        <pt x="154" y="399" on="0"/>
        <pt x="197" y="417" on="1"/>
        <pt x="165" y="440" on="0"/>
        <pt x="136" y="503" on="0"/>
        <pt x="136" y="537" on="1"/>
        <pt x="136" y="576" on="0"/>
        <pt x="168" y="652" on="0"/>
        <pt x="227" y="714" on="0"/>
        <pt x="307" y="752" on="0"/>
        <pt x="355" y="752" on="1"/>
        <pt x="385" y="752" on="0"/>
        <pt x="437" y="736" on="0"/>
        <pt x="476" y="704" on="0"/>
        <pt x="498" y="658" on="0"/>
        <pt x="498" y="627" on="1"/>
        <pt x="498" y="582" on="0"/>
        <pt x="454" y="523" on="0"/>
        <pt x="424" y="523" on="1"/>
        <pt x="397" y="523" on="0"/>
        <pt x="377" y="550" on="1"/>
        <pt x="396" y="557" on="0"/>
        <pt x="435" y="603" on="0"/>
        <pt x="435" y="642" on="1"/>
        <pt x="435" y="664" on="0"/>
        <pt x="422" y="692" on="0"/>
        <pt x="403" y="708" on="0"/>
        <pt x="379" y="714" on="0"/>
        <pt x="368" y="714" on="1"/>
        <pt x="345" y="714" on="0"/>
        <pt x="297" y="692" on="0"/>
        <pt x="256" y="649" on="0"/>
        <pt x="230" y="584" on="0"/>
        <pt x="230" y="542" on="1"/>
        <pt x="230" y="522" on="0"/>
        <pt x="237" y="482" on="0"/>
        <pt x="255" y="448" on="0"/>
        <pt x="286" y="423" on="0"/>
        <pt x="310" y="418" on="1"/>
        <pt x="266" y="409" on="0"/>
        <pt x="198" y="363" on="0"/>
        <pt x="152" y="300" on="0"/>
        <pt x="129" y="225" on="0"/>
        <pt x="129" y="186" on="1"/>
        <pt x="129" y="127" on="0"/>
        <pt x="190" y="61" on="0"/>
        <pt x="255" y="61" on="1"/>
        <pt x="290" y="61" on="0"/>
        <pt x="355" y="80" on="0"/>
        <pt x="409" y="113" on="0"/>
        <pt x="452" y="156" on="0"/>
        <pt x="466" y="180" on="1"/>
      </contour>
    </TTGlyph>
    <TTGlyph name="E.salt" xMin="62" yMin="0" xMax="659" yMax="750">
      <contour>
        <pt x="548" y="646" on="1"/>
        <pt x="516" y="646" on="0"/>
        <pt x="451" y="657" on="0"/>
        <pt x="419" y="664" on="1"/>
        <pt x="365" y="413" on="1"/>
        <pt x="526" y="413" on="1"/>
        <pt x="512" y="354" on="1"/>
        <pt x="352" y="354" on="1"/>
        <pt x="292" y="70" on="1"/>
        <pt x="524" y="70" on="1"/>
        <pt x="509" y="0" on="1"/>
        <pt x="167" y="0" on="1"/>
        <pt x="314" y="682" on="1"/>
        <pt x="309" y="683" on="0"/>
        <pt x="299" y="683" on="0"/>
        <pt x="294" y="683" on="1"/>
        <pt x="263" y="683" on="0"/>
        <pt x="205" y="664" on="0"/>
        <pt x="161" y="615" on="0"/>
        <pt x="135" y="533" on="0"/>
        <pt x="135" y="470" on="1"/>
        <pt x="135" y="438" on="0"/>
        <pt x="146" y="401" on="0"/>
        <pt x="154" y="393" on="1"/>
        <pt x="109" y="393" on="0"/>
        <pt x="62" y="437" on="0"/>
        <pt x="62" y="494" on="1"/>
        <pt x="62" y="542" on="0"/>
        <pt x="101" y="634" on="0"/>
        <pt x="182" y="706" on="0"/>
        <pt x="305" y="750" on="0"/>
        <pt x="389" y="750" on="1"/>
        <pt x="415" y="750" on="0"/>
        <pt x="458" y="746" on="0"/>
        <pt x="500" y="742" on="0"/>
        <pt x="543" y="738" on="0"/>
        <pt x="568" y="738" on="1"/>
        <pt x="593" y="738" on="0"/>
        <pt x="638" y="743" on="0"/>
        <pt x="659" y="750" on="1"/>
        <pt x="650" y="715" on="0"/>
        <pt x="626" y="674" on="0"/>
        <pt x="598" y="653" on="0"/>
        <pt x="565" y="646" on="0"/>
      </contour>
    </TTGlyph>
    <TTGlyph name="E_x" xMin="13" yMin="-18" xMax="813" yMax="752">
      <contour>
        <pt x="575" y="462" on="1"/>
        <pt x="610" y="272" on="1"/>
        <pt x="667" y="335" on="0"/>
        <pt x="725" y="426" on="0"/>
        <pt x="727" y="459" on="1"/>
        <pt x="722" y="458" on="0"/>
        <pt x="714" y="457" on="0"/>
        <pt x="709" y="457" on="1"/>
        <pt x="683" y="457" on="0"/>
        <pt x="665" y="490" on="0"/>
        <pt x="665" y="508" on="1"/>
        <pt x="665" y="534" on="0"/>
        <pt x="692" y="557" on="0"/>
        <pt x="714" y="557" on="1"/>
        <pt x="743" y="557" on="0"/>
        <pt x="774" y="520" on="0"/>
        <pt x="774" y="482" on="1"/>
        <pt x="774" y="455" on="0"/>
        <pt x="757" y="401" on="0"/>
        <pt x="719" y="340" on="0"/>
        <pt x="661" y="268" on="0"/>
        <pt x="619" y="222" on="1"/>
        <pt x="627" y="179" on="1"/>
        <pt x="630" y="162" on="0"/>
        <pt x="636" y="124" on="0"/>
        <pt x="648" y="91" on="0"/>
        <pt x="666" y="70" on="0"/>
        <pt x="681" y="70" on="1"/>
        <pt x="706" y="70" on="0"/>
        <pt x="756" y="131" on="0"/>
        <pt x="776" y="179" on="1"/>
        <pt x="813" y="179" on="1"/>
        <pt x="789" y="116" on="0"/>
        <pt x="741" y="43" on="0"/>
        <pt x="696" y="5" on="0"/>
        <pt x="656" y="-6" on="0"/>
        <pt x="640" y="-6" on="1"/>
        <pt x="589" y="-6" on="0"/>
        <pt x="538" y="62" on="0"/>
        <pt x="521" y="139" on="1"/>
        <pt x="492" y="102" on="0"/>
        <pt x="414" y="44" on="0"/>
        <pt x="327" y="3" on="0"/>
        <pt x="237" y="-18" on="0"/>
        <pt x="197" y="-18" on="1"/>
        <pt x="149" y="-18" on="0"/>
        <pt x="79" y="11" on="0"/>
        <pt x="34" y="59" on="0"/>
        <pt x="13" y="123" on="0"/>
        <pt x="13" y="158" on="1"/>
        <pt x="13" y="197" on="0"/>
        <pt x="38" y="275" on="0"/>
        <pt x="86" y="344" on="0"/>
        <pt x="155" y="399" on="0"/>
        <pt x="198" y="417" on="1"/>
        <pt x="166" y="440" on="0"/>
        <pt x="137" y="503" on="0"/>
        <pt x="137" y="537" on="1"/>
        <pt x="137" y="576" on="0"/>
        <pt x="169" y="652" on="0"/>
        <pt x="228" y="714" on="0"/>
        <pt x="308" y="752" on="0"/>
        <pt x="356" y="752" on="1"/>
        <pt x="386" y="752" on="0"/>
        <pt x="438" y="736" on="0"/>
        <pt x="477" y="704" on="0"/>
        <pt x="499" y="658" on="0"/>
        <pt x="499" y="627" on="1"/>
        <pt x="499" y="582" on="0"/>
        <pt x="455" y="523" on="0"/>
        <pt x="425" y="523" on="1"/>
        <pt x="398" y="523" on="0"/>
        <pt x="378" y="550" on="1"/>
        <pt x="398" y="558" on="0"/>
        <pt x="436" y="604" on="0"/>
        <pt x="436" y="643" on="1"/>
        <pt x="436" y="664" on="0"/>
        <pt x="423" y="692" on="0"/>
        <pt x="404" y="708" on="0"/>
        <pt x="380" y="714" on="0"/>
        <pt x="369" y="714" on="1"/>
        <pt x="346" y="714" on="0"/>
        <pt x="298" y="692" on="0"/>
        <pt x="257" y="649" on="0"/>
        <pt x="231" y="583" on="0"/>
        <pt x="231" y="540" on="1"/>
        <pt x="231" y="520" on="0"/>
        <pt x="238" y="481" on="0"/>
        <pt x="256" y="448" on="0"/>
        <pt x="287" y="423" on="0"/>
        <pt x="311" y="418" on="1"/>
        <pt x="267" y="409" on="0"/>
        <pt x="199" y="363" on="0"/>
        <pt x="153" y="300" on="0"/>
        <pt x="130" y="225" on="0"/>
        <pt x="130" y="188" on="1"/>
        <pt x="130" y="128" on="0"/>
        <pt x="190" y="61" on="0"/>
        <pt x="253" y="61" on="1"/>
        <pt x="289" y="61" on="0"/>
        <pt x="367" y="82" on="0"/>
        <pt x="439" y="117" on="0"/>
        <pt x="497" y="162" on="0"/>
        <pt x="512" y="185" on="1"/>
        <pt x="461" y="462" on="1"/>
      </contour>
    </TTGlyph>
    <TTGlyph name="Eacute" xMin="12" yMin="-18" xMax="532" yMax="1000">
      <contour>
        <pt x="489" y="170" on="1"/>
        <pt x="469" y="126" on="0"/>
        <pt x="407" y="56" on="0"/>
        <pt x="329" y="8" on="0"/>
        <pt x="241" y="-18" on="0"/>
        <pt x="196" y="-18" on="1"/>
        <pt x="148" y="-18" on="0"/>
        <pt x="78" y="11" on="0"/>
        <pt x="33" y="59" on="0"/>
        <pt x="12" y="123" on="0"/>
        <pt x="12" y="158" on="1"/>
        <pt x="12" y="197" on="0"/>
        <pt x="37" y="275" on="0"/>
        <pt x="85" y="344" on="0"/>
        <pt x="154" y="399" on="0"/>
        <pt x="197" y="417" on="1"/>
        <pt x="165" y="440" on="0"/>
        <pt x="136" y="503" on="0"/>
        <pt x="136" y="537" on="1"/>
        <pt x="136" y="576" on="0"/>
        <pt x="168" y="652" on="0"/>
        <pt x="227" y="714" on="0"/>
        <pt x="307" y="752" on="0"/>
        <pt x="355" y="752" on="1"/>
        <pt x="385" y="752" on="0"/>
        <pt x="437" y="736" on="0"/>
        <pt x="476" y="704" on="0"/>
        <pt x="498" y="658" on="0"/>
        <pt x="498" y="627" on="1"/>
        <pt x="498" y="582" on="0"/>
        <pt x="454" y="523" on="0"/>
        <pt x="424" y="523" on="1"/>
        <pt x="397" y="523" on="0"/>
        <pt x="377" y="550" on="1"/>
        <pt x="396" y="557" on="0"/>
        <pt x="435" y="603" on="0"/>
        <pt x="435" y="642" on="1"/>
        <pt x="435" y="664" on="0"/>
        <pt x="422" y="692" on="0"/>
        <pt x="403" y="708" on="0"/>
        <pt x="379" y="714" on="0"/>
        <pt x="368" y="714" on="1"/>
        <pt x="345" y="714" on="0"/>
        <pt x="297" y="692" on="0"/>
        <pt x="256" y="649" on="0"/>
        <pt x="230" y="584" on="0"/>
        <pt x="230" y="542" on="1"/>
        <pt x="230" y="522" on="0"/>
        <pt x="237" y="482" on="0"/>
        <pt x="255" y="448" on="0"/>
        <pt x="286" y="423" on="0"/>
        <pt x="310" y="418" on="1"/>
        <pt x="266" y="409" on="0"/>
        <pt x="198" y="363" on="0"/>
        <pt x="152" y="300" on="0"/>
        <pt x="129" y="225" on="0"/>
        <pt x="129" y="186" on="1"/>
        <pt x="129" y="127" on="0"/>
        <pt x="190" y="61" on="0"/>
        <pt x="255" y="61" on="1"/>
        <pt x="290" y="61" on="0"/>
        <pt x="355" y="80" on="0"/>
        <pt x="409" y="113" on="0"/>
        <pt x="452" y="156" on="0"/>
        <pt x="466" y="180" on="1"/>
      </contour>
      <contour>
        <pt x="447" y="1000" on="1"/>
        <pt x="532" y="1000" on="1"/>
        <pt x="411" y="811" on="1"/>
        <pt x="356" y="811" on="1"/>
      </contour>
    </TTGlyph>
    <TTGlyph name="Ecircumflex" xMin="12" yMin="-18" xMax="506" yMax="978">
      <contour>
        <pt x="489" y="170" on="1"/>
        <pt x="469" y="126" on="0"/>
        <pt x="407" y="56" on="0"/>
        <pt x="329" y="8" on="0"/>
        <pt x="241" y="-18" on="0"/>
        <pt x="196" y="-18" on="1"/>
        <pt x="148" y="-18" on="0"/>
        <pt x="78" y="11" on="0"/>
        <pt x="33" y="59" on="0"/>
        <pt x="12" y="123" on="0"/>
        <pt x="12" y="158" on="1"/>
        <pt x="12" y="197" on="0"/>
        <pt x="37" y="275" on="0"/>
        <pt x="85" y="344" on="0"/>
        <pt x="154" y="399" on="0"/>
        <pt x="197" y="417" on="1"/>
        <pt x="165" y="440" on="0"/>
        <pt x="136" y="503" on="0"/>
        <pt x="136" y="537" on="1"/>
        <pt x="136" y="576" on="0"/>
        <pt x="168" y="652" on="0"/>
        <pt x="227" y="714" on="0"/>
        <pt x="307" y="752" on="0"/>
        <pt x="355" y="752" on="1"/>
        <pt x="385" y="752" on="0"/>
        <pt x="437" y="736" on="0"/>
        <pt x="476" y="704" on="0"/>
        <pt x="498" y="658" on="0"/>
        <pt x="498" y="627" on="1"/>
        <pt x="498" y="582" on="0"/>
        <pt x="454" y="523" on="0"/>
        <pt x="424" y="523" on="1"/>
        <pt x="397" y="523" on="0"/>
        <pt x="377" y="550" on="1"/>
        <pt x="396" y="557" on="0"/>
        <pt x="435" y="603" on="0"/>
        <pt x="435" y="642" on="1"/>
        <pt x="435" y="664" on="0"/>
        <pt x="422" y="692" on="0"/>
        <pt x="403" y="708" on="0"/>
        <pt x="379" y="714" on="0"/>
        <pt x="368" y="714" on="1"/>
        <pt x="345" y="714" on="0"/>
        <pt x="297" y="692" on="0"/>
        <pt x="256" y="649" on="0"/>
        <pt x="230" y="584" on="0"/>
        <pt x="230" y="542" on="1"/>
        <pt x="230" y="522" on="0"/>
        <pt x="237" y="482" on="0"/>
        <pt x="255" y="448" on="0"/>
        <pt x="286" y="423" on="0"/>
        <pt x="310" y="418" on="1"/>
        <pt x="266" y="409" on="0"/>
        <pt x="198" y="363" on="0"/>
        <pt x="152" y="300" on="0"/>
        <pt x="129" y="225" on="0"/>
        <pt x="129" y="186" on="1"/>
        <pt x="129" y="127" on="0"/>
        <pt x="190" y="61" on="0"/>
        <pt x="255" y="61" on="1"/>
        <pt x="290" y="61" on="0"/>
        <pt x="355" y="80" on="0"/>
        <pt x="409" y="113" on="0"/>
        <pt x="452" y="156" on="0"/>
        <pt x="466" y="180" on="1"/>
      </contour>
      <contour>
        <pt x="484" y="811" on="1"/>
        <pt x="419" y="912" on="1"/>
        <pt x="257" y="811" on="1"/>
        <pt x="223" y="811" on="1"/>
        <pt x="424" y="978" on="1"/>
        <pt x="445" y="978" on="1"/>
        <pt x="506" y="811" on="1"/>
      </contour>
    </TTGlyph>
    <TTGlyph name="Edieresis" xMin="12" yMin="-18" xMax="530" yMax="945">
      <contour>
        <pt x="489" y="170" on="1"/>
        <pt x="469" y="126" on="0"/>
        <pt x="407" y="56" on="0"/>
        <pt x="329" y="8" on="0"/>
        <pt x="241" y="-18" on="0"/>
        <pt x="196" y="-18" on="1"/>
        <pt x="148" y="-18" on="0"/>
        <pt x="78" y="11" on="0"/>
        <pt x="33" y="59" on="0"/>
        <pt x="12" y="123" on="0"/>
        <pt x="12" y="158" on="1"/>
        <pt x="12" y="197" on="0"/>
        <pt x="37" y="275" on="0"/>
        <pt x="85" y="344" on="0"/>
        <pt x="154" y="399" on="0"/>
        <pt x="197" y="417" on="1"/>
        <pt x="165" y="440" on="0"/>
        <pt x="136" y="503" on="0"/>
        <pt x="136" y="537" on="1"/>
        <pt x="136" y="576" on="0"/>
        <pt x="168" y="652" on="0"/>
        <pt x="227" y="714" on="0"/>
        <pt x="307" y="752" on="0"/>
        <pt x="355" y="752" on="1"/>
        <pt x="385" y="752" on="0"/>
        <pt x="437" y="736" on="0"/>
        <pt x="476" y="704" on="0"/>
        <pt x="498" y="658" on="0"/>
        <pt x="498" y="627" on="1"/>
        <pt x="498" y="582" on="0"/>
        <pt x="454" y="523" on="0"/>
        <pt x="424" y="523" on="1"/>
        <pt x="397" y="523" on="0"/>
        <pt x="377" y="550" on="1"/>
        <pt x="396" y="557" on="0"/>
        <pt x="435" y="603" on="0"/>
        <pt x="435" y="642" on="1"/>
        <pt x="435" y="664" on="0"/>
        <pt x="422" y="692" on="0"/>
        <pt x="403" y="708" on="0"/>
        <pt x="379" y="714" on="0"/>
        <pt x="368" y="714" on="1"/>
        <pt x="345" y="714" on="0"/>
        <pt x="297" y="692" on="0"/>
        <pt x="256" y="649" on="0"/>
        <pt x="230" y="584" on="0"/>
        <pt x="230" y="542" on="1"/>
        <pt x="230" y="522" on="0"/>
        <pt x="237" y="482" on="0"/>
        <pt x="255" y="448" on="0"/>
        <pt x="286" y="423" on="0"/>
        <pt x="310" y="418" on="1"/>
        <pt x="266" y="409" on="0"/>
        <pt x="198" y="363" on="0"/>
        <pt x="152" y="300" on="0"/>
        <pt x="129" y="225" on="0"/>
        <pt x="129" y="186" on="1"/>
        <pt x="129" y="127" on="0"/>
        <pt x="190" y="61" on="0"/>
        <pt x="255" y="61" on="1"/>
        <pt x="290" y="61" on="0"/>
        <pt x="355" y="80" on="0"/>
        <pt x="409" y="113" on="0"/>
        <pt x="452" y="156" on="0"/>
        <pt x="466" y="180" on="1"/>
      </contour>
      <contour>
        <pt x="261" y="892" on="1"/>
        <pt x="261" y="914" on="0"/>
        <pt x="291" y="945" on="0"/>
        <pt x="313" y="945" on="1"/>
        <pt x="335" y="945" on="0"/>
        <pt x="366" y="914" on="0"/>
        <pt x="366" y="892" on="1"/>
        <pt x="366" y="870" on="0"/>
        <pt x="335" y="840" on="0"/>
        <pt x="313" y="840" on="1"/>
        <pt x="291" y="840" on="0"/>
        <pt x="261" y="870" on="0"/>
      </contour>
      <contour>
        <pt x="425" y="892" on="1"/>
        <pt x="425" y="914" on="0"/>
        <pt x="455" y="945" on="0"/>
        <pt x="477" y="945" on="1"/>
        <pt x="499" y="945" on="0"/>
        <pt x="530" y="914" on="0"/>
        <pt x="530" y="892" on="1"/>
        <pt x="530" y="870" on="0"/>
        <pt x="499" y="840" on="0"/>
        <pt x="477" y="840" on="1"/>
        <pt x="455" y="840" on="0"/>
        <pt x="425" y="870" on="0"/>
      </contour>
    </TTGlyph>
    <TTGlyph name="Egrave" xMin="12" yMin="-18" xMax="498" yMax="1000">
      <contour>
        <pt x="489" y="170" on="1"/>
        <pt x="469" y="126" on="0"/>
        <pt x="407" y="56" on="0"/>
        <pt x="329" y="8" on="0"/>
        <pt x="241" y="-18" on="0"/>
        <pt x="196" y="-18" on="1"/>
        <pt x="148" y="-18" on="0"/>
        <pt x="78" y="11" on="0"/>
        <pt x="33" y="59" on="0"/>
        <pt x="12" y="123" on="0"/>
        <pt x="12" y="158" on="1"/>
        <pt x="12" y="197" on="0"/>
        <pt x="37" y="275" on="0"/>
        <pt x="85" y="344" on="0"/>
        <pt x="154" y="399" on="0"/>
        <pt x="197" y="417" on="1"/>
        <pt x="165" y="440" on="0"/>
        <pt x="136" y="503" on="0"/>
        <pt x="136" y="537" on="1"/>
        <pt x="136" y="576" on="0"/>
        <pt x="168" y="652" on="0"/>
        <pt x="227" y="714" on="0"/>
        <pt x="307" y="752" on="0"/>
        <pt x="355" y="752" on="1"/>
        <pt x="385" y="752" on="0"/>
        <pt x="437" y="736" on="0"/>
        <pt x="476" y="704" on="0"/>
        <pt x="498" y="658" on="0"/>
        <pt x="498" y="627" on="1"/>
        <pt x="498" y="582" on="0"/>
        <pt x="454" y="523" on="0"/>
        <pt x="424" y="523" on="1"/>
        <pt x="397" y="523" on="0"/>
        <pt x="377" y="550" on="1"/>
        <pt x="396" y="557" on="0"/>
        <pt x="435" y="603" on="0"/>
        <pt x="435" y="642" on="1"/>
        <pt x="435" y="664" on="0"/>
        <pt x="422" y="692" on="0"/>
        <pt x="403" y="708" on="0"/>
        <pt x="379" y="714" on="0"/>
        <pt x="368" y="714" on="1"/>
        <pt x="345" y="714" on="0"/>
        <pt x="297" y="692" on="0"/>
        <pt x="256" y="649" on="0"/>
        <pt x="230" y="584" on="0"/>
        <pt x="230" y="542" on="1"/>
        <pt x="230" y="522" on="0"/>
        <pt x="237" y="482" on="0"/>
        <pt x="255" y="448" on="0"/>
        <pt x="286" y="423" on="0"/>
        <pt x="310" y="418" on="1"/>
        <pt x="266" y="409" on="0"/>
        <pt x="198" y="363" on="0"/>
        <pt x="152" y="300" on="0"/>
        <pt x="129" y="225" on="0"/>
        <pt x="129" y="186" on="1"/>
        <pt x="129" y="127" on="0"/>
        <pt x="190" y="61" on="0"/>
        <pt x="255" y="61" on="1"/>
        <pt x="290" y="61" on="0"/>
        <pt x="355" y="80" on="0"/>
        <pt x="409" y="113" on="0"/>
        <pt x="452" y="156" on="0"/>
        <pt x="466" y="180" on="1"/>
      </contour>
      <contour>
        <pt x="383" y="811" on="1"/>
        <pt x="328" y="811" on="1"/>
        <pt x="267" y="1000" on="1"/>
        <pt x="352" y="1000" on="1"/>
      </contour>
    </TTGlyph>
    <TTGlyph name="Eogonek" xMin="12" yMin="-193" xMax="498" yMax="752">
      <contour>
        <pt x="489" y="170" on="1"/>
        <pt x="484" y="145" on="0"/>
        <pt x="452" y="102" on="0"/>
        <pt x="409" y="62" on="0"/>
        <pt x="363" y="24" on="0"/>
        <pt x="324" y="-16" on="0"/>
        <pt x="298" y="-59" on="0"/>
        <pt x="298" y="-84" on="1"/>
        <pt x="298" y="-103" on="0"/>
        <pt x="320" y="-142" on="0"/>
        <pt x="346" y="-142" on="1"/>
        <pt x="364" y="-142" on="0"/>
        <pt x="401" y="-114" on="0"/>
        <pt x="415" y="-100" on="1"/>
        <pt x="413" y="-131" on="1"/>
        <pt x="404" y="-140" on="0"/>
        <pt x="382" y="-161" on="0"/>
        <pt x="355" y="-180" on="0"/>
        <pt x="323" y="-193" on="0"/>
        <pt x="304" y="-193" on="1"/>
        <pt x="283" y="-193" on="0"/>
        <pt x="254" y="-178" on="0"/>
        <pt x="234" y="-156" on="0"/>
        <pt x="225" y="-128" on="0"/>
        <pt x="225" y="-115" on="1"/>
        <pt x="225" y="-89" on="0"/>
        <pt x="259" y="-31" on="0"/>
        <pt x="292" y="-3" on="1"/>
        <pt x="245" y="-18" on="0"/>
        <pt x="196" y="-18" on="1"/>
        <pt x="148" y="-18" on="0"/>
        <pt x="78" y="11" on="0"/>
        <pt x="33" y="59" on="0"/>
        <pt x="12" y="123" on="0"/>
        <pt x="12" y="158" on="1"/>
        <pt x="12" y="197" on="0"/>
        <pt x="37" y="275" on="0"/>
        <pt x="85" y="344" on="0"/>
        <pt x="154" y="399" on="0"/>
        <pt x="197" y="417" on="1"/>
        <pt x="165" y="440" on="0"/>
        <pt x="136" y="503" on="0"/>
        <pt x="136" y="537" on="1"/>
        <pt x="136" y="576" on="0"/>
        <pt x="168" y="652" on="0"/>
        <pt x="227" y="714" on="0"/>
        <pt x="307" y="752" on="0"/>
        <pt x="355" y="752" on="1"/>
        <pt x="385" y="752" on="0"/>
        <pt x="437" y="736" on="0"/>
        <pt x="476" y="704" on="0"/>
        <pt x="498" y="658" on="0"/>
        <pt x="498" y="627" on="1"/>
        <pt x="498" y="582" on="0"/>
        <pt x="454" y="523" on="0"/>
        <pt x="424" y="523" on="1"/>
        <pt x="397" y="523" on="0"/>
        <pt x="377" y="550" on="1"/>
        <pt x="396" y="557" on="0"/>
        <pt x="435" y="603" on="0"/>
        <pt x="435" y="642" on="1"/>
        <pt x="435" y="664" on="0"/>
        <pt x="422" y="692" on="0"/>
        <pt x="403" y="708" on="0"/>
        <pt x="379" y="714" on="0"/>
        <pt x="368" y="714" on="1"/>
        <pt x="345" y="714" on="0"/>
        <pt x="297" y="692" on="0"/>
        <pt x="256" y="649" on="0"/>
        <pt x="230" y="584" on="0"/>
        <pt x="230" y="542" on="1"/>
        <pt x="230" y="522" on="0"/>
        <pt x="237" y="482" on="0"/>
        <pt x="255" y="448" on="0"/>
        <pt x="286" y="423" on="0"/>
        <pt x="310" y="418" on="1"/>
        <pt x="266" y="409" on="0"/>
        <pt x="198" y="363" on="0"/>
        <pt x="152" y="300" on="0"/>
        <pt x="129" y="225" on="0"/>
        <pt x="129" y="186" on="1"/>
        <pt x="129" y="127" on="0"/>
        <pt x="190" y="61" on="0"/>
        <pt x="255" y="61" on="1"/>
        <pt x="290" y="61" on="0"/>
        <pt x="356" y="79" on="0"/>
        <pt x="412" y="111" on="0"/>
        <pt x="454" y="155" on="0"/>
        <pt x="466" y="180" on="1"/>
      </contour>
    </TTGlyph>
    <TTGlyph name="Eth" xMin="56" yMin="-13" xMax="695" yMax="750">
      <contour>
        <pt x="129" y="464" on="1"/>
        <pt x="129" y="433" on="0"/>
        <pt x="155" y="400" on="0"/>
        <pt x="163" y="393" on="1"/>
        <pt x="113" y="393" on="0"/>
        <pt x="56" y="435" on="0"/>
        <pt x="56" y="486" on="1"/>
        <pt x="56" y="537" on="0"/>
        <pt x="116" y="633" on="0"/>
        <pt x="217" y="706" on="0"/>
        <pt x="350" y="750" on="0"/>
        <pt x="424" y="750" on="1"/>
        <pt x="498" y="750" on="0"/>
        <pt x="601" y="705" on="0"/>
        <pt x="666" y="625" on="0"/>
        <pt x="695" y="518" on="0"/>
        <pt x="695" y="456" on="1"/>
        <pt x="695" y="401" on="0"/>
        <pt x="673" y="289" on="0"/>
        <pt x="633" y="185" on="0"/>
        <pt x="580" y="93" on="0"/>
        <pt x="518" y="26" on="0"/>
        <pt x="450" y="-13" on="0"/>
        <pt x="416" y="-13" on="1"/>
        <pt x="386" y="-13" on="0"/>
        <pt x="324" y="15" on="0"/>
        <pt x="290" y="45" on="1"/>
        <pt x="281" y="0" on="1"/>
        <pt x="171" y="0" on="1"/>
        <pt x="247" y="352" on="1"/>
        <pt x="181" y="352" on="1"/>
        <pt x="197" y="413" on="1"/>
        <pt x="260" y="413" on="1"/>
        <pt x="309" y="641" on="1"/>
        <pt x="421" y="656" on="1"/>
        <pt x="369" y="413" on="1"/>
        <pt x="454" y="413" on="1"/>
        <pt x="438" y="352" on="1"/>
        <pt x="356" y="352" on="1"/>
        <pt x="297" y="78" on="1"/>
        <pt x="329" y="52" on="0"/>
        <pt x="362" y="52" on="1"/>
        <pt x="399" y="52" on="0"/>
        <pt x="460" y="93" on="0"/>
        <pt x="509" y="163" on="0"/>
        <pt x="544" y="254" on="0"/>
        <pt x="568" y="354" on="0"/>
        <pt x="580" y="456" on="0"/>
        <pt x="580" y="502" on="1"/>
        <pt x="580" y="561" on="0"/>
        <pt x="558" y="642" on="0"/>
        <pt x="514" y="692" on="0"/>
        <pt x="447" y="714" on="0"/>
        <pt x="403" y="714" on="1"/>
        <pt x="352" y="714" on="0"/>
        <pt x="253" y="680" on="0"/>
        <pt x="176" y="616" on="0"/>
        <pt x="129" y="523" on="0"/>
      </contour>
    </TTGlyph>
    <TTGlyph name="Euro" xMin="20" yMin="-16" xMax="601" yMax="750">
      <contour>
        <pt x="108" y="334" on="1"/>
        <pt x="112" y="370" on="0"/>
        <pt x="120" y="409" on="1"/>
        <pt x="45" y="409" on="1"/>
        <pt x="56" y="449" on="1"/>
        <pt x="130" y="449" on="1"/>
        <pt x="145" y="506" on="0"/>
        <pt x="195" y="614" on="0"/>
        <pt x="270" y="698" on="0"/>
        <pt x="371" y="750" on="0"/>
        <pt x="438" y="750" on="1"/>
        <pt x="471" y="750" on="0"/>
        <pt x="530" y="735" on="0"/>
        <pt x="575" y="703" on="0"/>
        <pt x="601" y="652" on="0"/>
        <pt x="601" y="615" on="1"/>
        <pt x="601" y="577" on="0"/>
        <pt x="569" y="524" on="0"/>
        <pt x="533" y="524" on="1"/>
        <pt x="502" y="524" on="0"/>
        <pt x="489" y="542" on="1"/>
        <pt x="496" y="546" on="0"/>
        <pt x="511" y="566" on="0"/>
        <pt x="524" y="594" on="0"/>
        <pt x="532" y="627" on="0"/>
        <pt x="532" y="644" on="1"/>
        <pt x="532" y="680" on="0"/>
        <pt x="493" y="714" on="0"/>
        <pt x="459" y="714" on="1"/>
        <pt x="418" y="714" on="0"/>
        <pt x="352" y="671" on="0"/>
        <pt x="299" y="598" on="0"/>
        <pt x="260" y="502" on="0"/>
        <pt x="247" y="449" on="1"/>
        <pt x="458" y="449" on="1"/>
        <pt x="447" y="409" on="1"/>
        <pt x="239" y="409" on="1"/>
        <pt x="231" y="371" on="0"/>
        <pt x="227" y="334" on="1"/>
        <pt x="433" y="334" on="1"/>
        <pt x="422" y="294" on="1"/>
        <pt x="224" y="294" on="1"/>
        <pt x="223" y="281" on="0"/>
        <pt x="223" y="257" on="0"/>
        <pt x="223" y="246" on="1"/>
        <pt x="223" y="209" on="0"/>
        <pt x="233" y="142" on="0"/>
        <pt x="266" y="91" on="0"/>
        <pt x="328" y="60" on="0"/>
        <pt x="379" y="60" on="1"/>
        <pt x="430" y="60" on="0"/>
        <pt x="507" y="92" on="0"/>
        <pt x="539" y="124" on="1"/>
        <pt x="539" y="84" on="1"/>
        <pt x="522" y="63" on="0"/>
        <pt x="471" y="26" on="0"/>
        <pt x="410" y="-1" on="0"/>
        <pt x="340" y="-16" on="0"/>
        <pt x="303" y="-16" on="1"/>
        <pt x="208" y="-16" on="0"/>
        <pt x="102" y="103" on="0"/>
        <pt x="102" y="237" on="1"/>
        <pt x="102" y="250" on="0"/>
        <pt x="102" y="278" on="0"/>
        <pt x="104" y="294" on="1"/>
        <pt x="20" y="294" on="1"/>
        <pt x="31" y="334" on="1"/>
      </contour>
    </TTGlyph>
    <TTGlyph name="F" xMin="62" yMin="0" xMax="659" yMax="750">
      <contour>
        <pt x="548" y="646" on="1"/>
        <pt x="516" y="646" on="0"/>
        <pt x="451" y="657" on="0"/>
        <pt x="419" y="664" on="1"/>
        <pt x="370" y="435" on="1"/>
        <pt x="519" y="435" on="1"/>
        <pt x="505" y="376" on="1"/>
        <pt x="357" y="376" on="1"/>
        <pt x="277" y="0" on="1"/>
        <pt x="167" y="0" on="1"/>
        <pt x="314" y="682" on="1"/>
        <pt x="309" y="683" on="0"/>
        <pt x="299" y="683" on="0"/>
        <pt x="294" y="683" on="1"/>
        <pt x="263" y="683" on="0"/>
        <pt x="205" y="664" on="0"/>
        <pt x="161" y="615" on="0"/>
        <pt x="135" y="533" on="0"/>
        <pt x="135" y="470" on="1"/>
        <pt x="135" y="438" on="0"/>
        <pt x="146" y="401" on="0"/>
        <pt x="154" y="393" on="1"/>
        <pt x="109" y="393" on="0"/>
        <pt x="62" y="437" on="0"/>
        <pt x="62" y="494" on="1"/>
        <pt x="62" y="542" on="0"/>
        <pt x="101" y="634" on="0"/>
        <pt x="182" y="706" on="0"/>
        <pt x="305" y="750" on="0"/>
        <pt x="389" y="750" on="1"/>
        <pt x="415" y="750" on="0"/>
        <pt x="458" y="746" on="0"/>
        <pt x="500" y="742" on="0"/>
        <pt x="543" y="738" on="0"/>
        <pt x="568" y="738" on="1"/>
        <pt x="593" y="738" on="0"/>
        <pt x="638" y="743" on="0"/>
        <pt x="659" y="750" on="1"/>
        <pt x="650" y="715" on="0"/>
        <pt x="626" y="674" on="0"/>
        <pt x="598" y="653" on="0"/>
        <pt x="565" y="646" on="0"/>
      </contour>
    </TTGlyph>
    <TTGlyph name="F_i" xMin="118" yMin="-6" xMax="822" yMax="750">
      <contour>
        <pt x="686" y="615" on="1"/>
        <pt x="662" y="615" on="0"/>
        <pt x="612" y="626" on="0"/>
        <pt x="560" y="643" on="0"/>
        <pt x="505" y="661" on="0"/>
        <pt x="476" y="669" on="1"/>
        <pt x="426" y="435" on="1"/>
        <pt x="575" y="435" on="1"/>
        <pt x="561" y="376" on="1"/>
        <pt x="413" y="376" on="1"/>
        <pt x="333" y="0" on="1"/>
        <pt x="223" y="0" on="1"/>
        <pt x="369" y="682" on="1"/>
        <pt x="278" y="679" on="0"/>
        <pt x="190" y="580" on="0"/>
        <pt x="190" y="491" on="1"/>
        <pt x="190" y="481" on="0"/>
        <pt x="191" y="454" on="0"/>
        <pt x="195" y="427" on="0"/>
        <pt x="200" y="403" on="0"/>
        <pt x="205" y="396" on="1"/>
        <pt x="162" y="396" on="0"/>
        <pt x="118" y="436" on="0"/>
        <pt x="118" y="490" on="1"/>
        <pt x="118" y="540" on="0"/>
        <pt x="157" y="634" on="0"/>
        <pt x="237" y="706" on="0"/>
        <pt x="360" y="750" on="0"/>
        <pt x="444" y="750" on="1"/>
        <pt x="477" y="750" on="0"/>
        <pt x="529" y="744" on="0"/>
        <pt x="577" y="736" on="0"/>
        <pt x="628" y="730" on="0"/>
        <pt x="660" y="730" on="1"/>
        <pt x="692" y="730" on="0"/>
        <pt x="764" y="738" on="0"/>
        <pt x="805" y="749" on="1"/>
        <pt x="799" y="716" on="0"/>
        <pt x="781" y="666" on="0"/>
        <pt x="754" y="632" on="0"/>
        <pt x="714" y="615" on="0"/>
      </contour>
      <contour>
        <pt x="737" y="500" on="1"/>
        <pt x="664" y="160" on="1"/>
        <pt x="659" y="140" on="0"/>
        <pt x="659" y="115" on="1"/>
        <pt x="659" y="98" on="0"/>
        <pt x="671" y="70" on="0"/>
        <pt x="690" y="70" on="1"/>
        <pt x="714" y="70" on="0"/>
        <pt x="763" y="128" on="0"/>
        <pt x="785" y="179" on="1"/>
        <pt x="822" y="179" on="1"/>
        <pt x="798" y="116" on="0"/>
        <pt x="750" y="43" on="0"/>
        <pt x="705" y="5" on="0"/>
        <pt x="664" y="-6" on="0"/>
        <pt x="648" y="-6" on="1"/>
        <pt x="622" y="-6" on="0"/>
        <pt x="588" y="12" on="0"/>
        <pt x="568" y="42" on="0"/>
        <pt x="559" y="82" on="0"/>
        <pt x="559" y="105" on="1"/>
        <pt x="559" y="123" on="0"/>
        <pt x="564" y="161" on="0"/>
        <pt x="568" y="179" on="1"/>
        <pt x="636" y="500" on="1"/>
      </contour>
    </TTGlyph>
    <TTGlyph name="G" xMin="50" yMin="-207" xMax="597" yMax="750">
      <contour>
        <pt x="577" y="418" on="1"/>
        <pt x="495" y="42" on="1"/>
        <pt x="483" y="-15" on="0"/>
        <pt x="444" y="-108" on="0"/>
        <pt x="386" y="-172" on="0"/>
        <pt x="307" y="-207" on="0"/>
        <pt x="255" y="-207" on="1"/>
        <pt x="210" y="-207" on="0"/>
        <pt x="151" y="-183" on="0"/>
        <pt x="115" y="-145" on="0"/>
        <pt x="100" y="-96" on="0"/>
        <pt x="100" y="-70" on="1"/>
        <pt x="100" y="-44" on="0"/>
        <pt x="114" y="5" on="0"/>
        <pt x="146" y="44" on="0"/>
        <pt x="197" y="68" on="0"/>
        <pt x="234" y="68" on="1"/>
        <pt x="244" y="68" on="0"/>
        <pt x="274" y="64" on="0"/>
        <pt x="301" y="51" on="0"/>
        <pt x="320" y="24" on="0"/>
        <pt x="320" y="1" on="1"/>
        <pt x="320" y="-17" on="0"/>
        <pt x="314" y="-39" on="1"/>
        <pt x="300" y="-20" on="0"/>
        <pt x="264" y="-2" on="0"/>
        <pt x="245" y="-2" on="1"/>
        <pt x="215" y="-2" on="0"/>
        <pt x="168" y="-48" on="0"/>
        <pt x="168" y="-86" on="1"/>
        <pt x="168" y="-123" on="0"/>
        <pt x="214" y="-168" on="0"/>
        <pt x="249" y="-168" on="1"/>
        <pt x="266" y="-168" on="0"/>
        <pt x="301" y="-155" on="0"/>
        <pt x="334" y="-124" on="0"/>
        <pt x="361" y="-73" on="0"/>
        <pt x="370" y="-34" on="1"/>
        <pt x="421" y="199" on="1"/>
        <pt x="387" y="154" on="0"/>
        <pt x="299" y="109" on="0"/>
        <pt x="248" y="109" on="1"/>
        <pt x="204" y="109" on="0"/>
        <pt x="131" y="143" on="0"/>
        <pt x="79" y="206" on="0"/>
        <pt x="50" y="298" on="0"/>
        <pt x="50" y="357" on="1"/>
        <pt x="50" y="433" on="0"/>
        <pt x="100" y="575" on="0"/>
        <pt x="193" y="685" on="0"/>
        <pt x="326" y="750" on="0"/>
        <pt x="409" y="750" on="1"/>
        <pt x="444" y="750" on="0"/>
        <pt x="512" y="736" on="0"/>
        <pt x="565" y="704" on="0"/>
        <pt x="597" y="651" on="0"/>
        <pt x="597" y="612" on="1"/>
        <pt x="597" y="577" on="0"/>
        <pt x="565" y="524" on="0"/>
        <pt x="527" y="524" on="1"/>
        <pt x="521" y="524" on="0"/>
        <pt x="503" y="526" on="0"/>
        <pt x="484" y="532" on="0"/>
        <pt x="465" y="542" on="0"/>
        <pt x="458" y="550" on="1"/>
        <pt x="461" y="550" on="0"/>
        <pt x="479" y="557" on="0"/>
        <pt x="500" y="577" on="0"/>
        <pt x="516" y="610" on="0"/>
        <pt x="516" y="636" on="1"/>
        <pt x="516" y="673" on="0"/>
        <pt x="477" y="714" on="0"/>
        <pt x="436" y="714" on="1"/>
        <pt x="380" y="714" on="0"/>
        <pt x="283" y="651" on="0"/>
        <pt x="211" y="549" on="0"/>
        <pt x="170" y="420" on="0"/>
        <pt x="170" y="354" on="1"/>
        <pt x="170" y="276" on="0"/>
        <pt x="230" y="179" on="0"/>
        <pt x="288" y="179" on="1"/>
        <pt x="351" y="179" on="0"/>
        <pt x="448" y="301" on="0"/>
        <pt x="480" y="419" on="1"/>
      </contour>
    </TTGlyph>
    <TTGlyph name="Gbreve" xMin="50" yMin="-207" xMax="658" yMax="953">
      <contour>
        <pt x="577" y="418" on="1"/>
        <pt x="495" y="42" on="1"/>
        <pt x="483" y="-15" on="0"/>
        <pt x="444" y="-108" on="0"/>
        <pt x="386" y="-172" on="0"/>
        <pt x="307" y="-207" on="0"/>
        <pt x="255" y="-207" on="1"/>
        <pt x="210" y="-207" on="0"/>
        <pt x="151" y="-183" on="0"/>
        <pt x="115" y="-145" on="0"/>
        <pt x="100" y="-96" on="0"/>
        <pt x="100" y="-70" on="1"/>
        <pt x="100" y="-44" on="0"/>
        <pt x="114" y="5" on="0"/>
        <pt x="146" y="44" on="0"/>
        <pt x="197" y="68" on="0"/>
        <pt x="234" y="68" on="1"/>
        <pt x="244" y="68" on="0"/>
        <pt x="274" y="64" on="0"/>
        <pt x="301" y="51" on="0"/>
        <pt x="320" y="24" on="0"/>
        <pt x="320" y="1" on="1"/>
        <pt x="320" y="-17" on="0"/>
        <pt x="314" y="-39" on="1"/>
        <pt x="300" y="-20" on="0"/>
        <pt x="264" y="-2" on="0"/>
        <pt x="245" y="-2" on="1"/>
        <pt x="215" y="-2" on="0"/>
        <pt x="168" y="-48" on="0"/>
        <pt x="168" y="-86" on="1"/>
        <pt x="168" y="-123" on="0"/>
        <pt x="214" y="-168" on="0"/>
        <pt x="249" y="-168" on="1"/>
        <pt x="266" y="-168" on="0"/>
        <pt x="301" y="-155" on="0"/>
        <pt x="334" y="-124" on="0"/>
        <pt x="361" y="-73" on="0"/>
        <pt x="370" y="-34" on="1"/>
        <pt x="421" y="199" on="1"/>
        <pt x="387" y="154" on="0"/>
        <pt x="299" y="109" on="0"/>
        <pt x="248" y="109" on="1"/>
        <pt x="204" y="109" on="0"/>
        <pt x="131" y="143" on="0"/>
        <pt x="79" y="206" on="0"/>
        <pt x="50" y="298" on="0"/>
        <pt x="50" y="357" on="1"/>
        <pt x="50" y="433" on="0"/>
        <pt x="100" y="575" on="0"/>
        <pt x="193" y="685" on="0"/>
        <pt x="326" y="750" on="0"/>
        <pt x="409" y="750" on="1"/>
        <pt x="444" y="750" on="0"/>
        <pt x="512" y="736" on="0"/>
        <pt x="565" y="704" on="0"/>
        <pt x="597" y="651" on="0"/>
        <pt x="597" y="612" on="1"/>
        <pt x="597" y="577" on="0"/>
        <pt x="565" y="524" on="0"/>
        <pt x="527" y="524" on="1"/>
        <pt x="521" y="524" on="0"/>
        <pt x="503" y="526" on="0"/>
        <pt x="484" y="532" on="0"/>
        <pt x="465" y="542" on="0"/>
        <pt x="458" y="550" on="1"/>
        <pt x="461" y="550" on="0"/>
        <pt x="479" y="557" on="0"/>
        <pt x="500" y="577" on="0"/>
        <pt x="516" y="610" on="0"/>
        <pt x="516" y="636" on="1"/>
        <pt x="516" y="673" on="0"/>
        <pt x="477" y="714" on="0"/>
        <pt x="436" y="714" on="1"/>
        <pt x="380" y="714" on="0"/>
        <pt x="283" y="651" on="0"/>
        <pt x="211" y="549" on="0"/>
        <pt x="170" y="420" on="0"/>
        <pt x="170" y="354" on="1"/>
        <pt x="170" y="276" on="0"/>
        <pt x="230" y="179" on="0"/>
        <pt x="288" y="179" on="1"/>
        <pt x="351" y="179" on="0"/>
        <pt x="448" y="301" on="0"/>
        <pt x="480" y="419" on="1"/>
      </contour>
      <contour>
        <pt x="658" y="953" on="1"/>
        <pt x="658" y="917" on="0"/>
        <pt x="637" y="865" on="0"/>
        <pt x="592" y="831" on="0"/>
        <pt x="519" y="815" on="0"/>
        <pt x="467" y="815" on="1"/>
        <pt x="397" y="815" on="0"/>
        <pt x="312" y="867" on="0"/>
        <pt x="312" y="930" on="1"/>
        <pt x="312" y="935" on="0"/>
        <pt x="313" y="947" on="0"/>
        <pt x="314" y="953" on="1"/>
        <pt x="383" y="953" on="1"/>
        <pt x="382" y="948" on="0"/>
        <pt x="381" y="940" on="0"/>
        <pt x="381" y="935" on="1"/>
        <pt x="381" y="893" on="0"/>
        <pt x="437" y="850" on="0"/>
        <pt x="480" y="850" on="1"/>
        <pt x="524" y="850" on="0"/>
        <pt x="587" y="897" on="0"/>
        <pt x="592" y="953" on="1"/>
      </contour>
    </TTGlyph>
    <TTGlyph name="H" xMin="58" yMin="0" xMax="740" yMax="750">
      <contour>
        <pt x="740" y="748" on="1"/>
        <pt x="581" y="0" on="1"/>
        <pt x="471" y="0" on="1"/>
        <pt x="551" y="376" on="1"/>
        <pt x="336" y="376" on="1"/>
        <pt x="256" y="0" on="1"/>
        <pt x="146" y="0" on="1"/>
        <pt x="295" y="698" on="1"/>
        <pt x="223" y="673" on="0"/>
        <pt x="134" y="550" on="0"/>
        <pt x="134" y="462" on="1"/>
        <pt x="134" y="430" on="0"/>
        <pt x="146" y="400" on="0"/>
        <pt x="158" y="393" on="1"/>
        <pt x="115" y="393" on="0"/>
        <pt x="58" y="435" on="0"/>
        <pt x="58" y="485" on="1"/>
        <pt x="58" y="538" on="0"/>
        <pt x="115" y="634" on="0"/>
        <pt x="205" y="707" on="0"/>
        <pt x="318" y="750" on="0"/>
        <pt x="374" y="750" on="1"/>
        <pt x="385" y="750" on="0"/>
        <pt x="405" y="749" on="0"/>
        <pt x="415" y="748" on="1"/>
        <pt x="348" y="435" on="1"/>
        <pt x="563" y="435" on="1"/>
        <pt x="624" y="717" on="1"/>
      </contour>
    </TTGlyph>
    <TTGlyph name="I" xMin="56" yMin="0" xMax="447" yMax="750">
      <contour>
        <pt x="288" y="0" on="1"/>
        <pt x="178" y="0" on="1"/>
        <pt x="325" y="692" on="1"/>
        <pt x="283" y="681" on="0"/>
        <pt x="215" y="642" on="0"/>
        <pt x="166" y="585" on="0"/>
        <pt x="139" y="512" on="0"/>
        <pt x="139" y="469" on="1"/>
        <pt x="139" y="434" on="0"/>
        <pt x="154" y="403" on="0"/>
        <pt x="163" y="393" on="1"/>
        <pt x="113" y="393" on="0"/>
        <pt x="56" y="434" on="0"/>
        <pt x="56" y="485" on="1"/>
        <pt x="56" y="538" on="0"/>
        <pt x="119" y="634" on="0"/>
        <pt x="219" y="707" on="0"/>
        <pt x="344" y="750" on="0"/>
        <pt x="406" y="750" on="1"/>
        <pt x="417" y="750" on="0"/>
        <pt x="437" y="749" on="0"/>
        <pt x="447" y="748" on="1"/>
      </contour>
    </TTGlyph>
    <TTGlyph name="IJ" xMin="56" yMin="-207" xMax="717" yMax="750">
      <contour>
        <pt x="300" y="57" on="1"/>
        <pt x="335" y="53" on="0"/>
        <pt x="366" y="20" on="0"/>
        <pt x="366" y="3" on="1"/>
        <pt x="366" y="-4" on="0"/>
        <pt x="362" y="-21" on="0"/>
        <pt x="359" y="-30" on="1"/>
        <pt x="352" y="-20" on="0"/>
        <pt x="323" y="-2" on="0"/>
        <pt x="304" y="-2" on="1"/>
        <pt x="287" y="-2" on="0"/>
        <pt x="260" y="-18" on="0"/>
        <pt x="242" y="-44" on="0"/>
        <pt x="233" y="-74" on="0"/>
        <pt x="233" y="-88" on="1"/>
        <pt x="233" y="-121" on="0"/>
        <pt x="280" y="-167" on="0"/>
        <pt x="312" y="-167" on="1"/>
        <pt x="326" y="-167" on="0"/>
        <pt x="364" y="-155" on="0"/>
        <pt x="400" y="-124" on="0"/>
        <pt x="432" y="-73" on="0"/>
        <pt x="440" y="-34" on="1"/>
        <pt x="600" y="724" on="1"/>
        <pt x="717" y="750" on="1"/>
        <pt x="567" y="40" on="1"/>
        <pt x="555" y="-17" on="0"/>
        <pt x="515" y="-108" on="0"/>
        <pt x="454" y="-173" on="0"/>
        <pt x="372" y="-207" on="0"/>
        <pt x="318" y="-207" on="1"/>
        <pt x="275" y="-207" on="0"/>
        <pt x="215" y="-186" on="0"/>
        <pt x="178" y="-150" on="0"/>
        <pt x="162" y="-101" on="0"/>
        <pt x="162" y="-74" on="1"/>
        <pt x="162" y="-31" on="0"/>
        <pt x="178" y="0" on="1"/>
        <pt x="325" y="692" on="1"/>
        <pt x="283" y="681" on="0"/>
        <pt x="215" y="642" on="0"/>
        <pt x="166" y="585" on="0"/>
        <pt x="139" y="512" on="0"/>
        <pt x="139" y="469" on="1"/>
        <pt x="139" y="434" on="0"/>
        <pt x="154" y="403" on="0"/>
        <pt x="163" y="393" on="1"/>
        <pt x="113" y="393" on="0"/>
        <pt x="56" y="434" on="0"/>
        <pt x="56" y="485" on="1"/>
        <pt x="56" y="538" on="0"/>
        <pt x="119" y="634" on="0"/>
        <pt x="219" y="707" on="0"/>
        <pt x="344" y="750" on="0"/>
        <pt x="406" y="750" on="1"/>
        <pt x="417" y="750" on="0"/>
        <pt x="437" y="749" on="0"/>
        <pt x="447" y="748" on="1"/>
      </contour>
    </TTGlyph>
    <TTGlyph name="Iacute" xMin="56" yMin="0" xMax="529" yMax="1000">
      <contour>
        <pt x="288" y="0" on="1"/>
        <pt x="178" y="0" on="1"/>
        <pt x="325" y="692" on="1"/>
        <pt x="283" y="681" on="0"/>
        <pt x="215" y="642" on="0"/>
        <pt x="166" y="585" on="0"/>
        <pt x="139" y="512" on="0"/>
        <pt x="139" y="469" on="1"/>
        <pt x="139" y="434" on="0"/>
        <pt x="154" y="403" on="0"/>
        <pt x="163" y="393" on="1"/>
        <pt x="113" y="393" on="0"/>
        <pt x="56" y="434" on="0"/>
        <pt x="56" y="485" on="1"/>
        <pt x="56" y="538" on="0"/>
        <pt x="119" y="634" on="0"/>
        <pt x="219" y="707" on="0"/>
        <pt x="344" y="750" on="0"/>
        <pt x="406" y="750" on="1"/>
        <pt x="417" y="750" on="0"/>
        <pt x="437" y="749" on="0"/>
        <pt x="447" y="748" on="1"/>
      </contour>
      <contour>
        <pt x="444" y="1000" on="1"/>
        <pt x="529" y="1000" on="1"/>
        <pt x="408" y="811" on="1"/>
        <pt x="353" y="811" on="1"/>
      </contour>
    </TTGlyph>
    <TTGlyph name="Icircumflex" xMin="56" yMin="0" xMax="539" yMax="978">
      <contour>
        <pt x="288" y="0" on="1"/>
        <pt x="178" y="0" on="1"/>
        <pt x="325" y="692" on="1"/>
        <pt x="283" y="681" on="0"/>
        <pt x="215" y="642" on="0"/>
        <pt x="166" y="585" on="0"/>
        <pt x="139" y="512" on="0"/>
        <pt x="139" y="469" on="1"/>
        <pt x="139" y="434" on="0"/>
        <pt x="154" y="403" on="0"/>
        <pt x="163" y="393" on="1"/>
        <pt x="113" y="393" on="0"/>
        <pt x="56" y="434" on="0"/>
        <pt x="56" y="485" on="1"/>
        <pt x="56" y="538" on="0"/>
        <pt x="119" y="634" on="0"/>
        <pt x="219" y="707" on="0"/>
        <pt x="344" y="750" on="0"/>
        <pt x="406" y="750" on="1"/>
        <pt x="417" y="750" on="0"/>
        <pt x="437" y="749" on="0"/>
        <pt x="447" y="748" on="1"/>
      </contour>
      <contour>
        <pt x="517" y="811" on="1"/>
        <pt x="452" y="912" on="1"/>
        <pt x="290" y="811" on="1"/>
        <pt x="256" y="811" on="1"/>
        <pt x="457" y="978" on="1"/>
        <pt x="478" y="978" on="1"/>
        <pt x="539" y="811" on="1"/>
      </contour>
    </TTGlyph>
    <TTGlyph name="Idieresis" xMin="56" yMin="0" xMax="525" yMax="945">
      <contour>
        <pt x="288" y="0" on="1"/>
        <pt x="178" y="0" on="1"/>
        <pt x="325" y="692" on="1"/>
        <pt x="283" y="681" on="0"/>
        <pt x="215" y="642" on="0"/>
        <pt x="166" y="585" on="0"/>
        <pt x="139" y="512" on="0"/>
        <pt x="139" y="469" on="1"/>
        <pt x="139" y="434" on="0"/>
        <pt x="154" y="403" on="0"/>
        <pt x="163" y="393" on="1"/>
        <pt x="113" y="393" on="0"/>
        <pt x="56" y="434" on="0"/>
        <pt x="56" y="485" on="1"/>
        <pt x="56" y="538" on="0"/>
        <pt x="119" y="634" on="0"/>
        <pt x="219" y="707" on="0"/>
        <pt x="344" y="750" on="0"/>
        <pt x="406" y="750" on="1"/>
        <pt x="417" y="750" on="0"/>
        <pt x="437" y="749" on="0"/>
        <pt x="447" y="748" on="1"/>
      </contour>
      <contour>
        <pt x="420" y="892" on="1"/>
        <pt x="420" y="914" on="0"/>
        <pt x="450" y="945" on="0"/>
        <pt x="472" y="945" on="1"/>
        <pt x="494" y="945" on="0"/>
        <pt x="525" y="914" on="0"/>
        <pt x="525" y="892" on="1"/>
        <pt x="525" y="870" on="0"/>
        <pt x="494" y="840" on="0"/>
        <pt x="472" y="840" on="1"/>
        <pt x="450" y="840" on="0"/>
        <pt x="420" y="870" on="0"/>
      </contour>
      <contour>
        <pt x="256" y="892" on="1"/>
        <pt x="256" y="914" on="0"/>
        <pt x="286" y="945" on="0"/>
        <pt x="308" y="945" on="1"/>
        <pt x="330" y="945" on="0"/>
        <pt x="361" y="914" on="0"/>
        <pt x="361" y="892" on="1"/>
        <pt x="361" y="870" on="0"/>
        <pt x="330" y="840" on="0"/>
        <pt x="308" y="840" on="1"/>
        <pt x="286" y="840" on="0"/>
        <pt x="256" y="870" on="0"/>
      </contour>
    </TTGlyph>
    <TTGlyph name="Igrave" xMin="56" yMin="0" xMax="447" yMax="1000">
      <contour>
        <pt x="288" y="0" on="1"/>
        <pt x="178" y="0" on="1"/>
        <pt x="325" y="692" on="1"/>
        <pt x="283" y="681" on="0"/>
        <pt x="215" y="642" on="0"/>
        <pt x="166" y="585" on="0"/>
        <pt x="139" y="512" on="0"/>
        <pt x="139" y="469" on="1"/>
        <pt x="139" y="434" on="0"/>
        <pt x="154" y="403" on="0"/>
        <pt x="163" y="393" on="1"/>
        <pt x="113" y="393" on="0"/>
        <pt x="56" y="434" on="0"/>
        <pt x="56" y="485" on="1"/>
        <pt x="56" y="538" on="0"/>
        <pt x="119" y="634" on="0"/>
        <pt x="219" y="707" on="0"/>
        <pt x="344" y="750" on="0"/>
        <pt x="406" y="750" on="1"/>
        <pt x="417" y="750" on="0"/>
        <pt x="437" y="749" on="0"/>
        <pt x="447" y="748" on="1"/>
      </contour>
      <contour>
        <pt x="394" y="811" on="1"/>
        <pt x="339" y="811" on="1"/>
        <pt x="278" y="1000" on="1"/>
        <pt x="363" y="1000" on="1"/>
      </contour>
    </TTGlyph>
    <TTGlyph name="J" xMin="-72" yMin="-207" xMax="483" yMax="750">
      <contour>
        <pt x="483" y="750" on="1"/>
        <pt x="333" y="40" on="1"/>
        <pt x="321" y="-15" on="0"/>
        <pt x="282" y="-106" on="0"/>
        <pt x="222" y="-171" on="0"/>
        <pt x="139" y="-207" on="0"/>
        <pt x="83" y="-207" on="1"/>
        <pt x="40" y="-207" on="0"/>
        <pt x="-19" y="-186" on="0"/>
        <pt x="-56" y="-149" on="0"/>
        <pt x="-72" y="-100" on="0"/>
        <pt x="-72" y="-72" on="1"/>
        <pt x="-72" y="-44" on="0"/>
        <pt x="-56" y="7" on="0"/>
        <pt x="-23" y="45" on="0"/>
        <pt x="30" y="68" on="0"/>
        <pt x="67" y="68" on="1"/>
        <pt x="77" y="68" on="0"/>
        <pt x="104" y="64" on="0"/>
        <pt x="128" y="51" on="0"/>
        <pt x="145" y="24" on="0"/>
        <pt x="145" y="1" on="1"/>
        <pt x="145" y="-7" on="0"/>
        <pt x="139" y="-28" on="0"/>
        <pt x="136" y="-39" on="1"/>
        <pt x="126" y="-23" on="0"/>
        <pt x="91" y="-4" on="0"/>
        <pt x="77" y="-4" on="1"/>
        <pt x="59" y="-4" on="0"/>
        <pt x="30" y="-20" on="0"/>
        <pt x="10" y="-44" on="0"/>
        <pt x="-1" y="-74" on="0"/>
        <pt x="-1" y="-88" on="1"/>
        <pt x="-1" y="-121" on="0"/>
        <pt x="47" y="-167" on="0"/>
        <pt x="79" y="-167" on="1"/>
        <pt x="93" y="-167" on="0"/>
        <pt x="130" y="-154" on="0"/>
        <pt x="167" y="-124" on="0"/>
        <pt x="198" y="-73" on="0"/>
        <pt x="206" y="-34" on="1"/>
        <pt x="360" y="692" on="1"/>
        <pt x="272" y="672" on="0"/>
        <pt x="175" y="552" on="0"/>
        <pt x="175" y="471" on="1"/>
        <pt x="175" y="432" on="0"/>
        <pt x="191" y="400" on="0"/>
        <pt x="199" y="393" on="1"/>
        <pt x="149" y="393" on="0"/>
        <pt x="92" y="434" on="0"/>
        <pt x="92" y="485" on="1"/>
        <pt x="92" y="538" on="0"/>
        <pt x="155" y="634" on="0"/>
        <pt x="255" y="707" on="0"/>
        <pt x="380" y="750" on="0"/>
        <pt x="443" y="750" on="1"/>
      </contour>
    </TTGlyph>
    <TTGlyph name="K" xMin="56" yMin="-17" xMax="714" yMax="750">
      <contour>
        <pt x="378" y="425" on="1"/>
        <pt x="626" y="745" on="1"/>
        <pt x="714" y="745" on="1"/>
        <pt x="422" y="424" on="1"/>
        <pt x="435" y="425" on="0"/>
        <pt x="457" y="426" on="0"/>
        <pt x="465" y="426" on="1"/>
        <pt x="503" y="426" on="0"/>
        <pt x="553" y="410" on="0"/>
        <pt x="583" y="381" on="0"/>
        <pt x="595" y="341" on="0"/>
        <pt x="595" y="318" on="1"/>
        <pt x="595" y="288" on="0"/>
        <pt x="580" y="219" on="0"/>
        <pt x="561" y="152" on="0"/>
        <pt x="546" y="91" on="0"/>
        <pt x="546" y="68" on="1"/>
        <pt x="546" y="43" on="0"/>
        <pt x="567" y="7" on="0"/>
        <pt x="585" y="0" on="1"/>
        <pt x="553" y="-9" on="0"/>
        <pt x="514" y="-17" on="0"/>
        <pt x="496" y="-17" on="1"/>
        <pt x="458" y="-17" on="0"/>
        <pt x="425" y="25" on="0"/>
        <pt x="425" y="48" on="1"/>
        <pt x="425" y="74" on="0"/>
        <pt x="443" y="141" on="0"/>
        <pt x="465" y="212" on="0"/>
        <pt x="483" y="280" on="0"/>
        <pt x="483" y="307" on="1"/>
        <pt x="483" y="354" on="0"/>
        <pt x="442" y="388" on="0"/>
        <pt x="410" y="388" on="1"/>
        <pt x="392" y="388" on="0"/>
        <pt x="369" y="383" on="1"/>
        <pt x="288" y="0" on="1"/>
        <pt x="178" y="0" on="1"/>
        <pt x="326" y="692" on="1"/>
        <pt x="283" y="681" on="0"/>
        <pt x="212" y="642" on="0"/>
        <pt x="161" y="585" on="0"/>
        <pt x="133" y="512" on="0"/>
        <pt x="133" y="469" on="1"/>
        <pt x="133" y="434" on="0"/>
        <pt x="145" y="403" on="0"/>
        <pt x="154" y="393" on="1"/>
        <pt x="113" y="393" on="0"/>
        <pt x="56" y="435" on="0"/>
        <pt x="56" y="485" on="1"/>
        <pt x="56" y="538" on="0"/>
        <pt x="119" y="634" on="0"/>
        <pt x="219" y="707" on="0"/>
        <pt x="344" y="750" on="0"/>
        <pt x="406" y="750" on="1"/>
        <pt x="417" y="750" on="0"/>
        <pt x="437" y="749" on="0"/>
        <pt x="447" y="748" on="1"/>
      </contour>
    </TTGlyph>
    <TTGlyph name="L" xMin="54" yMin="-216" xMax="671" yMax="740">
      <contour>
        <pt x="291" y="19" on="1"/>
        <pt x="325" y="10" on="0"/>
        <pt x="395" y="-29" on="0"/>
        <pt x="468" y="-69" on="0"/>
        <pt x="545" y="-99" on="0"/>
        <pt x="588" y="-99" on="1"/>
        <pt x="607" y="-99" on="0"/>
        <pt x="648" y="-93" on="0"/>
        <pt x="671" y="-83" on="1"/>
        <pt x="663" y="-146" on="0"/>
        <pt x="610" y="-216" on="0"/>
        <pt x="560" y="-216" on="1"/>
        <pt x="534" y="-216" on="0"/>
        <pt x="480" y="-187" on="0"/>
        <pt x="423" y="-144" on="0"/>
        <pt x="363" y="-94" on="0"/>
        <pt x="300" y="-51" on="0"/>
        <pt x="233" y="-22" on="0"/>
        <pt x="197" y="-22" on="1"/>
        <pt x="191" y="-22" on="0"/>
        <pt x="180" y="-22" on="0"/>
        <pt x="174" y="-23" on="1"/>
        <pt x="324" y="682" on="1"/>
        <pt x="240" y="661" on="0"/>
        <pt x="137" y="546" on="0"/>
        <pt x="137" y="459" on="1"/>
        <pt x="137" y="424" on="0"/>
        <pt x="152" y="393" on="0"/>
        <pt x="161" y="383" on="1"/>
        <pt x="111" y="383" on="0"/>
        <pt x="54" y="424" on="0"/>
        <pt x="54" y="475" on="1"/>
        <pt x="54" y="528" on="0"/>
        <pt x="117" y="624" on="0"/>
        <pt x="217" y="697" on="0"/>
        <pt x="342" y="740" on="0"/>
        <pt x="404" y="740" on="1"/>
        <pt x="415" y="740" on="0"/>
        <pt x="435" y="739" on="0"/>
        <pt x="445" y="738" on="1"/>
      </contour>
    </TTGlyph>
    <TTGlyph name="Lslash" xMin="54" yMin="-226" xMax="711" yMax="740">
      <contour>
        <pt x="387" y="466" on="1"/>
        <pt x="506" y="544" on="1"/>
        <pt x="503" y="500" on="1"/>
        <pt x="376" y="417" on="1"/>
        <pt x="291" y="20" on="1"/>
        <pt x="330" y="11" on="0"/>
        <pt x="408" y="-31" on="0"/>
        <pt x="491" y="-75" on="0"/>
        <pt x="579" y="-109" on="0"/>
        <pt x="628" y="-109" on="1"/>
        <pt x="647" y="-109" on="0"/>
        <pt x="689" y="-102" on="0"/>
        <pt x="711" y="-93" on="1"/>
        <pt x="703" y="-156" on="0"/>
        <pt x="650" y="-226" on="0"/>
        <pt x="600" y="-226" on="1"/>
        <pt x="571" y="-226" on="0"/>
        <pt x="511" y="-196" on="0"/>
        <pt x="448" y="-150" on="0"/>
        <pt x="382" y="-98" on="0"/>
        <pt x="312" y="-52" on="0"/>
        <pt x="237" y="-22" on="0"/>
        <pt x="197" y="-22" on="1"/>
        <pt x="191" y="-22" on="0"/>
        <pt x="180" y="-22" on="0"/>
        <pt x="174" y="-23" on="1"/>
        <pt x="250" y="335" on="1"/>
        <pt x="143" y="266" on="1"/>
        <pt x="145" y="309" on="1"/>
        <pt x="260" y="384" on="1"/>
        <pt x="324" y="682" on="1"/>
        <pt x="240" y="661" on="0"/>
        <pt x="137" y="546" on="0"/>
        <pt x="137" y="459" on="1"/>
        <pt x="137" y="424" on="0"/>
        <pt x="152" y="393" on="0"/>
        <pt x="161" y="383" on="1"/>
        <pt x="111" y="383" on="0"/>
        <pt x="54" y="424" on="0"/>
        <pt x="54" y="475" on="1"/>
        <pt x="54" y="528" on="0"/>
        <pt x="117" y="624" on="0"/>
        <pt x="217" y="697" on="0"/>
        <pt x="342" y="740" on="0"/>
        <pt x="404" y="740" on="1"/>
        <pt x="415" y="740" on="0"/>
        <pt x="435" y="739" on="0"/>
        <pt x="445" y="738" on="1"/>
      </contour>
    </TTGlyph>
    <TTGlyph name="M" xMin="57" yMin="0" xMax="754" yMax="750">
      <contour>
        <pt x="397" y="155" on="1"/>
        <pt x="640" y="736" on="1"/>
        <pt x="754" y="736" on="1"/>
        <pt x="649" y="0" on="1"/>
        <pt x="535" y="0" on="1"/>
        <pt x="609" y="522" on="1"/>
        <pt x="391" y="0" on="1"/>
        <pt x="284" y="0" on="1"/>
        <pt x="307" y="512" on="1"/>
        <pt x="117" y="0" on="1"/>
        <pt x="57" y="0" on="1"/>
        <pt x="316" y="700" on="1"/>
        <pt x="231" y="682" on="0"/>
        <pt x="142" y="557" on="0"/>
        <pt x="142" y="462" on="1"/>
        <pt x="142" y="426" on="0"/>
        <pt x="151" y="400" on="0"/>
        <pt x="156" y="393" on="1"/>
        <pt x="112" y="393" on="0"/>
        <pt x="59" y="434" on="0"/>
        <pt x="59" y="483" on="1"/>
        <pt x="59" y="517" on="0"/>
        <pt x="88" y="583" on="0"/>
        <pt x="135" y="643" on="0"/>
        <pt x="198" y="693" on="0"/>
        <pt x="265" y="729" on="0"/>
        <pt x="334" y="750" on="0"/>
        <pt x="364" y="750" on="1"/>
        <pt x="381" y="750" on="0"/>
        <pt x="411" y="744" on="0"/>
        <pt x="423" y="736" on="1"/>
      </contour>
    </TTGlyph>
    <TTGlyph name="N" xMin="60" yMin="0" xMax="759" yMax="750">
      <contour>
        <pt x="759" y="748" on="1"/>
        <pt x="589" y="0" on="1"/>
        <pt x="461" y="0" on="1"/>
        <pt x="335" y="539" on="1"/>
        <pt x="211" y="0" on="1"/>
        <pt x="136" y="0" on="1"/>
        <pt x="293" y="691" on="1"/>
        <pt x="220" y="670" on="0"/>
        <pt x="133" y="561" on="0"/>
        <pt x="133" y="469" on="1"/>
        <pt x="133" y="434" on="0"/>
        <pt x="149" y="403" on="0"/>
        <pt x="157" y="393" on="1"/>
        <pt x="109" y="393" on="0"/>
        <pt x="60" y="436" on="0"/>
        <pt x="60" y="490" on="1"/>
        <pt x="60" y="535" on="0"/>
        <pt x="105" y="627" on="0"/>
        <pt x="181" y="702" on="0"/>
        <pt x="282" y="750" on="0"/>
        <pt x="339" y="750" on="1"/>
        <pt x="356" y="750" on="0"/>
        <pt x="390" y="744" on="0"/>
        <pt x="406" y="736" on="1"/>
        <pt x="543" y="114" on="1"/>
        <pt x="682" y="748" on="1"/>
      </contour>
    </TTGlyph>
    <TTGlyph name="N.salt" xMin="56" yMin="-6" xMax="743" yMax="750">
      <contour>
        <pt x="428" y="662" on="1"/>
        <pt x="456" y="704" on="0"/>
        <pt x="533" y="750" on="0"/>
        <pt x="575" y="750" on="1"/>
        <pt x="604" y="750" on="0"/>
        <pt x="649" y="729" on="0"/>
        <pt x="680" y="693" on="0"/>
        <pt x="696" y="645" on="0"/>
        <pt x="696" y="618" on="1"/>
        <pt x="696" y="594" on="0"/>
        <pt x="681" y="516" on="0"/>
        <pt x="659" y="421" on="0"/>
        <pt x="633" y="318" on="0"/>
        <pt x="611" y="222" on="0"/>
        <pt x="596" y="141" on="0"/>
        <pt x="596" y="115" on="1"/>
        <pt x="596" y="94" on="0"/>
        <pt x="610" y="70" on="0"/>
        <pt x="620" y="70" on="1"/>
        <pt x="633" y="70" on="0"/>
        <pt x="663" y="89" on="0"/>
        <pt x="690" y="121" on="0"/>
        <pt x="713" y="159" on="0"/>
        <pt x="719" y="179" on="1"/>
        <pt x="743" y="179" on="1"/>
        <pt x="722" y="117" on="0"/>
        <pt x="675" y="44" on="0"/>
        <pt x="629" y="6" on="0"/>
        <pt x="586" y="-6" on="0"/>
        <pt x="568" y="-6" on="1"/>
        <pt x="523" y="-6" on="0"/>
        <pt x="481" y="43" on="0"/>
        <pt x="481" y="88" on="1"/>
        <pt x="481" y="117" on="0"/>
        <pt x="496" y="201" on="0"/>
        <pt x="517" y="297" on="0"/>
        <pt x="543" y="399" on="0"/>
        <pt x="564" y="493" on="0"/>
        <pt x="579" y="572" on="0"/>
        <pt x="579" y="598" on="1"/>
        <pt x="579" y="637" on="0"/>
        <pt x="545" y="677" on="0"/>
        <pt x="520" y="677" on="1"/>
        <pt x="489" y="677" on="0"/>
        <pt x="423" y="619" on="0"/>
        <pt x="408" y="567" on="1"/>
        <pt x="288" y="0" on="1"/>
        <pt x="178" y="0" on="1"/>
        <pt x="325" y="692" on="1"/>
        <pt x="283" y="681" on="0"/>
        <pt x="215" y="642" on="0"/>
        <pt x="166" y="585" on="0"/>
        <pt x="139" y="512" on="0"/>
        <pt x="139" y="469" on="1"/>
        <pt x="139" y="434" on="0"/>
        <pt x="154" y="403" on="0"/>
        <pt x="163" y="393" on="1"/>
        <pt x="113" y="393" on="0"/>
        <pt x="56" y="434" on="0"/>
        <pt x="56" y="485" on="1"/>
        <pt x="56" y="538" on="0"/>
        <pt x="119" y="634" on="0"/>
        <pt x="219" y="707" on="0"/>
        <pt x="344" y="750" on="0"/>
        <pt x="406" y="750" on="1"/>
        <pt x="417" y="750" on="0"/>
        <pt x="437" y="749" on="0"/>
        <pt x="447" y="748" on="1"/>
      </contour>
    </TTGlyph>
    <TTGlyph name="Nacute" xMin="60" yMin="0" xMax="759" yMax="1000">
      <contour>
        <pt x="759" y="748" on="1"/>
        <pt x="589" y="0" on="1"/>
        <pt x="461" y="0" on="1"/>
        <pt x="335" y="539" on="1"/>
        <pt x="211" y="0" on="1"/>
        <pt x="136" y="0" on="1"/>
        <pt x="293" y="691" on="1"/>
        <pt x="220" y="670" on="0"/>
        <pt x="133" y="561" on="0"/>
        <pt x="133" y="469" on="1"/>
        <pt x="133" y="434" on="0"/>
        <pt x="149" y="403" on="0"/>
        <pt x="157" y="393" on="1"/>
        <pt x="109" y="393" on="0"/>
        <pt x="60" y="436" on="0"/>
        <pt x="60" y="490" on="1"/>
        <pt x="60" y="535" on="0"/>
        <pt x="105" y="627" on="0"/>
        <pt x="181" y="702" on="0"/>
        <pt x="282" y="750" on="0"/>
        <pt x="339" y="750" on="1"/>
        <pt x="356" y="750" on="0"/>
        <pt x="390" y="744" on="0"/>
        <pt x="406" y="736" on="1"/>
        <pt x="543" y="114" on="1"/>
        <pt x="682" y="748" on="1"/>
      </contour>
      <contour>
        <pt x="641" y="1000" on="1"/>
        <pt x="726" y="1000" on="1"/>
        <pt x="605" y="811" on="1"/>
        <pt x="550" y="811" on="1"/>
      </contour>
    </TTGlyph>
    <TTGlyph name="Ntilde" xMin="60" yMin="0" xMax="759" yMax="924">
      <contour>
        <pt x="759" y="748" on="1"/>
        <pt x="589" y="0" on="1"/>
        <pt x="461" y="0" on="1"/>
        <pt x="335" y="539" on="1"/>
        <pt x="211" y="0" on="1"/>
        <pt x="136" y="0" on="1"/>
        <pt x="293" y="691" on="1"/>
        <pt x="220" y="670" on="0"/>
        <pt x="133" y="561" on="0"/>
        <pt x="133" y="469" on="1"/>
        <pt x="133" y="434" on="0"/>
        <pt x="149" y="403" on="0"/>
        <pt x="157" y="393" on="1"/>
        <pt x="109" y="393" on="0"/>
        <pt x="60" y="436" on="0"/>
        <pt x="60" y="490" on="1"/>
        <pt x="60" y="535" on="0"/>
        <pt x="105" y="627" on="0"/>
        <pt x="181" y="702" on="0"/>
        <pt x="282" y="750" on="0"/>
        <pt x="339" y="750" on="1"/>
        <pt x="356" y="750" on="0"/>
        <pt x="390" y="744" on="0"/>
        <pt x="406" y="736" on="1"/>
        <pt x="543" y="114" on="1"/>
        <pt x="682" y="748" on="1"/>
      </contour>
      <contour>
        <pt x="729" y="915" on="1"/>
        <pt x="725" y="899" on="0"/>
        <pt x="698" y="867" on="0"/>
        <pt x="658" y="841" on="0"/>
        <pt x="609" y="825" on="0"/>
        <pt x="584" y="825" on="1"/>
        <pt x="562" y="825" on="0"/>
        <pt x="523" y="835" on="0"/>
        <pt x="487" y="848" on="0"/>
        <pt x="451" y="858" on="0"/>
        <pt x="433" y="858" on="1"/>
        <pt x="398" y="858" on="0"/>
        <pt x="373" y="834" on="1"/>
        <pt x="368" y="836" on="1"/>
        <pt x="390" y="880" on="0"/>
        <pt x="467" y="924" on="0"/>
        <pt x="518" y="924" on="1"/>
        <pt x="543" y="924" on="0"/>
        <pt x="581" y="915" on="0"/>
        <pt x="615" y="904" on="0"/>
        <pt x="647" y="895" on="0"/>
        <pt x="667" y="895" on="1"/>
        <pt x="684" y="895" on="0"/>
        <pt x="714" y="905" on="0"/>
        <pt x="724" y="915" on="1"/>
      </contour>
    </TTGlyph>
    <TTGlyph name="O" xMin="54" yMin="-6" xMax="694" yMax="750">
      <contour>
        <pt x="469" y="656" on="1"/>
        <pt x="443" y="642" on="0"/>
        <pt x="392" y="584" on="0"/>
        <pt x="347" y="506" on="0"/>
        <pt x="309" y="415" on="0"/>
        <pt x="281" y="321" on="0"/>
        <pt x="266" y="229" on="0"/>
        <pt x="266" y="191" on="1"/>
        <pt x="266" y="134" on="0"/>
        <pt x="305" y="70" on="0"/>
        <pt x="354" y="70" on="1"/>
        <pt x="395" y="70" on="0"/>
        <pt x="476" y="154" on="0"/>
        <pt x="541" y="288" on="0"/>
        <pt x="581" y="455" on="0"/>
        <pt x="581" y="539" on="1"/>
        <pt x="581" y="585" on="0"/>
        <pt x="566" y="652" on="0"/>
        <pt x="531" y="694" on="0"/>
        <pt x="472" y="714" on="0"/>
        <pt x="428" y="714" on="1"/>
        <pt x="372" y="714" on="0"/>
        <pt x="267" y="677" on="0"/>
        <pt x="185" y="608" on="0"/>
        <pt x="135" y="509" on="0"/>
        <pt x="135" y="448" on="1"/>
        <pt x="135" y="422" on="0"/>
        <pt x="139" y="401" on="0"/>
        <pt x="145" y="393" on="1"/>
        <pt x="102" y="393" on="0"/>
        <pt x="54" y="431" on="0"/>
        <pt x="54" y="477" on="1"/>
        <pt x="54" y="529" on="0"/>
        <pt x="121" y="628" on="0"/>
        <pt x="232" y="704" on="0"/>
        <pt x="376" y="750" on="0"/>
        <pt x="452" y="750" on="1"/>
        <pt x="519" y="750" on="0"/>
        <pt x="612" y="713" on="0"/>
        <pt x="669" y="645" on="0"/>
        <pt x="694" y="552" on="0"/>
        <pt x="694" y="497" on="1"/>
        <pt x="694" y="448" on="0"/>
        <pt x="676" y="335" on="0"/>
        <pt x="637" y="224" on="0"/>
        <pt x="578" y="120" on="0"/>
        <pt x="497" y="41" on="0"/>
        <pt x="392" y="-6" on="0"/>
        <pt x="328" y="-6" on="1"/>
        <pt x="287" y="-6" on="0"/>
        <pt x="220" y="16" on="0"/>
        <pt x="172" y="64" on="0"/>
        <pt x="146" y="140" on="0"/>
        <pt x="146" y="195" on="1"/>
        <pt x="146" y="235" on="0"/>
        <pt x="161" y="336" on="0"/>
        <pt x="191" y="441" on="0"/>
        <pt x="236" y="540" on="0"/>
        <pt x="297" y="617" on="0"/>
        <pt x="372" y="664" on="0"/>
        <pt x="418" y="664" on="1"/>
        <pt x="429" y="664" on="0"/>
        <pt x="455" y="661" on="0"/>
      </contour>
    </TTGlyph>
    <TTGlyph name="OE" xMin="54" yMin="-6" xMax="950" yMax="750">
      <contour>
        <pt x="469" y="656" on="1"/>
        <pt x="443" y="642" on="0"/>
        <pt x="392" y="584" on="0"/>
        <pt x="347" y="506" on="0"/>
        <pt x="309" y="415" on="0"/>
        <pt x="281" y="321" on="0"/>
        <pt x="266" y="229" on="0"/>
        <pt x="266" y="191" on="1"/>
        <pt x="266" y="134" on="0"/>
        <pt x="305" y="70" on="0"/>
        <pt x="354" y="70" on="1"/>
        <pt x="395" y="70" on="0"/>
        <pt x="476" y="154" on="0"/>
        <pt x="541" y="288" on="0"/>
        <pt x="581" y="455" on="0"/>
        <pt x="581" y="539" on="1"/>
        <pt x="581" y="585" on="0"/>
        <pt x="566" y="652" on="0"/>
        <pt x="531" y="694" on="0"/>
        <pt x="472" y="714" on="0"/>
        <pt x="428" y="714" on="1"/>
        <pt x="372" y="714" on="0"/>
        <pt x="267" y="677" on="0"/>
        <pt x="185" y="608" on="0"/>
        <pt x="135" y="509" on="0"/>
        <pt x="135" y="448" on="1"/>
        <pt x="135" y="422" on="0"/>
        <pt x="139" y="401" on="0"/>
        <pt x="145" y="393" on="1"/>
        <pt x="102" y="393" on="0"/>
        <pt x="54" y="431" on="0"/>
        <pt x="54" y="477" on="1"/>
        <pt x="54" y="529" on="0"/>
        <pt x="121" y="628" on="0"/>
        <pt x="232" y="704" on="0"/>
        <pt x="376" y="750" on="0"/>
        <pt x="452" y="750" on="1"/>
        <pt x="486" y="750" on="0"/>
        <pt x="543" y="740" on="0"/>
        <pt x="567" y="731" on="1"/>
        <pt x="591" y="739" on="0"/>
        <pt x="645" y="750" on="0"/>
        <pt x="680" y="750" on="1"/>
        <pt x="706" y="750" on="0"/>
        <pt x="749" y="746" on="0"/>
        <pt x="791" y="742" on="0"/>
        <pt x="834" y="738" on="0"/>
        <pt x="859" y="738" on="1"/>
        <pt x="884" y="738" on="0"/>
        <pt x="929" y="743" on="0"/>
        <pt x="950" y="750" on="1"/>
        <pt x="941" y="715" on="0"/>
        <pt x="917" y="674" on="0"/>
        <pt x="889" y="653" on="0"/>
        <pt x="856" y="646" on="0"/>
        <pt x="839" y="646" on="1"/>
        <pt x="790" y="646" on="0"/>
        <pt x="689" y="669" on="0"/>
        <pt x="641" y="677" on="1"/>
        <pt x="669" y="644" on="0"/>
        <pt x="694" y="552" on="0"/>
        <pt x="694" y="497" on="1"/>
        <pt x="694" y="456" on="0"/>
        <pt x="688" y="413" on="1"/>
        <pt x="817" y="413" on="1"/>
        <pt x="803" y="354" on="1"/>
        <pt x="677" y="354" on="1"/>
        <pt x="660" y="275" on="0"/>
        <pt x="586" y="123" on="0"/>
        <pt x="526" y="70" on="1"/>
        <pt x="799" y="70" on="1"/>
        <pt x="784" y="0" on="1"/>
        <pt x="388" y="0" on="1"/>
        <pt x="359" y="-6" on="0"/>
        <pt x="328" y="-6" on="1"/>
        <pt x="287" y="-6" on="0"/>
        <pt x="220" y="16" on="0"/>
        <pt x="172" y="64" on="0"/>
        <pt x="146" y="140" on="0"/>
        <pt x="146" y="195" on="1"/>
        <pt x="146" y="235" on="0"/>
        <pt x="161" y="336" on="0"/>
        <pt x="191" y="441" on="0"/>
        <pt x="236" y="540" on="0"/>
        <pt x="297" y="617" on="0"/>
        <pt x="372" y="664" on="0"/>
        <pt x="418" y="664" on="1"/>
        <pt x="429" y="664" on="0"/>
        <pt x="455" y="661" on="0"/>
      </contour>
    </TTGlyph>
    <TTGlyph name="Oacute" xMin="54" yMin="-6" xMax="694" yMax="1000">
      <contour>
        <pt x="469" y="656" on="1"/>
        <pt x="443" y="642" on="0"/>
        <pt x="392" y="584" on="0"/>
        <pt x="347" y="506" on="0"/>
        <pt x="309" y="415" on="0"/>
        <pt x="281" y="321" on="0"/>
        <pt x="266" y="229" on="0"/>
        <pt x="266" y="191" on="1"/>
        <pt x="266" y="134" on="0"/>
        <pt x="305" y="70" on="0"/>
        <pt x="354" y="70" on="1"/>
        <pt x="395" y="70" on="0"/>
        <pt x="476" y="154" on="0"/>
        <pt x="541" y="288" on="0"/>
        <pt x="581" y="455" on="0"/>
        <pt x="581" y="539" on="1"/>
        <pt x="581" y="585" on="0"/>
        <pt x="566" y="652" on="0"/>
        <pt x="531" y="694" on="0"/>
        <pt x="472" y="714" on="0"/>
        <pt x="428" y="714" on="1"/>
        <pt x="372" y="714" on="0"/>
        <pt x="267" y="677" on="0"/>
        <pt x="185" y="608" on="0"/>
        <pt x="135" y="509" on="0"/>
        <pt x="135" y="448" on="1"/>
        <pt x="135" y="422" on="0"/>
        <pt x="139" y="401" on="0"/>
        <pt x="145" y="393" on="1"/>
        <pt x="102" y="393" on="0"/>
        <pt x="54" y="431" on="0"/>
        <pt x="54" y="477" on="1"/>
        <pt x="54" y="529" on="0"/>
        <pt x="121" y="628" on="0"/>
        <pt x="232" y="704" on="0"/>
        <pt x="376" y="750" on="0"/>
        <pt x="452" y="750" on="1"/>
        <pt x="519" y="750" on="0"/>
        <pt x="612" y="713" on="0"/>
        <pt x="669" y="645" on="0"/>
        <pt x="694" y="552" on="0"/>
        <pt x="694" y="497" on="1"/>
        <pt x="694" y="448" on="0"/>
        <pt x="676" y="335" on="0"/>
        <pt x="637" y="224" on="0"/>
        <pt x="578" y="120" on="0"/>
        <pt x="497" y="41" on="0"/>
        <pt x="392" y="-6" on="0"/>
        <pt x="328" y="-6" on="1"/>
        <pt x="287" y="-6" on="0"/>
        <pt x="220" y="16" on="0"/>
        <pt x="172" y="64" on="0"/>
        <pt x="146" y="140" on="0"/>
        <pt x="146" y="195" on="1"/>
        <pt x="146" y="235" on="0"/>
        <pt x="161" y="336" on="0"/>
        <pt x="191" y="441" on="0"/>
        <pt x="236" y="540" on="0"/>
        <pt x="297" y="617" on="0"/>
        <pt x="372" y="664" on="0"/>
        <pt x="418" y="664" on="1"/>
        <pt x="429" y="664" on="0"/>
        <pt x="455" y="661" on="0"/>
      </contour>
      <contour>
        <pt x="557" y="1000" on="1"/>
        <pt x="642" y="1000" on="1"/>
        <pt x="521" y="811" on="1"/>
        <pt x="466" y="811" on="1"/>
      </contour>
    </TTGlyph>
    <TTGlyph name="Ocircumflex" xMin="54" yMin="-6" xMax="694" yMax="978">
      <contour>
        <pt x="469" y="656" on="1"/>
        <pt x="443" y="642" on="0"/>
        <pt x="392" y="584" on="0"/>
        <pt x="347" y="506" on="0"/>
        <pt x="309" y="415" on="0"/>
        <pt x="281" y="321" on="0"/>
        <pt x="266" y="229" on="0"/>
        <pt x="266" y="191" on="1"/>
        <pt x="266" y="134" on="0"/>
        <pt x="305" y="70" on="0"/>
        <pt x="354" y="70" on="1"/>
        <pt x="395" y="70" on="0"/>
        <pt x="476" y="154" on="0"/>
        <pt x="541" y="288" on="0"/>
        <pt x="581" y="455" on="0"/>
        <pt x="581" y="539" on="1"/>
        <pt x="581" y="585" on="0"/>
        <pt x="566" y="652" on="0"/>
        <pt x="531" y="694" on="0"/>
        <pt x="472" y="714" on="0"/>
        <pt x="428" y="714" on="1"/>
        <pt x="372" y="714" on="0"/>
        <pt x="267" y="677" on="0"/>
        <pt x="185" y="608" on="0"/>
        <pt x="135" y="509" on="0"/>
        <pt x="135" y="448" on="1"/>
        <pt x="135" y="422" on="0"/>
        <pt x="139" y="401" on="0"/>
        <pt x="145" y="393" on="1"/>
        <pt x="102" y="393" on="0"/>
        <pt x="54" y="431" on="0"/>
        <pt x="54" y="477" on="1"/>
        <pt x="54" y="529" on="0"/>
        <pt x="121" y="628" on="0"/>
        <pt x="232" y="704" on="0"/>
        <pt x="376" y="750" on="0"/>
        <pt x="452" y="750" on="1"/>
        <pt x="519" y="750" on="0"/>
        <pt x="612" y="713" on="0"/>
        <pt x="669" y="645" on="0"/>
        <pt x="694" y="552" on="0"/>
        <pt x="694" y="497" on="1"/>
        <pt x="694" y="448" on="0"/>
        <pt x="676" y="335" on="0"/>
        <pt x="637" y="224" on="0"/>
        <pt x="578" y="120" on="0"/>
        <pt x="497" y="41" on="0"/>
        <pt x="392" y="-6" on="0"/>
        <pt x="328" y="-6" on="1"/>
        <pt x="287" y="-6" on="0"/>
        <pt x="220" y="16" on="0"/>
        <pt x="172" y="64" on="0"/>
        <pt x="146" y="140" on="0"/>
        <pt x="146" y="195" on="1"/>
        <pt x="146" y="235" on="0"/>
        <pt x="161" y="336" on="0"/>
        <pt x="191" y="441" on="0"/>
        <pt x="236" y="540" on="0"/>
        <pt x="297" y="617" on="0"/>
        <pt x="372" y="664" on="0"/>
        <pt x="418" y="664" on="1"/>
        <pt x="429" y="664" on="0"/>
        <pt x="455" y="661" on="0"/>
      </contour>
      <contour>
        <pt x="616" y="811" on="1"/>
        <pt x="551" y="912" on="1"/>
        <pt x="389" y="811" on="1"/>
        <pt x="355" y="811" on="1"/>
        <pt x="556" y="978" on="1"/>
        <pt x="577" y="978" on="1"/>
        <pt x="638" y="811" on="1"/>
      </contour>
    </TTGlyph>
    <TTGlyph name="Odieresis" xMin="54" yMin="-6" xMax="694" yMax="945">
      <contour>
        <pt x="469" y="656" on="1"/>
        <pt x="443" y="642" on="0"/>
        <pt x="392" y="584" on="0"/>
        <pt x="347" y="506" on="0"/>
        <pt x="309" y="415" on="0"/>
        <pt x="281" y="321" on="0"/>
        <pt x="266" y="229" on="0"/>
        <pt x="266" y="191" on="1"/>
        <pt x="266" y="134" on="0"/>
        <pt x="305" y="70" on="0"/>
        <pt x="354" y="70" on="1"/>
        <pt x="395" y="70" on="0"/>
        <pt x="476" y="154" on="0"/>
        <pt x="541" y="288" on="0"/>
        <pt x="581" y="455" on="0"/>
        <pt x="581" y="539" on="1"/>
        <pt x="581" y="585" on="0"/>
        <pt x="566" y="652" on="0"/>
        <pt x="531" y="694" on="0"/>
        <pt x="472" y="714" on="0"/>
        <pt x="428" y="714" on="1"/>
        <pt x="372" y="714" on="0"/>
        <pt x="267" y="677" on="0"/>
        <pt x="185" y="608" on="0"/>
        <pt x="135" y="509" on="0"/>
        <pt x="135" y="448" on="1"/>
        <pt x="135" y="422" on="0"/>
        <pt x="139" y="401" on="0"/>
        <pt x="145" y="393" on="1"/>
        <pt x="102" y="393" on="0"/>
        <pt x="54" y="431" on="0"/>
        <pt x="54" y="477" on="1"/>
        <pt x="54" y="529" on="0"/>
        <pt x="121" y="628" on="0"/>
        <pt x="232" y="704" on="0"/>
        <pt x="376" y="750" on="0"/>
        <pt x="452" y="750" on="1"/>
        <pt x="519" y="750" on="0"/>
        <pt x="612" y="713" on="0"/>
        <pt x="669" y="645" on="0"/>
        <pt x="694" y="552" on="0"/>
        <pt x="694" y="497" on="1"/>
        <pt x="694" y="448" on="0"/>
        <pt x="676" y="335" on="0"/>
        <pt x="637" y="224" on="0"/>
        <pt x="578" y="120" on="0"/>
        <pt x="497" y="41" on="0"/>
        <pt x="392" y="-6" on="0"/>
        <pt x="328" y="-6" on="1"/>
        <pt x="287" y="-6" on="0"/>
        <pt x="220" y="16" on="0"/>
        <pt x="172" y="64" on="0"/>
        <pt x="146" y="140" on="0"/>
        <pt x="146" y="195" on="1"/>
        <pt x="146" y="235" on="0"/>
        <pt x="161" y="336" on="0"/>
        <pt x="191" y="441" on="0"/>
        <pt x="236" y="540" on="0"/>
        <pt x="297" y="617" on="0"/>
        <pt x="372" y="664" on="0"/>
        <pt x="418" y="664" on="1"/>
        <pt x="429" y="664" on="0"/>
        <pt x="455" y="661" on="0"/>
      </contour>
      <contour>
        <pt x="405" y="892" on="1"/>
        <pt x="405" y="914" on="0"/>
        <pt x="435" y="945" on="0"/>
        <pt x="457" y="945" on="1"/>
        <pt x="479" y="945" on="0"/>
        <pt x="510" y="914" on="0"/>
        <pt x="510" y="892" on="1"/>
        <pt x="510" y="870" on="0"/>
        <pt x="479" y="840" on="0"/>
        <pt x="457" y="840" on="1"/>
        <pt x="435" y="840" on="0"/>
        <pt x="405" y="870" on="0"/>
      </contour>
      <contour>
        <pt x="569" y="892" on="1"/>
        <pt x="569" y="914" on="0"/>
        <pt x="599" y="945" on="0"/>
        <pt x="621" y="945" on="1"/>
        <pt x="643" y="945" on="0"/>
        <pt x="674" y="914" on="0"/>
        <pt x="674" y="892" on="1"/>
        <pt x="674" y="870" on="0"/>
        <pt x="643" y="840" on="0"/>
        <pt x="621" y="840" on="1"/>
        <pt x="599" y="840" on="0"/>
        <pt x="569" y="870" on="0"/>
      </contour>
    </TTGlyph>
    <TTGlyph name="Ograve" xMin="54" yMin="-6" xMax="694" yMax="1000">
      <contour>
        <pt x="469" y="656" on="1"/>
        <pt x="443" y="642" on="0"/>
        <pt x="392" y="584" on="0"/>
        <pt x="347" y="506" on="0"/>
        <pt x="309" y="415" on="0"/>
        <pt x="281" y="321" on="0"/>
        <pt x="266" y="229" on="0"/>
        <pt x="266" y="191" on="1"/>
        <pt x="266" y="134" on="0"/>
        <pt x="305" y="70" on="0"/>
        <pt x="354" y="70" on="1"/>
        <pt x="395" y="70" on="0"/>
        <pt x="476" y="154" on="0"/>
        <pt x="541" y="288" on="0"/>
        <pt x="581" y="455" on="0"/>
        <pt x="581" y="539" on="1"/>
        <pt x="581" y="585" on="0"/>
        <pt x="566" y="652" on="0"/>
        <pt x="531" y="694" on="0"/>
        <pt x="472" y="714" on="0"/>
        <pt x="428" y="714" on="1"/>
        <pt x="372" y="714" on="0"/>
        <pt x="267" y="677" on="0"/>
        <pt x="185" y="608" on="0"/>
        <pt x="135" y="509" on="0"/>
        <pt x="135" y="448" on="1"/>
        <pt x="135" y="422" on="0"/>
        <pt x="139" y="401" on="0"/>
        <pt x="145" y="393" on="1"/>
        <pt x="102" y="393" on="0"/>
        <pt x="54" y="431" on="0"/>
        <pt x="54" y="477" on="1"/>
        <pt x="54" y="529" on="0"/>
        <pt x="121" y="628" on="0"/>
        <pt x="232" y="704" on="0"/>
        <pt x="376" y="750" on="0"/>
        <pt x="452" y="750" on="1"/>
        <pt x="519" y="750" on="0"/>
        <pt x="612" y="713" on="0"/>
        <pt x="669" y="645" on="0"/>
        <pt x="694" y="552" on="0"/>
        <pt x="694" y="497" on="1"/>
        <pt x="694" y="448" on="0"/>
        <pt x="676" y="335" on="0"/>
        <pt x="637" y="224" on="0"/>
        <pt x="578" y="120" on="0"/>
        <pt x="497" y="41" on="0"/>
        <pt x="392" y="-6" on="0"/>
        <pt x="328" y="-6" on="1"/>
        <pt x="287" y="-6" on="0"/>
        <pt x="220" y="16" on="0"/>
        <pt x="172" y="64" on="0"/>
        <pt x="146" y="140" on="0"/>
        <pt x="146" y="195" on="1"/>
        <pt x="146" y="235" on="0"/>
        <pt x="161" y="336" on="0"/>
        <pt x="191" y="441" on="0"/>
        <pt x="236" y="540" on="0"/>
        <pt x="297" y="617" on="0"/>
        <pt x="372" y="664" on="0"/>
        <pt x="418" y="664" on="1"/>
        <pt x="429" y="664" on="0"/>
        <pt x="455" y="661" on="0"/>
      </contour>
      <contour>
        <pt x="497" y="811" on="1"/>
        <pt x="442" y="811" on="1"/>
        <pt x="381" y="1000" on="1"/>
        <pt x="466" y="1000" on="1"/>
      </contour>
    </TTGlyph>
    <TTGlyph name="Ohungarumlaut" xMin="54" yMin="-6" xMax="738" yMax="1000">
      <contour>
        <pt x="469" y="656" on="1"/>
        <pt x="443" y="642" on="0"/>
        <pt x="392" y="584" on="0"/>
        <pt x="347" y="506" on="0"/>
        <pt x="309" y="415" on="0"/>
        <pt x="281" y="321" on="0"/>
        <pt x="266" y="229" on="0"/>
        <pt x="266" y="191" on="1"/>
        <pt x="266" y="134" on="0"/>
        <pt x="305" y="70" on="0"/>
        <pt x="354" y="70" on="1"/>
        <pt x="395" y="70" on="0"/>
        <pt x="476" y="154" on="0"/>
        <pt x="541" y="288" on="0"/>
        <pt x="581" y="455" on="0"/>
        <pt x="581" y="539" on="1"/>
        <pt x="581" y="585" on="0"/>
        <pt x="566" y="652" on="0"/>
        <pt x="531" y="694" on="0"/>
        <pt x="472" y="714" on="0"/>
        <pt x="428" y="714" on="1"/>
        <pt x="372" y="714" on="0"/>
        <pt x="267" y="677" on="0"/>
        <pt x="185" y="608" on="0"/>
        <pt x="135" y="509" on="0"/>
        <pt x="135" y="448" on="1"/>
        <pt x="135" y="422" on="0"/>
        <pt x="139" y="401" on="0"/>
        <pt x="145" y="393" on="1"/>
        <pt x="102" y="393" on="0"/>
        <pt x="54" y="431" on="0"/>
        <pt x="54" y="477" on="1"/>
        <pt x="54" y="529" on="0"/>
        <pt x="121" y="628" on="0"/>
        <pt x="232" y="704" on="0"/>
        <pt x="376" y="750" on="0"/>
        <pt x="452" y="750" on="1"/>
        <pt x="519" y="750" on="0"/>
        <pt x="612" y="713" on="0"/>
        <pt x="669" y="645" on="0"/>
        <pt x="694" y="552" on="0"/>
        <pt x="694" y="497" on="1"/>
        <pt x="694" y="448" on="0"/>
        <pt x="676" y="335" on="0"/>
        <pt x="637" y="224" on="0"/>
        <pt x="578" y="120" on="0"/>
        <pt x="497" y="41" on="0"/>
        <pt x="392" y="-6" on="0"/>
        <pt x="328" y="-6" on="1"/>
        <pt x="287" y="-6" on="0"/>
        <pt x="220" y="16" on="0"/>
        <pt x="172" y="64" on="0"/>
        <pt x="146" y="140" on="0"/>
        <pt x="146" y="195" on="1"/>
        <pt x="146" y="235" on="0"/>
        <pt x="161" y="336" on="0"/>
        <pt x="191" y="441" on="0"/>
        <pt x="236" y="540" on="0"/>
        <pt x="297" y="617" on="0"/>
        <pt x="372" y="664" on="0"/>
        <pt x="418" y="664" on="1"/>
        <pt x="429" y="664" on="0"/>
        <pt x="455" y="661" on="0"/>
      </contour>
      <contour>
        <pt x="523" y="1000" on="1"/>
        <pt x="608" y="1000" on="1"/>
        <pt x="487" y="811" on="1"/>
        <pt x="432" y="811" on="1"/>
      </contour>
      <contour>
        <pt x="653" y="1000" on="1"/>
        <pt x="738" y="1000" on="1"/>
        <pt x="617" y="811" on="1"/>
        <pt x="562" y="811" on="1"/>
      </contour>
    </TTGlyph>
    <TTGlyph name="Oslash" xMin="52" yMin="-71" xMax="692" yMax="753">
      <contour>
        <pt x="308" y="-71" on="1"/>
        <pt x="322" y="-6" on="1"/>
        <pt x="282" y="-5" on="0"/>
        <pt x="216" y="17" on="0"/>
        <pt x="170" y="65" on="0"/>
        <pt x="144" y="141" on="0"/>
        <pt x="144" y="195" on="1"/>
        <pt x="144" y="235" on="0"/>
        <pt x="159" y="336" on="0"/>
        <pt x="189" y="441" on="0"/>
        <pt x="234" y="540" on="0"/>
        <pt x="295" y="617" on="0"/>
        <pt x="370" y="664" on="0"/>
        <pt x="416" y="664" on="1"/>
        <pt x="426" y="664" on="0"/>
        <pt x="450" y="661" on="0"/>
        <pt x="462" y="657" on="1"/>
        <pt x="473" y="710" on="1"/>
        <pt x="454" y="714" on="0"/>
        <pt x="426" y="714" on="1"/>
        <pt x="370" y="714" on="0"/>
        <pt x="265" y="677" on="0"/>
        <pt x="183" y="608" on="0"/>
        <pt x="133" y="509" on="0"/>
        <pt x="133" y="448" on="1"/>
        <pt x="133" y="422" on="0"/>
        <pt x="137" y="401" on="0"/>
        <pt x="143" y="393" on="1"/>
        <pt x="100" y="393" on="0"/>
        <pt x="52" y="431" on="0"/>
        <pt x="52" y="477" on="1"/>
        <pt x="52" y="529" on="0"/>
        <pt x="119" y="628" on="0"/>
        <pt x="230" y="704" on="0"/>
        <pt x="374" y="750" on="0"/>
        <pt x="450" y="750" on="1"/>
        <pt x="458" y="750" on="0"/>
        <pt x="474" y="750" on="0"/>
        <pt x="482" y="749" on="1"/>
        <pt x="482" y="753" on="1"/>
        <pt x="514" y="753" on="1"/>
        <pt x="513" y="745" on="1"/>
        <pt x="562" y="736" on="0"/>
        <pt x="630" y="693" on="0"/>
        <pt x="673" y="628" on="0"/>
        <pt x="692" y="545" on="0"/>
        <pt x="692" y="497" on="1"/>
        <pt x="692" y="450" on="0"/>
        <pt x="675" y="342" on="0"/>
        <pt x="639" y="234" on="0"/>
        <pt x="585" y="133" on="0"/>
        <pt x="509" y="53" on="0"/>
        <pt x="413" y="1" on="0"/>
        <pt x="354" y="-4" on="1"/>
        <pt x="340" y="-71" on="1"/>
      </contour>
      <contour>
        <pt x="579" y="539" on="1"/>
        <pt x="579" y="607" on="0"/>
        <pt x="546" y="686" on="0"/>
        <pt x="504" y="702" on="1"/>
        <pt x="370" y="72" on="1"/>
        <pt x="409" y="82" on="0"/>
        <pt x="484" y="171" on="0"/>
        <pt x="543" y="301" on="0"/>
        <pt x="579" y="460" on="0"/>
      </contour>
      <contour>
        <pt x="264" y="191" on="1"/>
        <pt x="264" y="137" on="0"/>
        <pt x="296" y="76" on="0"/>
        <pt x="338" y="71" on="1"/>
        <pt x="461" y="653" on="1"/>
        <pt x="435" y="638" on="0"/>
        <pt x="386" y="578" on="0"/>
        <pt x="342" y="501" on="0"/>
        <pt x="305" y="411" on="0"/>
        <pt x="279" y="318" on="0"/>
        <pt x="264" y="229" on="0"/>
      </contour>
    </TTGlyph>
    <TTGlyph name="Otilde" xMin="54" yMin="-6" xMax="709" yMax="924">
      <contour>
        <pt x="469" y="656" on="1"/>
        <pt x="443" y="642" on="0"/>
        <pt x="392" y="584" on="0"/>
        <pt x="347" y="506" on="0"/>
        <pt x="309" y="415" on="0"/>
        <pt x="281" y="321" on="0"/>
        <pt x="266" y="229" on="0"/>
        <pt x="266" y="191" on="1"/>
        <pt x="266" y="134" on="0"/>
        <pt x="305" y="70" on="0"/>
        <pt x="354" y="70" on="1"/>
        <pt x="395" y="70" on="0"/>
        <pt x="476" y="154" on="0"/>
        <pt x="541" y="288" on="0"/>
        <pt x="581" y="455" on="0"/>
        <pt x="581" y="539" on="1"/>
        <pt x="581" y="585" on="0"/>
        <pt x="566" y="652" on="0"/>
        <pt x="531" y="694" on="0"/>
        <pt x="472" y="714" on="0"/>
        <pt x="428" y="714" on="1"/>
        <pt x="372" y="714" on="0"/>
        <pt x="267" y="677" on="0"/>
        <pt x="185" y="608" on="0"/>
        <pt x="135" y="509" on="0"/>
        <pt x="135" y="448" on="1"/>
        <pt x="135" y="422" on="0"/>
        <pt x="139" y="401" on="0"/>
        <pt x="145" y="393" on="1"/>
        <pt x="102" y="393" on="0"/>
        <pt x="54" y="431" on="0"/>
        <pt x="54" y="477" on="1"/>
        <pt x="54" y="529" on="0"/>
        <pt x="121" y="628" on="0"/>
        <pt x="232" y="704" on="0"/>
        <pt x="376" y="750" on="0"/>
        <pt x="452" y="750" on="1"/>
        <pt x="519" y="750" on="0"/>
        <pt x="612" y="713" on="0"/>
        <pt x="669" y="645" on="0"/>
        <pt x="694" y="552" on="0"/>
        <pt x="694" y="497" on="1"/>
        <pt x="694" y="448" on="0"/>
        <pt x="676" y="335" on="0"/>
        <pt x="637" y="224" on="0"/>
        <pt x="578" y="120" on="0"/>
        <pt x="497" y="41" on="0"/>
        <pt x="392" y="-6" on="0"/>
        <pt x="328" y="-6" on="1"/>
        <pt x="287" y="-6" on="0"/>
        <pt x="220" y="16" on="0"/>
        <pt x="172" y="64" on="0"/>
        <pt x="146" y="140" on="0"/>
        <pt x="146" y="195" on="1"/>
        <pt x="146" y="235" on="0"/>
        <pt x="161" y="336" on="0"/>
        <pt x="191" y="441" on="0"/>
        <pt x="236" y="540" on="0"/>
        <pt x="297" y="617" on="0"/>
        <pt x="372" y="664" on="0"/>
        <pt x="418" y="664" on="1"/>
        <pt x="429" y="664" on="0"/>
        <pt x="455" y="661" on="0"/>
      </contour>
      <contour>
        <pt x="709" y="915" on="1"/>
        <pt x="705" y="899" on="0"/>
        <pt x="678" y="867" on="0"/>
        <pt x="638" y="841" on="0"/>
        <pt x="589" y="825" on="0"/>
        <pt x="564" y="825" on="1"/>
        <pt x="542" y="825" on="0"/>
        <pt x="503" y="835" on="0"/>
        <pt x="467" y="848" on="0"/>
        <pt x="431" y="858" on="0"/>
        <pt x="413" y="858" on="1"/>
        <pt x="378" y="858" on="0"/>
        <pt x="353" y="834" on="1"/>
        <pt x="348" y="836" on="1"/>
        <pt x="370" y="880" on="0"/>
        <pt x="447" y="924" on="0"/>
        <pt x="498" y="924" on="1"/>
        <pt x="523" y="924" on="0"/>
        <pt x="561" y="915" on="0"/>
        <pt x="595" y="904" on="0"/>
        <pt x="627" y="895" on="0"/>
        <pt x="647" y="895" on="1"/>
        <pt x="664" y="895" on="0"/>
        <pt x="694" y="905" on="0"/>
        <pt x="704" y="915" on="1"/>
      </contour>
    </TTGlyph>
    <TTGlyph name="P" xMin="56" yMin="0" xMax="643" yMax="750">
      <contour>
        <pt x="411" y="656" on="1"/>
        <pt x="338" y="316" on="1"/>
        <pt x="392" y="317" on="0"/>
        <pt x="472" y="365" on="0"/>
        <pt x="526" y="439" on="0"/>
        <pt x="552" y="529" on="0"/>
        <pt x="552" y="572" on="1"/>
        <pt x="552" y="600" on="0"/>
        <pt x="538" y="652" on="0"/>
        <pt x="501" y="691" on="0"/>
        <pt x="439" y="714" on="0"/>
        <pt x="391" y="714" on="1"/>
        <pt x="340" y="714" on="0"/>
        <pt x="246" y="681" on="0"/>
        <pt x="175" y="617" on="0"/>
        <pt x="132" y="524" on="0"/>
        <pt x="132" y="463" on="1"/>
        <pt x="132" y="430" on="0"/>
        <pt x="148" y="398" on="0"/>
        <pt x="153" y="393" on="1"/>
        <pt x="108" y="393" on="0"/>
        <pt x="56" y="434" on="0"/>
        <pt x="56" y="485" on="1"/>
        <pt x="56" y="538" on="0"/>
        <pt x="118" y="634" on="0"/>
        <pt x="219" y="707" on="0"/>
        <pt x="348" y="750" on="0"/>
        <pt x="414" y="750" on="1"/>
        <pt x="472" y="750" on="0"/>
        <pt x="558" y="717" on="0"/>
        <pt x="615" y="663" on="0"/>
        <pt x="643" y="591" on="0"/>
        <pt x="643" y="552" on="1"/>
        <pt x="643" y="505" on="0"/>
        <pt x="603" y="410" on="0"/>
        <pt x="529" y="333" on="0"/>
        <pt x="421" y="285" on="0"/>
        <pt x="354" y="285" on="1"/>
        <pt x="332" y="285" on="1"/>
        <pt x="271" y="0" on="1"/>
        <pt x="161" y="0" on="1"/>
        <pt x="299" y="641" on="1"/>
      </contour>
    </TTGlyph>
    <TTGlyph name="Q" xMin="54" yMin="-91" xMax="692" yMax="750">
      <contour>
        <pt x="469" y="656" on="1"/>
        <pt x="443" y="642" on="0"/>
        <pt x="392" y="584" on="0"/>
        <pt x="347" y="506" on="0"/>
        <pt x="309" y="415" on="0"/>
        <pt x="281" y="321" on="0"/>
        <pt x="266" y="231" on="0"/>
        <pt x="266" y="194" on="1"/>
        <pt x="266" y="178" on="0"/>
        <pt x="268" y="150" on="0"/>
        <pt x="271" y="138" on="1"/>
        <pt x="294" y="145" on="0"/>
        <pt x="334" y="150" on="0"/>
        <pt x="348" y="150" on="1"/>
        <pt x="377" y="150" on="0"/>
        <pt x="421" y="131" on="0"/>
        <pt x="438" y="116" on="1"/>
        <pt x="468" y="147" on="0"/>
        <pt x="521" y="240" on="0"/>
        <pt x="559" y="352" on="0"/>
        <pt x="581" y="475" on="0"/>
        <pt x="581" y="537" on="1"/>
        <pt x="581" y="584" on="0"/>
        <pt x="566" y="651" on="0"/>
        <pt x="532" y="694" on="0"/>
        <pt x="474" y="714" on="0"/>
        <pt x="432" y="714" on="1"/>
        <pt x="375" y="714" on="0"/>
        <pt x="267" y="678" on="0"/>
        <pt x="185" y="609" on="0"/>
        <pt x="135" y="507" on="0"/>
        <pt x="135" y="440" on="1"/>
        <pt x="135" y="424" on="0"/>
        <pt x="139" y="400" on="0"/>
        <pt x="145" y="393" on="1"/>
        <pt x="103" y="393" on="0"/>
        <pt x="54" y="431" on="0"/>
        <pt x="54" y="476" on="1"/>
        <pt x="54" y="529" on="0"/>
        <pt x="121" y="628" on="0"/>
        <pt x="232" y="704" on="0"/>
        <pt x="374" y="750" on="0"/>
        <pt x="448" y="750" on="1"/>
        <pt x="516" y="750" on="0"/>
        <pt x="610" y="711" on="0"/>
        <pt x="667" y="642" on="0"/>
        <pt x="692" y="550" on="0"/>
        <pt x="692" y="498" on="1"/>
        <pt x="692" y="444" on="0"/>
        <pt x="667" y="318" on="0"/>
        <pt x="618" y="196" on="0"/>
        <pt x="543" y="88" on="0"/>
        <pt x="493" y="51" on="1"/>
        <pt x="505" y="35" on="0"/>
        <pt x="531" y="6" on="0"/>
        <pt x="562" y="-16" on="0"/>
        <pt x="601" y="-29" on="0"/>
        <pt x="626" y="-29" on="1"/>
        <pt x="634" y="-29" on="0"/>
        <pt x="644" y="-28" on="0"/>
        <pt x="650" y="-27" on="1"/>
        <pt x="634" y="-62" on="0"/>
        <pt x="592" y="-91" on="0"/>
        <pt x="560" y="-91" on="1"/>
        <pt x="531" y="-91" on="0"/>
        <pt x="491" y="-72" on="0"/>
        <pt x="463" y="-42" on="0"/>
        <pt x="443" y="-4" on="0"/>
        <pt x="434" y="16" on="1"/>
        <pt x="408" y="5" on="0"/>
        <pt x="354" y="-6" on="0"/>
        <pt x="324" y="-6" on="1"/>
        <pt x="285" y="-6" on="0"/>
        <pt x="220" y="16" on="0"/>
        <pt x="172" y="64" on="0"/>
        <pt x="146" y="140" on="0"/>
        <pt x="146" y="195" on="1"/>
        <pt x="146" y="235" on="0"/>
        <pt x="161" y="336" on="0"/>
        <pt x="191" y="441" on="0"/>
        <pt x="236" y="540" on="0"/>
        <pt x="297" y="617" on="0"/>
        <pt x="372" y="664" on="0"/>
        <pt x="418" y="664" on="1"/>
        <pt x="429" y="664" on="0"/>
        <pt x="455" y="661" on="0"/>
      </contour>
      <contour>
        <pt x="333" y="120" on="1"/>
        <pt x="322" y="120" on="0"/>
        <pt x="296" y="115" on="0"/>
        <pt x="282" y="109" on="1"/>
        <pt x="302" y="70" on="0"/>
        <pt x="345" y="70" on="1"/>
        <pt x="372" y="70" on="0"/>
        <pt x="398" y="85" on="1"/>
        <pt x="387" y="101" on="0"/>
        <pt x="356" y="120" on="0"/>
      </contour>
    </TTGlyph>
    <TTGlyph name="R" xMin="56" yMin="-17" xMax="634" yMax="750">
      <contour>
        <pt x="411" y="656" on="1"/>
        <pt x="361" y="423" on="1"/>
        <pt x="387" y="423" on="1"/>
        <pt x="422" y="423" on="0"/>
        <pt x="481" y="456" on="0"/>
        <pt x="525" y="508" on="0"/>
        <pt x="549" y="572" on="0"/>
        <pt x="549" y="602" on="1"/>
        <pt x="549" y="624" on="0"/>
        <pt x="535" y="664" on="0"/>
        <pt x="502" y="695" on="0"/>
        <pt x="446" y="714" on="0"/>
        <pt x="403" y="714" on="1"/>
        <pt x="349" y="714" on="0"/>
        <pt x="253" y="679" on="0"/>
        <pt x="181" y="614" on="0"/>
        <pt x="139" y="520" on="0"/>
        <pt x="139" y="461" on="1"/>
        <pt x="139" y="426" on="0"/>
        <pt x="146" y="400" on="0"/>
        <pt x="151" y="393" on="1"/>
        <pt x="133" y="393" on="0"/>
        <pt x="99" y="403" on="0"/>
        <pt x="72" y="425" on="0"/>
        <pt x="56" y="460" on="0"/>
        <pt x="56" y="485" on="1"/>
        <pt x="56" y="537" on="0"/>
        <pt x="116" y="632" on="0"/>
        <pt x="217" y="706" on="0"/>
        <pt x="347" y="750" on="0"/>
        <pt x="416" y="750" on="1"/>
        <pt x="469" y="750" on="0"/>
        <pt x="551" y="724" on="0"/>
        <pt x="606" y="680" on="0"/>
        <pt x="634" y="621" on="0"/>
        <pt x="634" y="589" on="1"/>
        <pt x="634" y="542" on="0"/>
        <pt x="575" y="449" on="0"/>
        <pt x="519" y="420" on="1"/>
        <pt x="563" y="410" on="0"/>
        <pt x="595" y="356" on="0"/>
        <pt x="595" y="318" on="1"/>
        <pt x="595" y="288" on="0"/>
        <pt x="580" y="219" on="0"/>
        <pt x="561" y="152" on="0"/>
        <pt x="546" y="91" on="0"/>
        <pt x="546" y="68" on="1"/>
        <pt x="546" y="43" on="0"/>
        <pt x="567" y="7" on="0"/>
        <pt x="585" y="0" on="1"/>
        <pt x="553" y="-9" on="0"/>
        <pt x="514" y="-17" on="0"/>
        <pt x="496" y="-17" on="1"/>
        <pt x="458" y="-17" on="0"/>
        <pt x="425" y="25" on="0"/>
        <pt x="425" y="48" on="1"/>
        <pt x="425" y="74" on="0"/>
        <pt x="443" y="141" on="0"/>
        <pt x="465" y="212" on="0"/>
        <pt x="483" y="280" on="0"/>
        <pt x="483" y="307" on="1"/>
        <pt x="483" y="354" on="0"/>
        <pt x="442" y="388" on="0"/>
        <pt x="410" y="388" on="1"/>
        <pt x="399" y="388" on="0"/>
        <pt x="365" y="384" on="0"/>
        <pt x="352" y="381" on="1"/>
        <pt x="271" y="0" on="1"/>
        <pt x="161" y="0" on="1"/>
        <pt x="299" y="641" on="1"/>
      </contour>
    </TTGlyph>
    <TTGlyph name="S" xMin="-1" yMin="-18" xMax="506" yMax="750">
      <contour>
        <pt x="506" y="632" on="1"/>
        <pt x="506" y="586" on="0"/>
        <pt x="460" y="529" on="0"/>
        <pt x="427" y="529" on="1"/>
        <pt x="413" y="529" on="0"/>
        <pt x="396" y="539" on="0"/>
        <pt x="388" y="550" on="1"/>
        <pt x="408" y="562" on="0"/>
        <pt x="434" y="611" on="0"/>
        <pt x="434" y="638" on="1"/>
        <pt x="434" y="652" on="0"/>
        <pt x="426" y="680" on="0"/>
        <pt x="407" y="701" on="0"/>
        <pt x="375" y="714" on="0"/>
        <pt x="351" y="714" on="1"/>
        <pt x="296" y="714" on="0"/>
        <pt x="229" y="661" on="0"/>
        <pt x="229" y="610" on="1"/>
        <pt x="229" y="572" on="0"/>
        <pt x="262" y="518" on="0"/>
        <pt x="312" y="470" on="0"/>
        <pt x="371" y="422" on="0"/>
        <pt x="421" y="361" on="0"/>
        <pt x="454" y="281" on="0"/>
        <pt x="454" y="224" on="1"/>
        <pt x="454" y="163" on="0"/>
        <pt x="414" y="72" on="0"/>
        <pt x="345" y="12" on="0"/>
        <pt x="254" y="-18" on="0"/>
        <pt x="204" y="-18" on="1"/>
        <pt x="165" y="-18" on="0"/>
        <pt x="92" y="0" on="0"/>
        <pt x="34" y="41" on="0"/>
        <pt x="-1" y="105" on="0"/>
        <pt x="-1" y="150" on="1"/>
        <pt x="-1" y="191" on="0"/>
        <pt x="26" y="253" on="0"/>
        <pt x="68" y="294" on="0"/>
        <pt x="118" y="315" on="0"/>
        <pt x="141" y="315" on="1"/>
        <pt x="167" y="315" on="0"/>
        <pt x="208" y="285" on="0"/>
        <pt x="214" y="249" on="1"/>
        <pt x="193" y="249" on="0"/>
        <pt x="151" y="238" on="0"/>
        <pt x="117" y="215" on="0"/>
        <pt x="95" y="177" on="0"/>
        <pt x="95" y="150" on="1"/>
        <pt x="95" y="126" on="0"/>
        <pt x="112" y="88" on="0"/>
        <pt x="140" y="63" on="0"/>
        <pt x="177" y="49" on="0"/>
        <pt x="197" y="49" on="1"/>
        <pt x="221" y="49" on="0"/>
        <pt x="268" y="66" on="0"/>
        <pt x="305" y="102" on="0"/>
        <pt x="329" y="156" on="0"/>
        <pt x="329" y="192" on="1"/>
        <pt x="329" y="235" on="0"/>
        <pt x="299" y="304" on="0"/>
        <pt x="253" y="363" on="0"/>
        <pt x="200" y="418" on="0"/>
        <pt x="154" y="473" on="0"/>
        <pt x="124" y="534" on="0"/>
        <pt x="124" y="571" on="1"/>
        <pt x="124" y="610" on="0"/>
        <pt x="160" y="676" on="0"/>
        <pt x="222" y="723" on="0"/>
        <pt x="305" y="750" on="0"/>
        <pt x="353" y="750" on="1"/>
        <pt x="370" y="750" on="0"/>
        <pt x="422" y="743" on="0"/>
        <pt x="471" y="719" on="0"/>
        <pt x="506" y="672" on="0"/>
      </contour>
    </TTGlyph>
    <TTGlyph name="Sacute" xMin="-1" yMin="-18" xMax="547" yMax="1000">
      <contour>
        <pt x="506" y="632" on="1"/>
        <pt x="506" y="586" on="0"/>
        <pt x="460" y="529" on="0"/>
        <pt x="427" y="529" on="1"/>
        <pt x="413" y="529" on="0"/>
        <pt x="396" y="539" on="0"/>
        <pt x="388" y="550" on="1"/>
        <pt x="408" y="562" on="0"/>
        <pt x="434" y="611" on="0"/>
        <pt x="434" y="638" on="1"/>
        <pt x="434" y="652" on="0"/>
        <pt x="426" y="680" on="0"/>
        <pt x="407" y="701" on="0"/>
        <pt x="375" y="714" on="0"/>
        <pt x="351" y="714" on="1"/>
        <pt x="296" y="714" on="0"/>
        <pt x="229" y="661" on="0"/>
        <pt x="229" y="610" on="1"/>
        <pt x="229" y="572" on="0"/>
        <pt x="262" y="518" on="0"/>
        <pt x="312" y="470" on="0"/>
        <pt x="371" y="422" on="0"/>
        <pt x="421" y="361" on="0"/>
        <pt x="454" y="281" on="0"/>
        <pt x="454" y="224" on="1"/>
        <pt x="454" y="163" on="0"/>
        <pt x="414" y="72" on="0"/>
        <pt x="345" y="12" on="0"/>
        <pt x="254" y="-18" on="0"/>
        <pt x="204" y="-18" on="1"/>
        <pt x="165" y="-18" on="0"/>
        <pt x="92" y="0" on="0"/>
        <pt x="34" y="41" on="0"/>
        <pt x="-1" y="105" on="0"/>
        <pt x="-1" y="150" on="1"/>
        <pt x="-1" y="191" on="0"/>
        <pt x="26" y="253" on="0"/>
        <pt x="68" y="294" on="0"/>
        <pt x="118" y="315" on="0"/>
        <pt x="141" y="315" on="1"/>
        <pt x="167" y="315" on="0"/>
        <pt x="208" y="285" on="0"/>
        <pt x="214" y="249" on="1"/>
        <pt x="193" y="249" on="0"/>
        <pt x="151" y="238" on="0"/>
        <pt x="117" y="215" on="0"/>
        <pt x="95" y="177" on="0"/>
        <pt x="95" y="150" on="1"/>
        <pt x="95" y="126" on="0"/>
        <pt x="112" y="88" on="0"/>
        <pt x="140" y="63" on="0"/>
        <pt x="177" y="49" on="0"/>
        <pt x="197" y="49" on="1"/>
        <pt x="221" y="49" on="0"/>
        <pt x="268" y="66" on="0"/>
        <pt x="305" y="102" on="0"/>
        <pt x="329" y="156" on="0"/>
        <pt x="329" y="192" on="1"/>
        <pt x="329" y="235" on="0"/>
        <pt x="299" y="304" on="0"/>
        <pt x="253" y="363" on="0"/>
        <pt x="200" y="418" on="0"/>
        <pt x="154" y="473" on="0"/>
        <pt x="124" y="534" on="0"/>
        <pt x="124" y="571" on="1"/>
        <pt x="124" y="610" on="0"/>
        <pt x="160" y="676" on="0"/>
        <pt x="222" y="723" on="0"/>
        <pt x="305" y="750" on="0"/>
        <pt x="353" y="750" on="1"/>
        <pt x="370" y="750" on="0"/>
        <pt x="422" y="743" on="0"/>
        <pt x="471" y="719" on="0"/>
        <pt x="506" y="672" on="0"/>
      </contour>
      <contour>
        <pt x="462" y="1000" on="1"/>
        <pt x="547" y="1000" on="1"/>
        <pt x="426" y="811" on="1"/>
        <pt x="371" y="811" on="1"/>
      </contour>
    </TTGlyph>
    <TTGlyph name="Scaron" xMin="-1" yMin="-18" xMax="589" yMax="992">
      <contour>
        <pt x="506" y="632" on="1"/>
        <pt x="506" y="586" on="0"/>
        <pt x="460" y="529" on="0"/>
        <pt x="427" y="529" on="1"/>
        <pt x="413" y="529" on="0"/>
        <pt x="396" y="539" on="0"/>
        <pt x="388" y="550" on="1"/>
        <pt x="408" y="562" on="0"/>
        <pt x="434" y="611" on="0"/>
        <pt x="434" y="638" on="1"/>
        <pt x="434" y="652" on="0"/>
        <pt x="426" y="680" on="0"/>
        <pt x="407" y="701" on="0"/>
        <pt x="375" y="714" on="0"/>
        <pt x="351" y="714" on="1"/>
        <pt x="296" y="714" on="0"/>
        <pt x="229" y="661" on="0"/>
        <pt x="229" y="610" on="1"/>
        <pt x="229" y="572" on="0"/>
        <pt x="262" y="518" on="0"/>
        <pt x="312" y="470" on="0"/>
        <pt x="371" y="422" on="0"/>
        <pt x="421" y="361" on="0"/>
        <pt x="454" y="281" on="0"/>
        <pt x="454" y="224" on="1"/>
        <pt x="454" y="163" on="0"/>
        <pt x="414" y="72" on="0"/>
        <pt x="345" y="12" on="0"/>
        <pt x="254" y="-18" on="0"/>
        <pt x="204" y="-18" on="1"/>
        <pt x="165" y="-18" on="0"/>
        <pt x="92" y="0" on="0"/>
        <pt x="34" y="41" on="0"/>
        <pt x="-1" y="105" on="0"/>
        <pt x="-1" y="150" on="1"/>
        <pt x="-1" y="191" on="0"/>
        <pt x="26" y="253" on="0"/>
        <pt x="68" y="294" on="0"/>
        <pt x="118" y="315" on="0"/>
        <pt x="141" y="315" on="1"/>
        <pt x="167" y="315" on="0"/>
        <pt x="208" y="285" on="0"/>
        <pt x="214" y="249" on="1"/>
        <pt x="193" y="249" on="0"/>
        <pt x="151" y="238" on="0"/>
        <pt x="117" y="215" on="0"/>
        <pt x="95" y="177" on="0"/>
        <pt x="95" y="150" on="1"/>
        <pt x="95" y="126" on="0"/>
        <pt x="112" y="88" on="0"/>
        <pt x="140" y="63" on="0"/>
        <pt x="177" y="49" on="0"/>
        <pt x="197" y="49" on="1"/>
        <pt x="221" y="49" on="0"/>
        <pt x="268" y="66" on="0"/>
        <pt x="305" y="102" on="0"/>
        <pt x="329" y="156" on="0"/>
        <pt x="329" y="192" on="1"/>
        <pt x="329" y="235" on="0"/>
        <pt x="299" y="304" on="0"/>
        <pt x="253" y="363" on="0"/>
        <pt x="200" y="418" on="0"/>
        <pt x="154" y="473" on="0"/>
        <pt x="124" y="534" on="0"/>
        <pt x="124" y="571" on="1"/>
        <pt x="124" y="610" on="0"/>
        <pt x="160" y="676" on="0"/>
        <pt x="222" y="723" on="0"/>
        <pt x="305" y="750" on="0"/>
        <pt x="353" y="750" on="1"/>
        <pt x="370" y="750" on="0"/>
        <pt x="422" y="743" on="0"/>
        <pt x="471" y="719" on="0"/>
        <pt x="506" y="672" on="0"/>
      </contour>
      <contour>
        <pt x="328" y="992" on="1"/>
        <pt x="393" y="891" on="1"/>
        <pt x="555" y="992" on="1"/>
        <pt x="589" y="992" on="1"/>
        <pt x="388" y="825" on="1"/>
        <pt x="367" y="825" on="1"/>
        <pt x="306" y="992" on="1"/>
      </contour>
    </TTGlyph>
    <TTGlyph name="T" xMin="62" yMin="0" xMax="775" yMax="749">
      <contour>
        <pt x="647" y="630" on="1"/>
        <pt x="611" y="630" on="0"/>
        <pt x="531" y="645" on="0"/>
        <pt x="488" y="653" on="1"/>
        <pt x="349" y="0" on="1"/>
        <pt x="239" y="0" on="1"/>
        <pt x="383" y="670" on="1"/>
        <pt x="373" y="671" on="0"/>
        <pt x="354" y="672" on="0"/>
        <pt x="344" y="672" on="1"/>
        <pt x="294" y="672" on="0"/>
        <pt x="215" y="653" on="0"/>
        <pt x="161" y="608" on="0"/>
        <pt x="133" y="533" on="0"/>
        <pt x="133" y="476" on="1"/>
        <pt x="133" y="438" on="0"/>
        <pt x="146" y="402" on="0"/>
        <pt x="153" y="392" on="1"/>
        <pt x="133" y="392" on="0"/>
        <pt x="100" y="402" on="0"/>
        <pt x="76" y="426" on="0"/>
        <pt x="62" y="466" on="0"/>
        <pt x="62" y="495" on="1"/>
        <pt x="62" y="543" on="0"/>
        <pt x="99" y="634" on="0"/>
        <pt x="182" y="705" on="0"/>
        <pt x="313" y="749" on="0"/>
        <pt x="408" y="749" on="1"/>
        <pt x="448" y="749" on="0"/>
        <pt x="511" y="742" on="0"/>
        <pt x="568" y="733" on="0"/>
        <pt x="622" y="726" on="0"/>
        <pt x="653" y="726" on="1"/>
        <pt x="695" y="726" on="0"/>
        <pt x="755" y="739" on="0"/>
        <pt x="775" y="747" on="1"/>
        <pt x="773" y="687" on="0"/>
        <pt x="710" y="630" on="0"/>
      </contour>
    </TTGlyph>
    <TTGlyph name="T_h" xMin="62" yMin="-6" xMax="1036" yMax="749">
      <contour>
        <pt x="875" y="119" on="1"/>
        <pt x="875" y="98" on="0"/>
        <pt x="887" y="70" on="0"/>
        <pt x="905" y="70" on="1"/>
        <pt x="952" y="70" on="0"/>
        <pt x="999" y="179" on="1"/>
        <pt x="1036" y="179" on="1"/>
        <pt x="1012" y="116" on="0"/>
        <pt x="964" y="42" on="0"/>
        <pt x="919" y="5" on="0"/>
        <pt x="880" y="-6" on="0"/>
        <pt x="865" y="-6" on="1"/>
        <pt x="813" y="-6" on="0"/>
        <pt x="769" y="59" on="0"/>
        <pt x="769" y="107" on="1"/>
        <pt x="769" y="140" on="0"/>
        <pt x="784" y="212" on="0"/>
        <pt x="802" y="282" on="0"/>
        <pt x="817" y="347" on="0"/>
        <pt x="817" y="374" on="1"/>
        <pt x="817" y="399" on="0"/>
        <pt x="799" y="429" on="0"/>
        <pt x="773" y="429" on="1"/>
        <pt x="709" y="429" on="0"/>
        <pt x="662" y="322" on="1"/>
        <pt x="593" y="0" on="1"/>
        <pt x="493" y="0" on="1"/>
        <pt x="632" y="644" on="1"/>
        <pt x="600" y="646" on="0"/>
        <pt x="529" y="655" on="0"/>
        <pt x="491" y="662" on="1"/>
        <pt x="349" y="0" on="1"/>
        <pt x="239" y="0" on="1"/>
        <pt x="383" y="670" on="1"/>
        <pt x="373" y="671" on="0"/>
        <pt x="354" y="672" on="0"/>
        <pt x="344" y="672" on="1"/>
        <pt x="294" y="672" on="0"/>
        <pt x="215" y="653" on="0"/>
        <pt x="161" y="608" on="0"/>
        <pt x="133" y="533" on="0"/>
        <pt x="133" y="476" on="1"/>
        <pt x="133" y="438" on="0"/>
        <pt x="146" y="402" on="0"/>
        <pt x="153" y="392" on="1"/>
        <pt x="133" y="392" on="0"/>
        <pt x="100" y="402" on="0"/>
        <pt x="76" y="426" on="0"/>
        <pt x="62" y="466" on="0"/>
        <pt x="62" y="495" on="1"/>
        <pt x="62" y="543" on="0"/>
        <pt x="99" y="634" on="0"/>
        <pt x="182" y="705" on="0"/>
        <pt x="313" y="749" on="0"/>
        <pt x="408" y="749" on="1"/>
        <pt x="448" y="749" on="0"/>
        <pt x="508" y="742" on="0"/>
        <pt x="561" y="733" on="0"/>
        <pt x="612" y="726" on="0"/>
        <pt x="643" y="726" on="1"/>
        <pt x="685" y="726" on="0"/>
        <pt x="742" y="730" on="0"/>
        <pt x="762" y="738" on="1"/>
        <pt x="752" y="716" on="0"/>
        <pt x="735" y="667" on="0"/>
        <pt x="718" y="597" on="0"/>
        <pt x="698" y="497" on="0"/>
        <pt x="684" y="425" on="1"/>
        <pt x="703" y="451" on="0"/>
        <pt x="741" y="483" on="0"/>
        <pt x="776" y="500" on="0"/>
        <pt x="807" y="505" on="0"/>
        <pt x="820" y="505" on="1"/>
        <pt x="850" y="505" on="0"/>
        <pt x="890" y="487" on="0"/>
        <pt x="914" y="456" on="0"/>
        <pt x="923" y="415" on="0"/>
        <pt x="923" y="392" on="1"/>
        <pt x="923" y="359" on="0"/>
        <pt x="908" y="287" on="0"/>
        <pt x="890" y="217" on="0"/>
        <pt x="875" y="149" on="0"/>
      </contour>
    </TTGlyph>
    <TTGlyph name="T_i" xMin="61" yMin="-6" xMax="773" yMax="750">
      <contour>
        <pt x="322" y="682" on="1"/>
        <pt x="227" y="682" on="0"/>
        <pt x="133" y="582" on="0"/>
        <pt x="133" y="491" on="1"/>
        <pt x="133" y="481" on="0"/>
        <pt x="134" y="454" on="0"/>
        <pt x="138" y="427" on="0"/>
        <pt x="143" y="403" on="0"/>
        <pt x="148" y="396" on="1"/>
        <pt x="105" y="396" on="0"/>
        <pt x="61" y="436" on="0"/>
        <pt x="61" y="490" on="1"/>
        <pt x="61" y="540" on="0"/>
        <pt x="100" y="634" on="0"/>
        <pt x="180" y="706" on="0"/>
        <pt x="303" y="750" on="0"/>
        <pt x="387" y="750" on="1"/>
        <pt x="420" y="750" on="0"/>
        <pt x="472" y="744" on="0"/>
        <pt x="520" y="736" on="0"/>
        <pt x="571" y="730" on="0"/>
        <pt x="603" y="730" on="1"/>
        <pt x="619" y="730" on="0"/>
        <pt x="660" y="732" on="0"/>
        <pt x="703" y="736" on="0"/>
        <pt x="748" y="744" on="0"/>
        <pt x="768" y="749" on="1"/>
        <pt x="762" y="716" on="0"/>
        <pt x="744" y="666" on="0"/>
        <pt x="717" y="632" on="0"/>
        <pt x="677" y="615" on="0"/>
        <pt x="649" y="615" on="1"/>
        <pt x="613" y="615" on="0"/>
        <pt x="530" y="638" on="0"/>
        <pt x="484" y="652" on="1"/>
        <pt x="345" y="0" on="1"/>
        <pt x="235" y="0" on="1"/>
        <pt x="381" y="677" on="1"/>
        <pt x="366" y="679" on="0"/>
        <pt x="337" y="682" on="0"/>
      </contour>
      <contour>
        <pt x="688" y="500" on="1"/>
        <pt x="615" y="160" on="1"/>
        <pt x="610" y="140" on="0"/>
        <pt x="610" y="115" on="1"/>
        <pt x="610" y="98" on="0"/>
        <pt x="622" y="70" on="0"/>
        <pt x="641" y="70" on="1"/>
        <pt x="665" y="70" on="0"/>
        <pt x="714" y="128" on="0"/>
        <pt x="736" y="179" on="1"/>
        <pt x="773" y="179" on="1"/>
        <pt x="749" y="116" on="0"/>
        <pt x="701" y="43" on="0"/>
        <pt x="656" y="5" on="0"/>
        <pt x="615" y="-6" on="0"/>
        <pt x="599" y="-6" on="1"/>
        <pt x="573" y="-6" on="0"/>
        <pt x="539" y="12" on="0"/>
        <pt x="519" y="42" on="0"/>
        <pt x="510" y="82" on="0"/>
        <pt x="510" y="105" on="1"/>
        <pt x="510" y="123" on="0"/>
        <pt x="515" y="161" on="0"/>
        <pt x="519" y="179" on="1"/>
        <pt x="587" y="500" on="1"/>
      </contour>
    </TTGlyph>
    <TTGlyph name="Thorn" xMin="34" yMin="0" xMax="619" yMax="749">
      <contour>
        <pt x="417" y="749" on="1"/>
        <pt x="394" y="640" on="1"/>
        <pt x="451" y="639" on="0"/>
        <pt x="535" y="606" on="0"/>
        <pt x="591" y="552" on="0"/>
        <pt x="619" y="481" on="0"/>
        <pt x="619" y="442" on="1"/>
        <pt x="619" y="395" on="0"/>
        <pt x="579" y="300" on="0"/>
        <pt x="505" y="223" on="0"/>
        <pt x="397" y="175" on="0"/>
        <pt x="330" y="175" on="1"/>
        <pt x="328" y="175" on="0"/>
        <pt x="304" y="175" on="0"/>
        <pt x="294" y="176" on="1"/>
        <pt x="257" y="0" on="1"/>
        <pt x="147" y="0" on="1"/>
        <pt x="274" y="591" on="1"/>
        <pt x="197" y="568" on="0"/>
        <pt x="105" y="446" on="0"/>
        <pt x="105" y="353" on="1"/>
        <pt x="105" y="334" on="0"/>
        <pt x="109" y="311" on="0"/>
        <pt x="113" y="297" on="0"/>
        <pt x="118" y="289" on="0"/>
        <pt x="119" y="286" on="1"/>
        <pt x="78" y="286" on="0"/>
        <pt x="34" y="330" on="0"/>
        <pt x="34" y="375" on="1"/>
        <pt x="34" y="418" on="0"/>
        <pt x="73" y="496" on="0"/>
        <pt x="141" y="562" on="0"/>
        <pt x="231" y="611" on="0"/>
        <pt x="281" y="625" on="1"/>
        <pt x="305" y="734" on="1"/>
      </contour>
      <contour>
        <pt x="538" y="461" on="1"/>
        <pt x="538" y="488" on="0"/>
        <pt x="523" y="538" on="0"/>
        <pt x="488" y="577" on="0"/>
        <pt x="430" y="601" on="0"/>
        <pt x="386" y="603" on="1"/>
        <pt x="300" y="205" on="1"/>
        <pt x="323" y="205" on="1"/>
        <pt x="369" y="205" on="0"/>
        <pt x="448" y="252" on="0"/>
        <pt x="505" y="326" on="0"/>
        <pt x="538" y="417" on="0"/>
      </contour>
    </TTGlyph>
    <TTGlyph name="U" xMin="55" yMin="-7" xMax="816" yMax="750">
      <contour>
        <pt x="816" y="748" on="1"/>
        <pt x="750" y="436" on="1"/>
        <pt x="726" y="322" on="0"/>
        <pt x="675" y="155" on="0"/>
        <pt x="599" y="46" on="0"/>
        <pt x="487" y="-7" on="0"/>
        <pt x="403" y="-7" on="1"/>
        <pt x="349" y="-7" on="0"/>
        <pt x="275" y="14" on="0"/>
        <pt x="230" y="56" on="0"/>
        <pt x="210" y="116" on="0"/>
        <pt x="210" y="155" on="1"/>
        <pt x="210" y="227" on="0"/>
        <pt x="260" y="432" on="0"/>
        <pt x="292" y="560" on="1"/>
        <pt x="328" y="707" on="1"/>
        <pt x="235" y="689" on="0"/>
        <pt x="127" y="560" on="0"/>
        <pt x="127" y="463" on="1"/>
        <pt x="127" y="426" on="0"/>
        <pt x="139" y="401" on="0"/>
        <pt x="142" y="394" on="1"/>
        <pt x="107" y="394" on="0"/>
        <pt x="55" y="439" on="0"/>
        <pt x="55" y="485" on="1"/>
        <pt x="55" y="538" on="0"/>
        <pt x="118" y="634" on="0"/>
        <pt x="220" y="707" on="0"/>
        <pt x="348" y="750" on="0"/>
        <pt x="413" y="750" on="1"/>
        <pt x="426" y="750" on="0"/>
        <pt x="445" y="748" on="0"/>
        <pt x="461" y="745" on="1"/>
        <pt x="426" y="616" on="0"/>
        <pt x="375" y="431" on="0"/>
        <pt x="342" y="300" on="0"/>
        <pt x="326" y="212" on="0"/>
        <pt x="326" y="179" on="1"/>
        <pt x="326" y="153" on="0"/>
        <pt x="332" y="113" on="0"/>
        <pt x="351" y="85" on="0"/>
        <pt x="386" y="70" on="0"/>
        <pt x="415" y="70" on="1"/>
        <pt x="439" y="70" on="0"/>
        <pt x="482" y="79" on="0"/>
        <pt x="520" y="107" on="0"/>
        <pt x="555" y="157" on="0"/>
        <pt x="589" y="239" on="0"/>
        <pt x="623" y="357" on="0"/>
        <pt x="641" y="439" on="1"/>
        <pt x="708" y="748" on="1"/>
      </contour>
    </TTGlyph>
    <TTGlyph name="Uacute" xMin="55" yMin="-7" xMax="816" yMax="1000">
      <contour>
        <pt x="816" y="748" on="1"/>
        <pt x="750" y="436" on="1"/>
        <pt x="726" y="322" on="0"/>
        <pt x="675" y="155" on="0"/>
        <pt x="599" y="46" on="0"/>
        <pt x="487" y="-7" on="0"/>
        <pt x="403" y="-7" on="1"/>
        <pt x="349" y="-7" on="0"/>
        <pt x="275" y="14" on="0"/>
        <pt x="230" y="56" on="0"/>
        <pt x="210" y="116" on="0"/>
        <pt x="210" y="155" on="1"/>
        <pt x="210" y="227" on="0"/>
        <pt x="260" y="432" on="0"/>
        <pt x="292" y="560" on="1"/>
        <pt x="328" y="707" on="1"/>
        <pt x="235" y="689" on="0"/>
        <pt x="127" y="560" on="0"/>
        <pt x="127" y="463" on="1"/>
        <pt x="127" y="426" on="0"/>
        <pt x="139" y="401" on="0"/>
        <pt x="142" y="394" on="1"/>
        <pt x="107" y="394" on="0"/>
        <pt x="55" y="439" on="0"/>
        <pt x="55" y="485" on="1"/>
        <pt x="55" y="538" on="0"/>
        <pt x="118" y="634" on="0"/>
        <pt x="220" y="707" on="0"/>
        <pt x="348" y="750" on="0"/>
        <pt x="413" y="750" on="1"/>
        <pt x="426" y="750" on="0"/>
        <pt x="445" y="748" on="0"/>
        <pt x="461" y="745" on="1"/>
        <pt x="426" y="616" on="0"/>
        <pt x="375" y="431" on="0"/>
        <pt x="342" y="300" on="0"/>
        <pt x="326" y="212" on="0"/>
        <pt x="326" y="179" on="1"/>
        <pt x="326" y="153" on="0"/>
        <pt x="332" y="113" on="0"/>
        <pt x="351" y="85" on="0"/>
        <pt x="386" y="70" on="0"/>
        <pt x="415" y="70" on="1"/>
        <pt x="439" y="70" on="0"/>
        <pt x="482" y="79" on="0"/>
        <pt x="520" y="107" on="0"/>
        <pt x="555" y="157" on="0"/>
        <pt x="589" y="239" on="0"/>
        <pt x="623" y="357" on="0"/>
        <pt x="641" y="439" on="1"/>
        <pt x="708" y="748" on="1"/>
      </contour>
      <contour>
        <pt x="648" y="1000" on="1"/>
        <pt x="733" y="1000" on="1"/>
        <pt x="612" y="811" on="1"/>
        <pt x="557" y="811" on="1"/>
      </contour>
    </TTGlyph>
    <TTGlyph name="Ucircumflex" xMin="55" yMin="-7" xMax="816" yMax="978">
      <contour>
        <pt x="816" y="748" on="1"/>
        <pt x="750" y="436" on="1"/>
        <pt x="726" y="322" on="0"/>
        <pt x="675" y="155" on="0"/>
        <pt x="599" y="46" on="0"/>
        <pt x="487" y="-7" on="0"/>
        <pt x="403" y="-7" on="1"/>
        <pt x="349" y="-7" on="0"/>
        <pt x="275" y="14" on="0"/>
        <pt x="230" y="56" on="0"/>
        <pt x="210" y="116" on="0"/>
        <pt x="210" y="155" on="1"/>
        <pt x="210" y="227" on="0"/>
        <pt x="260" y="432" on="0"/>
        <pt x="292" y="560" on="1"/>
        <pt x="328" y="707" on="1"/>
        <pt x="235" y="689" on="0"/>
        <pt x="127" y="560" on="0"/>
        <pt x="127" y="463" on="1"/>
        <pt x="127" y="426" on="0"/>
        <pt x="139" y="401" on="0"/>
        <pt x="142" y="394" on="1"/>
        <pt x="107" y="394" on="0"/>
        <pt x="55" y="439" on="0"/>
        <pt x="55" y="485" on="1"/>
        <pt x="55" y="538" on="0"/>
        <pt x="118" y="634" on="0"/>
        <pt x="220" y="707" on="0"/>
        <pt x="348" y="750" on="0"/>
        <pt x="413" y="750" on="1"/>
        <pt x="426" y="750" on="0"/>
        <pt x="445" y="748" on="0"/>
        <pt x="461" y="745" on="1"/>
        <pt x="426" y="616" on="0"/>
        <pt x="375" y="431" on="0"/>
        <pt x="342" y="300" on="0"/>
        <pt x="326" y="212" on="0"/>
        <pt x="326" y="179" on="1"/>
        <pt x="326" y="153" on="0"/>
        <pt x="332" y="113" on="0"/>
        <pt x="351" y="85" on="0"/>
        <pt x="386" y="70" on="0"/>
        <pt x="415" y="70" on="1"/>
        <pt x="439" y="70" on="0"/>
        <pt x="482" y="79" on="0"/>
        <pt x="520" y="107" on="0"/>
        <pt x="555" y="157" on="0"/>
        <pt x="589" y="239" on="0"/>
        <pt x="623" y="357" on="0"/>
        <pt x="641" y="439" on="1"/>
        <pt x="708" y="748" on="1"/>
      </contour>
      <contour>
        <pt x="715" y="811" on="1"/>
        <pt x="650" y="912" on="1"/>
        <pt x="488" y="811" on="1"/>
        <pt x="454" y="811" on="1"/>
        <pt x="655" y="978" on="1"/>
        <pt x="676" y="978" on="1"/>
        <pt x="737" y="811" on="1"/>
      </contour>
    </TTGlyph>
    <TTGlyph name="Udieresis" xMin="55" yMin="-7" xMax="816" yMax="945">
      <contour>
        <pt x="816" y="748" on="1"/>
        <pt x="750" y="436" on="1"/>
        <pt x="726" y="322" on="0"/>
        <pt x="675" y="155" on="0"/>
        <pt x="599" y="46" on="0"/>
        <pt x="487" y="-7" on="0"/>
        <pt x="403" y="-7" on="1"/>
        <pt x="349" y="-7" on="0"/>
        <pt x="275" y="14" on="0"/>
        <pt x="230" y="56" on="0"/>
        <pt x="210" y="116" on="0"/>
        <pt x="210" y="155" on="1"/>
        <pt x="210" y="227" on="0"/>
        <pt x="260" y="432" on="0"/>
        <pt x="292" y="560" on="1"/>
        <pt x="328" y="707" on="1"/>
        <pt x="235" y="689" on="0"/>
        <pt x="127" y="560" on="0"/>
        <pt x="127" y="463" on="1"/>
        <pt x="127" y="426" on="0"/>
        <pt x="139" y="401" on="0"/>
        <pt x="142" y="394" on="1"/>
        <pt x="107" y="394" on="0"/>
        <pt x="55" y="439" on="0"/>
        <pt x="55" y="485" on="1"/>
        <pt x="55" y="538" on="0"/>
        <pt x="118" y="634" on="0"/>
        <pt x="220" y="707" on="0"/>
        <pt x="348" y="750" on="0"/>
        <pt x="413" y="750" on="1"/>
        <pt x="426" y="750" on="0"/>
        <pt x="445" y="748" on="0"/>
        <pt x="461" y="745" on="1"/>
        <pt x="426" y="616" on="0"/>
        <pt x="375" y="431" on="0"/>
        <pt x="342" y="300" on="0"/>
        <pt x="326" y="212" on="0"/>
        <pt x="326" y="179" on="1"/>
        <pt x="326" y="153" on="0"/>
        <pt x="332" y="113" on="0"/>
        <pt x="351" y="85" on="0"/>
        <pt x="386" y="70" on="0"/>
        <pt x="415" y="70" on="1"/>
        <pt x="439" y="70" on="0"/>
        <pt x="482" y="79" on="0"/>
        <pt x="520" y="107" on="0"/>
        <pt x="555" y="157" on="0"/>
        <pt x="589" y="239" on="0"/>
        <pt x="623" y="357" on="0"/>
        <pt x="641" y="439" on="1"/>
        <pt x="708" y="748" on="1"/>
      </contour>
      <contour>
        <pt x="658" y="892" on="1"/>
        <pt x="658" y="914" on="0"/>
        <pt x="688" y="945" on="0"/>
        <pt x="710" y="945" on="1"/>
        <pt x="732" y="945" on="0"/>
        <pt x="763" y="914" on="0"/>
        <pt x="763" y="892" on="1"/>
        <pt x="763" y="870" on="0"/>
        <pt x="732" y="840" on="0"/>
        <pt x="710" y="840" on="1"/>
        <pt x="688" y="840" on="0"/>
        <pt x="658" y="870" on="0"/>
      </contour>
      <contour>
        <pt x="494" y="892" on="1"/>
        <pt x="494" y="914" on="0"/>
        <pt x="524" y="945" on="0"/>
        <pt x="546" y="945" on="1"/>
        <pt x="568" y="945" on="0"/>
        <pt x="599" y="914" on="0"/>
        <pt x="599" y="892" on="1"/>
        <pt x="599" y="870" on="0"/>
        <pt x="568" y="840" on="0"/>
        <pt x="546" y="840" on="1"/>
        <pt x="524" y="840" on="0"/>
        <pt x="494" y="870" on="0"/>
      </contour>
    </TTGlyph>
    <TTGlyph name="Ugrave" xMin="55" yMin="-7" xMax="816" yMax="1000">
      <contour>
        <pt x="816" y="748" on="1"/>
        <pt x="750" y="436" on="1"/>
        <pt x="726" y="322" on="0"/>
        <pt x="675" y="155" on="0"/>
        <pt x="599" y="46" on="0"/>
        <pt x="487" y="-7" on="0"/>
        <pt x="403" y="-7" on="1"/>
        <pt x="349" y="-7" on="0"/>
        <pt x="275" y="14" on="0"/>
        <pt x="230" y="56" on="0"/>
        <pt x="210" y="116" on="0"/>
        <pt x="210" y="155" on="1"/>
        <pt x="210" y="227" on="0"/>
        <pt x="260" y="432" on="0"/>
        <pt x="292" y="560" on="1"/>
        <pt x="328" y="707" on="1"/>
        <pt x="235" y="689" on="0"/>
        <pt x="127" y="560" on="0"/>
        <pt x="127" y="463" on="1"/>
        <pt x="127" y="426" on="0"/>
        <pt x="139" y="401" on="0"/>
        <pt x="142" y="394" on="1"/>
        <pt x="107" y="394" on="0"/>
        <pt x="55" y="439" on="0"/>
        <pt x="55" y="485" on="1"/>
        <pt x="55" y="538" on="0"/>
        <pt x="118" y="634" on="0"/>
        <pt x="220" y="707" on="0"/>
        <pt x="348" y="750" on="0"/>
        <pt x="413" y="750" on="1"/>
        <pt x="426" y="750" on="0"/>
        <pt x="445" y="748" on="0"/>
        <pt x="461" y="745" on="1"/>
        <pt x="426" y="616" on="0"/>
        <pt x="375" y="431" on="0"/>
        <pt x="342" y="300" on="0"/>
        <pt x="326" y="212" on="0"/>
        <pt x="326" y="179" on="1"/>
        <pt x="326" y="153" on="0"/>
        <pt x="332" y="113" on="0"/>
        <pt x="351" y="85" on="0"/>
        <pt x="386" y="70" on="0"/>
        <pt x="415" y="70" on="1"/>
        <pt x="439" y="70" on="0"/>
        <pt x="482" y="79" on="0"/>
        <pt x="520" y="107" on="0"/>
        <pt x="555" y="157" on="0"/>
        <pt x="589" y="239" on="0"/>
        <pt x="623" y="357" on="0"/>
        <pt x="641" y="439" on="1"/>
        <pt x="708" y="748" on="1"/>
      </contour>
      <contour>
        <pt x="618" y="811" on="1"/>
        <pt x="563" y="811" on="1"/>
        <pt x="502" y="1000" on="1"/>
        <pt x="587" y="1000" on="1"/>
      </contour>
    </TTGlyph>
    <TTGlyph name="Uhungarumlaut" xMin="55" yMin="-7" xMax="816" yMax="1000">
      <contour>
        <pt x="816" y="748" on="1"/>
        <pt x="750" y="436" on="1"/>
        <pt x="726" y="322" on="0"/>
        <pt x="675" y="155" on="0"/>
        <pt x="599" y="46" on="0"/>
        <pt x="487" y="-7" on="0"/>
        <pt x="403" y="-7" on="1"/>
        <pt x="349" y="-7" on="0"/>
        <pt x="275" y="14" on="0"/>
        <pt x="230" y="56" on="0"/>
        <pt x="210" y="116" on="0"/>
        <pt x="210" y="155" on="1"/>
        <pt x="210" y="227" on="0"/>
        <pt x="260" y="432" on="0"/>
        <pt x="292" y="560" on="1"/>
        <pt x="328" y="707" on="1"/>
        <pt x="235" y="689" on="0"/>
        <pt x="127" y="560" on="0"/>
        <pt x="127" y="463" on="1"/>
        <pt x="127" y="426" on="0"/>
        <pt x="139" y="401" on="0"/>
        <pt x="142" y="394" on="1"/>
        <pt x="107" y="394" on="0"/>
        <pt x="55" y="439" on="0"/>
        <pt x="55" y="485" on="1"/>
        <pt x="55" y="538" on="0"/>
        <pt x="118" y="634" on="0"/>
        <pt x="220" y="707" on="0"/>
        <pt x="348" y="750" on="0"/>
        <pt x="413" y="750" on="1"/>
        <pt x="426" y="750" on="0"/>
        <pt x="445" y="748" on="0"/>
        <pt x="461" y="745" on="1"/>
        <pt x="426" y="616" on="0"/>
        <pt x="375" y="431" on="0"/>
        <pt x="342" y="300" on="0"/>
        <pt x="326" y="212" on="0"/>
        <pt x="326" y="179" on="1"/>
        <pt x="326" y="153" on="0"/>
        <pt x="332" y="113" on="0"/>
        <pt x="351" y="85" on="0"/>
        <pt x="386" y="70" on="0"/>
        <pt x="415" y="70" on="1"/>
        <pt x="439" y="70" on="0"/>
        <pt x="482" y="79" on="0"/>
        <pt x="520" y="107" on="0"/>
        <pt x="555" y="157" on="0"/>
        <pt x="589" y="239" on="0"/>
        <pt x="623" y="357" on="0"/>
        <pt x="641" y="439" on="1"/>
        <pt x="708" y="748" on="1"/>
      </contour>
      <contour>
        <pt x="725" y="1000" on="1"/>
        <pt x="810" y="1000" on="1"/>
        <pt x="689" y="811" on="1"/>
        <pt x="634" y="811" on="1"/>
      </contour>
      <contour>
        <pt x="595" y="1000" on="1"/>
        <pt x="680" y="1000" on="1"/>
        <pt x="559" y="811" on="1"/>
        <pt x="504" y="811" on="1"/>
      </contour>
    </TTGlyph>
    <TTGlyph name="V" xMin="59" yMin="0" xMax="739" yMax="750">
      <contour>
        <pt x="427" y="80" on="1"/>
        <pt x="682" y="745" on="1"/>
        <pt x="739" y="745" on="1"/>
        <pt x="438" y="0" on="1"/>
        <pt x="327" y="0" on="1"/>
        <pt x="300" y="693" on="1"/>
        <pt x="253" y="693" on="0"/>
        <pt x="187" y="656" on="0"/>
        <pt x="145" y="596" on="0"/>
        <pt x="125" y="522" on="0"/>
        <pt x="125" y="485" on="1"/>
        <pt x="125" y="433" on="0"/>
        <pt x="146" y="394" on="1"/>
        <pt x="129" y="394" on="0"/>
        <pt x="98" y="402" on="0"/>
        <pt x="74" y="423" on="0"/>
        <pt x="59" y="458" on="0"/>
        <pt x="59" y="485" on="1"/>
        <pt x="59" y="538" on="0"/>
        <pt x="103" y="634" on="0"/>
        <pt x="184" y="707" on="0"/>
        <pt x="298" y="750" on="0"/>
        <pt x="368" y="750" on="1"/>
        <pt x="379" y="750" on="0"/>
        <pt x="400" y="748" on="0"/>
        <pt x="410" y="746" on="1"/>
      </contour>
    </TTGlyph>
    <TTGlyph name="W" xMin="59" yMin="0" xMax="1085" yMax="750">
      <contour>
        <pt x="427" y="80" on="1"/>
        <pt x="682" y="745" on="1"/>
        <pt x="756" y="745" on="1"/>
        <pt x="773" y="80" on="1"/>
        <pt x="1028" y="745" on="1"/>
        <pt x="1085" y="745" on="1"/>
        <pt x="784" y="0" on="1"/>
        <pt x="673" y="0" on="1"/>
        <pt x="654" y="534" on="1"/>
        <pt x="438" y="0" on="1"/>
        <pt x="327" y="0" on="1"/>
        <pt x="300" y="693" on="1"/>
        <pt x="253" y="693" on="0"/>
        <pt x="187" y="656" on="0"/>
        <pt x="145" y="596" on="0"/>
        <pt x="125" y="522" on="0"/>
        <pt x="125" y="485" on="1"/>
        <pt x="125" y="433" on="0"/>
        <pt x="146" y="394" on="1"/>
        <pt x="129" y="394" on="0"/>
        <pt x="98" y="402" on="0"/>
        <pt x="74" y="423" on="0"/>
        <pt x="59" y="458" on="0"/>
        <pt x="59" y="485" on="1"/>
        <pt x="59" y="538" on="0"/>
        <pt x="103" y="634" on="0"/>
        <pt x="184" y="707" on="0"/>
        <pt x="298" y="750" on="0"/>
        <pt x="368" y="750" on="1"/>
        <pt x="379" y="750" on="0"/>
        <pt x="400" y="748" on="0"/>
        <pt x="410" y="746" on="1"/>
      </contour>
    </TTGlyph>
    <TTGlyph name="X" xMin="60" yMin="0" xMax="693" yMax="751">
      <contour>
        <pt x="474" y="0" on="1"/>
        <pt x="397" y="306" on="1"/>
        <pt x="237" y="0" on="1"/>
        <pt x="190" y="0" on="1"/>
        <pt x="382" y="365" on="1"/>
        <pt x="295" y="714" on="1"/>
        <pt x="260" y="705" on="0"/>
        <pt x="199" y="659" on="0"/>
        <pt x="154" y="595" on="0"/>
        <pt x="128" y="517" on="0"/>
        <pt x="128" y="476" on="1"/>
        <pt x="128" y="440" on="0"/>
        <pt x="139" y="410" on="0"/>
        <pt x="144" y="403" on="1"/>
        <pt x="106" y="403" on="0"/>
        <pt x="60" y="435" on="0"/>
        <pt x="60" y="485" on="1"/>
        <pt x="60" y="544" on="0"/>
        <pt x="112" y="642" on="0"/>
        <pt x="197" y="712" on="0"/>
        <pt x="304" y="751" on="0"/>
        <pt x="359" y="751" on="1"/>
        <pt x="380" y="751" on="0"/>
        <pt x="400" y="748" on="1"/>
        <pt x="483" y="407" on="1"/>
        <pt x="646" y="745" on="1"/>
        <pt x="693" y="745" on="1"/>
        <pt x="497" y="348" on="1"/>
        <pt x="582" y="0" on="1"/>
      </contour>
    </TTGlyph>
    <TTGlyph name="Y" xMin="59" yMin="0" xMax="700" yMax="750">
      <contour>
        <pt x="331" y="0" on="1"/>
        <pt x="397" y="308" on="1"/>
        <pt x="293" y="714" on="1"/>
        <pt x="248" y="702" on="0"/>
        <pt x="183" y="654" on="0"/>
        <pt x="142" y="592" on="0"/>
        <pt x="122" y="521" on="0"/>
        <pt x="122" y="488" on="1"/>
        <pt x="122" y="430" on="0"/>
        <pt x="146" y="393" on="1"/>
        <pt x="105" y="393" on="0"/>
        <pt x="59" y="434" on="0"/>
        <pt x="59" y="485" on="1"/>
        <pt x="59" y="538" on="0"/>
        <pt x="106" y="634" on="0"/>
        <pt x="187" y="707" on="0"/>
        <pt x="296" y="750" on="0"/>
        <pt x="358" y="750" on="1"/>
        <pt x="369" y="750" on="0"/>
        <pt x="389" y="749" on="0"/>
        <pt x="399" y="748" on="1"/>
        <pt x="493" y="359" on="1"/>
        <pt x="654" y="745" on="1"/>
        <pt x="700" y="745" on="1"/>
        <pt x="506" y="308" on="1"/>
        <pt x="440" y="0" on="1"/>
      </contour>
    </TTGlyph>
    <TTGlyph name="Yacute" xMin="59" yMin="0" xMax="724" yMax="1000">
      <contour>
        <pt x="331" y="0" on="1"/>
        <pt x="397" y="308" on="1"/>
        <pt x="293" y="714" on="1"/>
        <pt x="248" y="702" on="0"/>
        <pt x="183" y="654" on="0"/>
        <pt x="142" y="592" on="0"/>
        <pt x="122" y="521" on="0"/>
        <pt x="122" y="488" on="1"/>
        <pt x="122" y="430" on="0"/>
        <pt x="146" y="393" on="1"/>
        <pt x="105" y="393" on="0"/>
        <pt x="59" y="434" on="0"/>
        <pt x="59" y="485" on="1"/>
        <pt x="59" y="538" on="0"/>
        <pt x="106" y="634" on="0"/>
        <pt x="187" y="707" on="0"/>
        <pt x="296" y="750" on="0"/>
        <pt x="358" y="750" on="1"/>
        <pt x="369" y="750" on="0"/>
        <pt x="389" y="749" on="0"/>
        <pt x="399" y="748" on="1"/>
        <pt x="493" y="359" on="1"/>
        <pt x="654" y="745" on="1"/>
        <pt x="700" y="745" on="1"/>
        <pt x="506" y="308" on="1"/>
        <pt x="440" y="0" on="1"/>
      </contour>
      <contour>
        <pt x="639" y="1000" on="1"/>
        <pt x="724" y="1000" on="1"/>
        <pt x="603" y="811" on="1"/>
        <pt x="548" y="811" on="1"/>
      </contour>
    </TTGlyph>
    <TTGlyph name="Ydieresis" xMin="59" yMin="0" xMax="700" yMax="945">
      <contour>
        <pt x="331" y="0" on="1"/>
        <pt x="397" y="308" on="1"/>
        <pt x="293" y="714" on="1"/>
        <pt x="248" y="702" on="0"/>
        <pt x="183" y="654" on="0"/>
        <pt x="142" y="592" on="0"/>
        <pt x="122" y="521" on="0"/>
        <pt x="122" y="488" on="1"/>
        <pt x="122" y="430" on="0"/>
        <pt x="146" y="393" on="1"/>
        <pt x="105" y="393" on="0"/>
        <pt x="59" y="434" on="0"/>
        <pt x="59" y="485" on="1"/>
        <pt x="59" y="538" on="0"/>
        <pt x="106" y="634" on="0"/>
        <pt x="187" y="707" on="0"/>
        <pt x="296" y="750" on="0"/>
        <pt x="358" y="750" on="1"/>
        <pt x="369" y="750" on="0"/>
        <pt x="389" y="749" on="0"/>
        <pt x="399" y="748" on="1"/>
        <pt x="493" y="359" on="1"/>
        <pt x="654" y="745" on="1"/>
        <pt x="700" y="745" on="1"/>
        <pt x="506" y="308" on="1"/>
        <pt x="440" y="0" on="1"/>
      </contour>
      <contour>
        <pt x="572" y="892" on="1"/>
        <pt x="572" y="914" on="0"/>
        <pt x="602" y="945" on="0"/>
        <pt x="624" y="945" on="1"/>
        <pt x="646" y="945" on="0"/>
        <pt x="677" y="914" on="0"/>
        <pt x="677" y="892" on="1"/>
        <pt x="677" y="870" on="0"/>
        <pt x="646" y="840" on="0"/>
        <pt x="624" y="840" on="1"/>
        <pt x="602" y="840" on="0"/>
        <pt x="572" y="870" on="0"/>
      </contour>
      <contour>
        <pt x="408" y="892" on="1"/>
        <pt x="408" y="914" on="0"/>
        <pt x="438" y="945" on="0"/>
        <pt x="460" y="945" on="1"/>
        <pt x="482" y="945" on="0"/>
        <pt x="513" y="914" on="0"/>
        <pt x="513" y="892" on="1"/>
        <pt x="513" y="870" on="0"/>
        <pt x="482" y="840" on="0"/>
        <pt x="460" y="840" on="1"/>
        <pt x="438" y="840" on="0"/>
        <pt x="408" y="870" on="0"/>
      </contour>
    </TTGlyph>
    <TTGlyph name="Z" xMin="4" yMin="0" xMax="501" yMax="750">
      <contour>
        <pt x="400" y="71" on="1"/>
        <pt x="391" y="78" on="0"/>
        <pt x="383" y="97" on="0"/>
        <pt x="383" y="104" on="1"/>
        <pt x="383" y="127" on="0"/>
        <pt x="416" y="153" on="0"/>
        <pt x="439" y="153" on="1"/>
        <pt x="458" y="153" on="0"/>
        <pt x="493" y="128" on="0"/>
        <pt x="493" y="105" on="1"/>
        <pt x="493" y="87" on="0"/>
        <pt x="474" y="49" on="0"/>
        <pt x="439" y="19" on="0"/>
        <pt x="392" y="0" on="0"/>
        <pt x="365" y="0" on="1"/>
        <pt x="4" y="0" on="1"/>
        <pt x="358" y="705" on="1"/>
        <pt x="347" y="706" on="0"/>
        <pt x="294" y="710" on="0"/>
        <pt x="265" y="710" on="1"/>
        <pt x="233" y="710" on="0"/>
        <pt x="180" y="702" on="0"/>
        <pt x="176" y="690" on="1"/>
        <pt x="192" y="677" on="0"/>
        <pt x="192" y="657" on="1"/>
        <pt x="192" y="638" on="0"/>
        <pt x="162" y="607" on="0"/>
        <pt x="139" y="607" on="1"/>
        <pt x="119" y="607" on="0"/>
        <pt x="84" y="638" on="0"/>
        <pt x="84" y="668" on="1"/>
        <pt x="84" y="683" on="0"/>
        <pt x="103" y="713" on="0"/>
        <pt x="136" y="736" on="0"/>
        <pt x="182" y="750" on="0"/>
        <pt x="210" y="750" on="1"/>
        <pt x="501" y="750" on="1"/>
        <pt x="150" y="53" on="1"/>
        <pt x="173" y="53" on="0"/>
        <pt x="244" y="50" on="0"/>
        <pt x="281" y="50" on="1"/>
        <pt x="302" y="50" on="0"/>
        <pt x="341" y="52" on="0"/>
        <pt x="373" y="56" on="0"/>
        <pt x="396" y="65" on="0"/>
      </contour>
    </TTGlyph>
    <TTGlyph name="Zacute" xMin="4" yMin="0" xMax="533" yMax="1000">
      <contour>
        <pt x="400" y="71" on="1"/>
        <pt x="391" y="78" on="0"/>
        <pt x="383" y="97" on="0"/>
        <pt x="383" y="104" on="1"/>
        <pt x="383" y="127" on="0"/>
        <pt x="416" y="153" on="0"/>
        <pt x="439" y="153" on="1"/>
        <pt x="458" y="153" on="0"/>
        <pt x="493" y="128" on="0"/>
        <pt x="493" y="105" on="1"/>
        <pt x="493" y="87" on="0"/>
        <pt x="474" y="49" on="0"/>
        <pt x="439" y="19" on="0"/>
        <pt x="392" y="0" on="0"/>
        <pt x="365" y="0" on="1"/>
        <pt x="4" y="0" on="1"/>
        <pt x="358" y="705" on="1"/>
        <pt x="347" y="706" on="0"/>
        <pt x="294" y="710" on="0"/>
        <pt x="265" y="710" on="1"/>
        <pt x="233" y="710" on="0"/>
        <pt x="180" y="702" on="0"/>
        <pt x="176" y="690" on="1"/>
        <pt x="192" y="677" on="0"/>
        <pt x="192" y="657" on="1"/>
        <pt x="192" y="638" on="0"/>
        <pt x="162" y="607" on="0"/>
        <pt x="139" y="607" on="1"/>
        <pt x="119" y="607" on="0"/>
        <pt x="84" y="638" on="0"/>
        <pt x="84" y="668" on="1"/>
        <pt x="84" y="683" on="0"/>
        <pt x="103" y="713" on="0"/>
        <pt x="136" y="736" on="0"/>
        <pt x="182" y="750" on="0"/>
        <pt x="210" y="750" on="1"/>
        <pt x="501" y="750" on="1"/>
        <pt x="150" y="53" on="1"/>
        <pt x="173" y="53" on="0"/>
        <pt x="244" y="50" on="0"/>
        <pt x="281" y="50" on="1"/>
        <pt x="302" y="50" on="0"/>
        <pt x="341" y="52" on="0"/>
        <pt x="373" y="56" on="0"/>
        <pt x="396" y="65" on="0"/>
      </contour>
      <contour>
        <pt x="448" y="1000" on="1"/>
        <pt x="533" y="1000" on="1"/>
        <pt x="412" y="811" on="1"/>
        <pt x="357" y="811" on="1"/>
      </contour>
    </TTGlyph>
    <TTGlyph name="Zcaron" xMin="4" yMin="0" xMax="613" yMax="992">
      <contour>
        <pt x="400" y="71" on="1"/>
        <pt x="391" y="78" on="0"/>
        <pt x="383" y="97" on="0"/>
        <pt x="383" y="104" on="1"/>
        <pt x="383" y="127" on="0"/>
        <pt x="416" y="153" on="0"/>
        <pt x="439" y="153" on="1"/>
        <pt x="458" y="153" on="0"/>
        <pt x="493" y="128" on="0"/>
        <pt x="493" y="105" on="1"/>
        <pt x="493" y="87" on="0"/>
        <pt x="474" y="49" on="0"/>
        <pt x="439" y="19" on="0"/>
        <pt x="392" y="0" on="0"/>
        <pt x="365" y="0" on="1"/>
        <pt x="4" y="0" on="1"/>
        <pt x="358" y="705" on="1"/>
        <pt x="347" y="706" on="0"/>
        <pt x="294" y="710" on="0"/>
        <pt x="265" y="710" on="1"/>
        <pt x="233" y="710" on="0"/>
        <pt x="180" y="702" on="0"/>
        <pt x="176" y="690" on="1"/>
        <pt x="192" y="677" on="0"/>
        <pt x="192" y="657" on="1"/>
        <pt x="192" y="638" on="0"/>
        <pt x="162" y="607" on="0"/>
        <pt x="139" y="607" on="1"/>
        <pt x="119" y="607" on="0"/>
        <pt x="84" y="638" on="0"/>
        <pt x="84" y="668" on="1"/>
        <pt x="84" y="683" on="0"/>
        <pt x="103" y="713" on="0"/>
        <pt x="136" y="736" on="0"/>
        <pt x="182" y="750" on="0"/>
        <pt x="210" y="750" on="1"/>
        <pt x="501" y="750" on="1"/>
        <pt x="150" y="53" on="1"/>
        <pt x="173" y="53" on="0"/>
        <pt x="244" y="50" on="0"/>
        <pt x="281" y="50" on="1"/>
        <pt x="302" y="50" on="0"/>
        <pt x="341" y="52" on="0"/>
        <pt x="373" y="56" on="0"/>
        <pt x="396" y="65" on="0"/>
      </contour>
      <contour>
        <pt x="352" y="992" on="1"/>
        <pt x="417" y="891" on="1"/>
        <pt x="579" y="992" on="1"/>
        <pt x="613" y="992" on="1"/>
        <pt x="412" y="825" on="1"/>
        <pt x="391" y="825" on="1"/>
        <pt x="330" y="992" on="1"/>
      </contour>
    </TTGlyph>
    <TTGlyph name="Zdotaccent" xMin="4" yMin="0" xMax="501" yMax="945">
      <contour>
        <pt x="430" y="884" on="1"/>
        <pt x="430" y="858" on="0"/>
        <pt x="394" y="823" on="0"/>
        <pt x="369" y="823" on="1"/>
        <pt x="343" y="823" on="0"/>
        <pt x="308" y="858" on="0"/>
        <pt x="308" y="884" on="1"/>
        <pt x="308" y="909" on="0"/>
        <pt x="343" y="945" on="0"/>
        <pt x="369" y="945" on="1"/>
        <pt x="394" y="945" on="0"/>
        <pt x="430" y="909" on="0"/>
      </contour>
      <contour>
        <pt x="400" y="71" on="1"/>
        <pt x="391" y="78" on="0"/>
        <pt x="383" y="97" on="0"/>
        <pt x="383" y="104" on="1"/>
        <pt x="383" y="127" on="0"/>
        <pt x="416" y="153" on="0"/>
        <pt x="439" y="153" on="1"/>
        <pt x="458" y="153" on="0"/>
        <pt x="493" y="128" on="0"/>
        <pt x="493" y="105" on="1"/>
        <pt x="493" y="87" on="0"/>
        <pt x="474" y="49" on="0"/>
        <pt x="439" y="19" on="0"/>
        <pt x="392" y="0" on="0"/>
        <pt x="365" y="0" on="1"/>
        <pt x="4" y="0" on="1"/>
        <pt x="358" y="705" on="1"/>
        <pt x="347" y="706" on="0"/>
        <pt x="294" y="710" on="0"/>
        <pt x="265" y="710" on="1"/>
        <pt x="233" y="710" on="0"/>
        <pt x="180" y="702" on="0"/>
        <pt x="176" y="690" on="1"/>
        <pt x="192" y="677" on="0"/>
        <pt x="192" y="657" on="1"/>
        <pt x="192" y="638" on="0"/>
        <pt x="162" y="607" on="0"/>
        <pt x="139" y="607" on="1"/>
        <pt x="119" y="607" on="0"/>
        <pt x="84" y="638" on="0"/>
        <pt x="84" y="668" on="1"/>
        <pt x="84" y="683" on="0"/>
        <pt x="103" y="713" on="0"/>
        <pt x="136" y="736" on="0"/>
        <pt x="182" y="750" on="0"/>
        <pt x="210" y="750" on="1"/>
        <pt x="501" y="750" on="1"/>
        <pt x="150" y="53" on="1"/>
        <pt x="173" y="53" on="0"/>
        <pt x="244" y="50" on="0"/>
        <pt x="281" y="50" on="1"/>
        <pt x="302" y="50" on="0"/>
        <pt x="341" y="52" on="0"/>
        <pt x="373" y="56" on="0"/>
        <pt x="396" y="65" on="0"/>
      </contour>
    </TTGlyph>
    <TTGlyph name="a" xMin="5" yMin="-6" xMax="539" yMax="505">
      <contour>
        <pt x="454" y="500" on="1"/>
        <pt x="381" y="160" on="1"/>
        <pt x="376" y="140" on="0"/>
        <pt x="376" y="115" on="1"/>
        <pt x="376" y="98" on="0"/>
        <pt x="388" y="70" on="0"/>
        <pt x="407" y="70" on="1"/>
        <pt x="431" y="70" on="0"/>
        <pt x="480" y="128" on="0"/>
        <pt x="502" y="179" on="1"/>
        <pt x="539" y="179" on="1"/>
        <pt x="515" y="116" on="0"/>
        <pt x="467" y="43" on="0"/>
        <pt x="422" y="5" on="0"/>
        <pt x="381" y="-6" on="0"/>
        <pt x="365" y="-6" on="1"/>
        <pt x="332" y="-6" on="0"/>
        <pt x="289" y="40" on="0"/>
        <pt x="285" y="92" on="1"/>
        <pt x="262" y="51" on="0"/>
        <pt x="181" y="-6" on="0"/>
        <pt x="133" y="-6" on="1"/>
        <pt x="109" y="-6" on="0"/>
        <pt x="63" y="11" on="0"/>
        <pt x="27" y="50" on="0"/>
        <pt x="5" y="111" on="0"/>
        <pt x="5" y="155" on="1"/>
        <pt x="5" y="189" on="0"/>
        <pt x="20" y="267" on="0"/>
        <pt x="48" y="345" on="0"/>
        <pt x="92" y="417" on="0"/>
        <pt x="148" y="472" on="0"/>
        <pt x="219" y="505" on="0"/>
        <pt x="261" y="505" on="1"/>
        <pt x="285" y="505" on="0"/>
        <pt x="335" y="483" on="0"/>
        <pt x="343" y="452" on="1"/>
        <pt x="353" y="500" on="1"/>
      </contour>
      <contour>
        <pt x="175" y="70" on="1"/>
        <pt x="191" y="70" on="0"/>
        <pt x="225" y="87" on="0"/>
        <pt x="256" y="116" on="0"/>
        <pt x="280" y="156" on="0"/>
        <pt x="285" y="179" on="1"/>
        <pt x="333" y="406" on="1"/>
        <pt x="330" y="423" on="0"/>
        <pt x="306" y="450" on="0"/>
        <pt x="283" y="450" on="1"/>
        <pt x="242" y="450" on="0"/>
        <pt x="178" y="390" on="0"/>
        <pt x="134" y="304" on="0"/>
        <pt x="112" y="206" on="0"/>
        <pt x="112" y="169" on="1"/>
        <pt x="112" y="112" on="0"/>
        <pt x="146" y="70" on="0"/>
      </contour>
    </TTGlyph>
    <TTGlyph name="a.end" xMin="5" yMin="-6" xMax="454" yMax="505">
      <contour>
        <pt x="454" y="500" on="1"/>
        <pt x="381" y="160" on="1"/>
        <pt x="379" y="149" on="0"/>
        <pt x="377" y="127" on="0"/>
        <pt x="377" y="117" on="1"/>
        <pt x="377" y="96" on="0"/>
        <pt x="392" y="70" on="0"/>
        <pt x="412" y="70" on="1"/>
        <pt x="419" y="70" on="0"/>
        <pt x="434" y="72" on="0"/>
        <pt x="444" y="76" on="1"/>
        <pt x="432" y="28" on="0"/>
        <pt x="392" y="-6" on="0"/>
        <pt x="365" y="-6" on="1"/>
        <pt x="332" y="-6" on="0"/>
        <pt x="289" y="40" on="0"/>
        <pt x="285" y="92" on="1"/>
        <pt x="262" y="51" on="0"/>
        <pt x="181" y="-6" on="0"/>
        <pt x="133" y="-6" on="1"/>
        <pt x="109" y="-6" on="0"/>
        <pt x="63" y="11" on="0"/>
        <pt x="27" y="50" on="0"/>
        <pt x="5" y="111" on="0"/>
        <pt x="5" y="155" on="1"/>
        <pt x="5" y="189" on="0"/>
        <pt x="20" y="267" on="0"/>
        <pt x="48" y="345" on="0"/>
        <pt x="92" y="417" on="0"/>
        <pt x="148" y="472" on="0"/>
        <pt x="219" y="505" on="0"/>
        <pt x="261" y="505" on="1"/>
        <pt x="285" y="505" on="0"/>
        <pt x="335" y="483" on="0"/>
        <pt x="343" y="452" on="1"/>
        <pt x="353" y="500" on="1"/>
      </contour>
      <contour>
        <pt x="175" y="70" on="1"/>
        <pt x="191" y="70" on="0"/>
        <pt x="225" y="87" on="0"/>
        <pt x="256" y="116" on="0"/>
        <pt x="280" y="156" on="0"/>
        <pt x="285" y="179" on="1"/>
        <pt x="333" y="406" on="1"/>
        <pt x="330" y="423" on="0"/>
        <pt x="306" y="450" on="0"/>
        <pt x="283" y="450" on="1"/>
        <pt x="242" y="450" on="0"/>
        <pt x="178" y="390" on="0"/>
        <pt x="134" y="304" on="0"/>
        <pt x="112" y="206" on="0"/>
        <pt x="112" y="169" on="1"/>
        <pt x="112" y="112" on="0"/>
        <pt x="146" y="70" on="0"/>
      </contour>
    </TTGlyph>
</ttFont>
